<svg width="547" height="391" viewBox="0 0 547 391" fill="none" xmlns="http://www.w3.org/2000/svg">
<g clip-path="url(#clip0_166_784)">
<mask id="mask0_166_784" style="mask-type:luminance" maskUnits="userSpaceOnUse" x="0" y="0" width="547" height="391">
<path d="M547 0H0V391H547V0Z" fill="white"/>
</mask>
<g mask="url(#mask0_166_784)">
<mask id="mask1_166_784" style="mask-type:luminance" maskUnits="userSpaceOnUse" x="0" y="0" width="547" height="391">
<path d="M547 0H0V391H547V0Z" fill="white"/>
</mask>
<g mask="url(#mask1_166_784)">
<path d="M504.462 254.782H509.937V253.154H504.462V249.583H510.632V247.955H504.462V244.984C504.731 244.936 504.857 244.826 504.873 244.683L502.774 244.541V247.955H499.555C499.871 247.18 500.139 246.374 500.36 245.584C500.597 245.584 500.739 245.521 500.786 245.379L498.751 244.794C498.072 247.417 496.905 250.12 495.548 251.637C495.958 251.89 496.621 252.364 496.936 252.664C497.63 251.843 498.261 250.768 498.829 249.583H502.758V253.154H497.757V254.782H502.758V258.891H495.816V260.519H511.42V258.891H504.446V254.782H504.462ZM487.106 253.407H490.656V255.288H487.106V253.407ZM485.497 255.288H482.089V253.407H485.497V255.288ZM490.656 251.985H487.106V250.152H490.656V251.985ZM485.497 251.985H482.089V250.152H485.497V251.985ZM492.297 255.288V248.634H487.106V247.133H493.796V245.584H478.965V247.133H485.497V248.634H480.464V255.288H478.302V256.837H480.464V261.088H482.089V256.837H490.672V259.128C490.672 259.524 490.53 259.524 489.299 259.524C488.858 259.524 488.305 259.524 487.753 259.508C487.99 259.934 488.258 260.63 488.353 261.088C491.366 261.088 492.313 260.978 492.313 259.144V256.837H494.49V255.288H492.313H492.297ZM474.389 254.624C474.989 254.624 475.462 254.15 475.462 253.534C475.462 252.917 474.989 252.443 474.389 252.443C473.789 252.443 473.332 252.917 473.332 253.534C473.332 254.15 473.789 254.624 474.389 254.624ZM457.348 247.749C457.175 248.176 456.938 248.587 456.67 248.998C456.26 248.729 455.834 248.492 455.439 248.271L454.777 249.029C455.187 249.251 455.613 249.519 456.039 249.804C455.613 250.325 455.124 250.768 454.635 251.1C454.887 251.258 455.25 251.574 455.439 251.764C455.944 251.4 456.433 250.942 456.891 250.404C457.348 250.752 457.759 251.084 458.027 251.384L458.721 250.515C458.421 250.231 458.011 249.899 457.554 249.567C457.853 249.156 458.09 248.729 458.295 248.302C458.469 248.318 458.611 248.271 458.658 248.144L457.333 247.718L457.348 247.749ZM457.506 246.058V244.968C457.79 244.92 457.901 244.825 457.916 244.667L455.913 244.557V246.058H452.473V247.402H461.009V246.058H457.506ZM464.969 258.654H463.202V256.489H464.969V258.654ZM463.218 249.425H464.985V251.511H463.218V249.425ZM463.218 252.933H464.985V255.067H463.218V252.933ZM466.358 258.654V256.489H468.235V255.067H466.358V252.933H468.235V251.511H466.358V249.425H468.409V247.923H466.374C466.705 247.117 467.036 246.185 467.241 245.458C467.447 245.442 467.604 245.363 467.652 245.252L465.9 244.746C465.695 245.695 465.301 246.991 464.922 247.939H463.297C463.644 247.054 463.928 246.153 464.196 245.284C464.401 245.3 464.559 245.236 464.591 245.11L462.839 244.588C462.255 246.959 461.293 249.425 460.22 251.005V248.397C460.457 248.366 460.551 248.271 460.567 248.144L459.005 248.034V251.858H454.477V248.381C454.698 248.35 454.808 248.255 454.824 248.129L453.309 248.018V252.996H456.023C455.992 253.328 455.928 253.676 455.881 254.055H452.867V261.072H454.193V255.288H455.692C455.55 256.078 455.392 256.853 455.266 257.485L454.493 257.516L454.871 258.86C454.998 258.828 455.092 258.749 455.124 258.607C455.85 258.544 456.922 258.433 458.058 258.291C458.122 258.575 458.185 258.812 458.216 259.034L459.179 258.718C459.037 257.975 458.627 256.789 458.185 255.873L457.285 256.141C457.459 256.505 457.632 256.916 457.774 257.327L456.449 257.422C456.607 256.774 456.765 256.031 456.922 255.288H459.305V259.539C459.305 259.792 459.305 259.824 457.475 259.761C457.648 260.108 457.838 260.661 457.901 261.025C459.999 261.025 460.678 260.93 460.678 259.539V254.024H457.143L457.301 253.012C457.412 253.012 457.49 252.996 457.554 252.965H460.252V251.432C460.551 251.685 460.914 252.016 461.119 252.238C461.34 251.922 461.561 251.59 461.782 251.226V261.057H463.265V260.14H468.646V258.623H466.421L466.358 258.654ZM444.805 245.473C445.815 247.496 447.282 249.614 448.781 251.274L447.85 251.179H447.471L438.067 251.195C439.503 249.662 440.766 247.749 441.649 245.758C441.886 245.79 442.059 245.711 442.138 245.568L440.103 244.857C439.014 247.591 437.042 250.152 434.943 251.606C435.322 251.906 435.937 252.522 436.237 252.854C436.805 252.412 437.357 251.922 437.894 251.369V252.807H441.192C440.813 255.667 439.882 258.259 435.827 259.634C436.206 259.998 436.695 260.693 436.884 261.136C441.539 259.397 442.454 256.094 442.927 252.807H447.014C446.84 256.979 446.619 258.67 446.209 259.113C446.02 259.302 445.815 259.366 445.467 259.366C445.057 259.366 444.047 259.35 442.99 259.239C443.29 259.713 443.511 260.424 443.527 260.93C444.095 260.962 444.663 260.978 445.168 260.978C445.594 260.978 445.972 260.962 446.256 260.93C446.887 260.835 447.313 260.709 447.708 260.187C448.308 259.476 448.544 257.406 448.781 251.811C448.797 251.621 448.812 251.4 448.812 251.258C449.317 251.811 449.791 252.301 450.28 252.712C450.595 252.254 451.226 251.59 451.653 251.226C449.759 249.788 447.534 247.133 446.414 244.794L444.836 245.442L444.805 245.473Z" fill="#231815"/>
<path d="M88.7843 244.936H80.8794V246.106H88.2952C87.7588 249.156 86.7647 251.795 85.4867 253.913C84.2875 251.748 83.4355 249.108 82.8991 246.2L81.8261 246.39C82.4573 249.709 83.3882 252.649 84.7609 255.004C83.5144 256.726 82.0786 258.038 80.5165 258.86C80.8005 259.113 81.1319 259.571 81.3055 259.887C82.8359 258.986 84.256 257.738 85.4551 256.11C86.5596 257.69 87.9008 258.986 89.5575 259.887C89.7468 259.555 90.1255 259.113 90.3937 258.876C88.6897 258.038 87.2854 256.71 86.1809 255.067C87.7903 252.57 88.9737 249.33 89.5575 245.363C89.6206 245.315 89.6837 245.236 89.7153 245.142L88.9895 244.857L88.7843 244.92V244.936ZM79.0807 253.866C78.2129 254.087 77.3609 254.34 76.572 254.545V245.916C76.8087 245.884 76.9033 245.79 76.9191 245.663L75.4833 245.568V254.83L74.1895 255.146L74.7101 256.505C74.8206 256.458 74.9153 256.379 74.931 256.236C75.9409 255.936 77.5187 255.446 79.0807 254.956V259.871H80.2168V243.861C80.4377 243.861 80.5481 243.751 80.5639 243.64L79.0807 243.53V253.866ZM63.1605 249.598H67.5153V253.55H63.1605V249.598ZM62.1191 254.561H68.6355V248.571H62.1191V254.561ZM59.4684 245.805H71.3652V257.39H59.4684V245.805ZM58.3008 259.792H59.4684V258.56H71.3652V259.792H72.5485V244.636H58.3008V259.792Z" fill="#231815"/>
<path d="M288.317 255.446V253.549H290.952V252.127H288.317V250.515C288.569 250.483 288.696 250.389 288.711 250.231L286.755 250.104V252.111H285.556C285.666 251.716 285.745 251.337 285.808 250.973C286.013 250.973 286.139 250.894 286.155 250.784L284.53 250.404C284.309 251.89 283.867 253.391 283.236 254.261C283.568 254.45 284.025 254.83 284.293 255.051C284.609 254.64 284.861 254.118 285.082 253.549H286.755V255.446H283.363V256.9H286.755V259.95H288.317V256.9H291.551V255.446H288.317ZM290.336 244.336H290.005L283.473 244.351V245.758H285.65C285.351 247.323 284.704 248.619 282.937 249.377C283.252 249.646 283.647 250.167 283.82 250.515C286.124 249.472 286.818 247.686 287.149 245.758H289.626C289.548 247.544 289.421 248.239 289.248 248.476C289.122 248.619 288.995 248.65 288.759 248.65C288.522 248.65 287.954 248.634 287.307 248.555C287.512 248.95 287.654 249.504 287.686 249.93C288.017 249.946 288.317 249.946 288.617 249.946C290.731 249.946 290.905 249.756 291.125 244.873C291.125 244.715 291.141 244.541 291.141 244.415L290.336 244.32V244.336ZM277.698 248.018C277.982 247.512 278.235 246.943 278.471 246.374H280.112C279.891 246.959 279.623 247.56 279.355 248.018H277.698ZM280.27 252.222H281.532V253.992H280.27V252.222ZM279.134 252.222V253.992H277.887C277.903 253.549 277.903 253.249 277.903 252.222H279.134ZM281.532 250.973H280.27V249.282H281.532V250.973ZM279.134 250.973H277.903V249.282H279.134V250.973ZM280.806 248.018C281.217 247.291 281.611 246.485 281.879 245.853C282.006 245.821 282.1 245.758 282.179 245.679L281.09 245.015L280.87 245.078H278.976C279.087 244.762 279.181 244.462 279.276 244.146C279.481 244.162 279.623 244.083 279.655 243.956L277.919 243.466C277.383 245.632 276.42 247.797 275.3 249.061C275.631 249.266 276.136 249.709 276.404 249.993L276.609 249.741V252.728C276.609 254.735 276.499 257.374 275.316 259.239C275.647 259.381 276.231 259.761 276.467 259.998C277.288 258.702 277.667 256.932 277.824 255.241H281.548V258.243C281.548 258.559 281.453 258.559 280.728 258.559C280.38 258.559 279.954 258.544 279.465 258.528C279.67 258.923 279.891 259.555 279.954 259.95C282.163 259.95 282.905 259.792 282.905 258.259V248.002H280.822L280.806 248.018ZM260.232 259.792C260.232 259.792 260.295 259.634 260.295 259.539C260.295 259.445 260.263 259.35 260.169 259.239C260.879 257.864 261.825 255.794 262.551 253.897L261.226 252.949C260.389 255.019 259.301 257.327 258.528 258.733L260.232 259.792ZM258.117 249.598C259.206 250.073 260.531 250.847 261.163 251.432L262.109 250.041C261.415 249.472 260.074 248.761 259.001 248.35L258.102 249.598H258.117ZM266.101 247.496C265.391 248.698 264.176 249.899 262.977 250.578C263.308 250.831 263.813 251.353 264.05 251.637C265.312 250.847 266.622 249.519 267.427 248.302C267.647 248.318 267.774 248.255 267.821 248.144L266.101 247.496ZM273.911 250.483C273.217 249.614 271.781 248.35 270.614 247.465L269.478 248.302C270.645 249.219 272.05 250.562 272.696 251.416L273.896 250.468L273.911 250.483ZM259.017 244.794C260.09 245.284 261.415 246.121 262.046 246.754L262.993 245.363C262.33 244.762 260.973 244.004 259.916 243.561L259.017 244.81V244.794ZM272.428 246.801V248.555H273.959V245.426H269.351V243.877C269.62 243.83 269.746 243.735 269.762 243.561L267.695 243.435V245.41H263.277V248.539H264.76V246.785H272.412L272.428 246.801ZM265.928 254.213C266.985 253.297 267.868 252.269 268.484 251.384C269.162 252.333 270.156 253.344 271.229 254.213H265.943H265.928ZM264.776 259.95H266.259V259.271H270.929V259.919H272.476V255.146C272.838 255.399 273.201 255.62 273.548 255.81C273.785 255.335 274.148 254.735 274.479 254.356C272.649 253.518 270.535 251.827 269.383 250.215C269.541 250.183 269.635 250.088 269.683 249.962L267.695 249.899C266.732 251.59 264.665 253.581 262.583 254.672C262.898 255.019 263.245 255.62 263.419 255.999C263.892 255.746 264.334 255.446 264.776 255.13V259.95ZM266.259 255.588H270.929V257.88H266.259V255.588Z" fill="#231815"/>
<path d="M296.758 386.417V384.504H299.393V383.082H296.758V381.47C297.01 381.438 297.137 381.344 297.152 381.186L295.196 381.059V383.066H293.997C294.107 382.671 294.186 382.292 294.249 381.928C294.454 381.928 294.58 381.865 294.596 381.739L292.971 381.344C292.75 382.829 292.308 384.331 291.677 385.2C292.009 385.389 292.466 385.769 292.734 385.99C293.05 385.579 293.302 385.058 293.523 384.489H295.196V386.401H291.803V387.855H295.196V390.905H296.758V387.855H299.992V386.401H296.758V386.417ZM298.777 375.291H298.446L291.914 375.306V376.713H294.091C293.792 378.278 293.145 379.573 291.362 380.316C291.677 380.585 292.072 381.107 292.245 381.454C294.549 380.411 295.243 378.625 295.574 376.697H298.052C297.973 378.483 297.847 379.178 297.673 379.415C297.547 379.558 297.421 379.589 297.184 379.589C296.947 379.589 296.379 379.573 295.732 379.494C295.937 379.89 296.079 380.443 296.111 380.869C296.442 380.869 296.742 380.869 297.042 380.869C299.156 380.869 299.33 380.68 299.551 375.796C299.551 375.638 299.566 375.464 299.566 375.338L298.762 375.243L298.777 375.291ZM286.155 378.973C286.423 378.467 286.691 377.898 286.928 377.329H288.569C288.348 377.914 288.08 378.515 287.812 378.973H286.155ZM288.711 383.193H289.973V384.963H288.711V383.193ZM287.575 383.193V384.963H286.328C286.344 384.52 286.344 384.22 286.344 383.193H287.575ZM289.973 381.944H288.711V380.253H289.973V381.944ZM287.575 381.944H286.344V380.253H287.575V381.944ZM289.247 378.973C289.658 378.246 290.052 377.44 290.32 376.808C290.447 376.776 290.541 376.713 290.62 376.634L289.531 375.97L289.31 376.033H287.417C287.528 375.717 287.622 375.417 287.717 375.101C287.922 375.101 288.064 375.038 288.096 374.911L286.36 374.421C285.824 376.586 284.861 378.752 283.741 380.016C284.072 380.221 284.577 380.664 284.845 380.948L285.05 380.696V383.683C285.05 385.69 284.94 388.329 283.757 390.194C284.088 390.336 284.672 390.716 284.908 390.953C285.729 389.657 286.108 387.887 286.265 386.196H289.989V389.198C289.989 389.514 289.91 389.514 289.184 389.514C288.837 389.514 288.411 389.499 287.922 389.483C288.127 389.878 288.348 390.51 288.411 390.905C290.62 390.905 291.362 390.747 291.362 389.214V378.957H289.279L289.247 378.973ZM276.577 375.338C277.587 377.361 279.055 379.479 280.554 381.138L279.623 381.043H279.244L269.84 381.059C271.276 379.526 272.538 377.614 273.422 375.622C273.658 375.654 273.832 375.575 273.911 375.433L271.876 374.722C270.787 377.456 268.815 380.016 266.716 381.47C267.095 381.77 267.71 382.387 268.01 382.719C268.578 382.276 269.13 381.786 269.667 381.233V382.671H272.964C272.586 385.532 271.655 388.124 267.6 389.499C267.978 389.862 268.467 390.558 268.657 391C273.311 389.262 274.227 385.958 274.7 382.671H278.786C278.613 386.843 278.392 388.535 277.982 388.977C277.792 389.167 277.587 389.23 277.24 389.23C276.83 389.23 275.82 389.214 274.763 389.104C275.063 389.578 275.284 390.289 275.299 390.795C275.867 390.826 276.435 390.842 276.94 390.842C277.366 390.842 277.745 390.826 278.029 390.795C278.66 390.7 279.086 390.573 279.481 390.052C280.08 389.341 280.317 387.27 280.554 381.675C280.569 381.486 280.585 381.265 280.585 381.122C281.09 381.675 281.563 382.165 282.052 382.576C282.368 382.118 282.999 381.454 283.425 381.091C281.532 379.653 279.307 376.997 278.187 374.658L276.609 375.306L276.577 375.338ZM259.016 384.631H264.491V383.003H259.016V379.431H265.186V377.803H259.016V374.832C259.285 374.785 259.411 374.674 259.427 374.532L257.328 374.39V377.803H254.109C254.425 377.029 254.693 376.223 254.914 375.433C255.151 375.433 255.293 375.37 255.34 375.227L253.305 374.643C252.626 377.266 251.458 379.969 250.102 381.486C250.512 381.739 251.174 382.213 251.49 382.513C252.184 381.691 252.815 380.617 253.383 379.431H257.312V383.003H252.311V384.631H257.312V388.74H250.37V390.368H265.974V388.74H259V384.631H259.016Z" fill="#231815"/>
</g>
<path d="M179.335 188.198H157.703V193.445H179.335V188.198Z" fill="#00963D"/>
<path d="M195.43 190.822L178.752 182.446V199.214L195.43 190.822Z" fill="#00963D"/>
<path d="M374.622 188.198H352.99V193.445H374.622V188.198Z" fill="#00963D"/>
<path d="M390.717 190.822L374.039 182.446V199.214L390.717 190.822Z" fill="#00963D"/>
<path d="M156.688 92.5923L133.254 106.145L135.873 110.689L159.307 97.1364L156.688 92.5923Z" fill="#00963D"/>
<path d="M120.609 116.478L139.243 115.388L130.865 100.864L120.609 116.478Z" fill="#00963D"/>
<path d="M127.062 283.223L124.766 287.939L149.087 299.82L151.383 295.104L127.062 283.223Z" fill="#00963D"/>
<path d="M164.709 304.518L146.043 304.74L153.38 289.662L164.709 304.518Z" fill="#00963D"/>
<path d="M348.463 82.7517L275.078 111.152L201.71 82.7517L178.326 91.8076L275.078 129.264L371.846 91.8076L348.463 82.7517Z" fill="#6B6663"/>
<mask id="mask2_166_784" style="mask-type:luminance" maskUnits="userSpaceOnUse" x="0" y="0" width="547" height="391">
<path d="M547 0H0V391H547V0Z" fill="white"/>
</mask>
<g mask="url(#mask2_166_784)">
<path d="M276.608 121.725C277.586 121.646 278.833 121.409 279.811 121.046C281.042 120.587 281.168 120.082 280.316 119.718C279.527 119.386 278.533 119.386 276.718 119.687C274.367 120.082 272.348 120.113 270.865 119.465C269.176 118.738 269.318 117.632 271.591 116.779C272.727 116.352 273.815 116.131 274.636 116.052L275.693 116.889C275.125 116.952 274.099 117.095 273.105 117.474C271.89 117.932 272.001 118.406 272.6 118.675C273.405 119.023 274.383 118.944 276.324 118.643C278.833 118.248 280.631 118.296 282.115 118.944C283.787 119.655 283.945 120.761 281.231 121.788C280.127 122.199 278.659 122.515 277.744 122.579L276.592 121.741L276.608 121.725Z" fill="white"/>
</g>
<path d="M288.095 115.324L284.135 116.826L287.196 118.138L291.614 116.447L293.176 117.126L286.817 119.528L276.451 115.072L282.557 112.748L284.119 113.412L279.922 115.008L282.605 116.162L286.565 114.661L288.095 115.324Z" fill="white"/>
<mask id="mask3_166_784" style="mask-type:luminance" maskUnits="userSpaceOnUse" x="0" y="0" width="547" height="391">
<path d="M547 0H0V391H547V0Z" fill="white"/>
</mask>
<g mask="url(#mask3_166_784)">
<path d="M295.604 112.669L292.228 111.879C291.392 111.69 290.508 111.452 289.751 111.247H289.719C290.161 111.579 290.729 111.942 291.171 112.29L292.922 113.697L295.62 112.685L295.604 112.669ZM294.027 114.424L296.062 116.036L294.074 116.794L287.068 111.057L289.514 110.125L303.32 113.286L301.253 114.06L297.356 113.159L294.011 114.424H294.027Z" fill="white"/>
</g>
<path d="M294.406 108.26L296.331 107.533L305.12 111.31L309.443 109.682L311.037 110.362L304.788 112.717L294.406 108.26Z" fill="white"/>
<mask id="mask4_166_784" style="mask-type:luminance" maskUnits="userSpaceOnUse" x="0" y="0" width="547" height="391">
<path d="M547 0H0V391H547V0Z" fill="white"/>
</mask>
<g mask="url(#mask4_166_784)">
<path d="M313.292 105.968L309.915 105.178C309.079 104.988 308.196 104.751 307.438 104.546H307.407C307.848 104.878 308.416 105.241 308.858 105.589L310.61 106.996L313.308 105.984L313.292 105.968ZM311.714 107.723L313.749 109.335L311.761 110.093L304.756 104.356L307.201 103.424L321.007 106.585L318.941 107.359L315.043 106.458L311.698 107.723H311.714Z" fill="white"/>
<path d="M322.474 106.032L312.092 101.575L314.269 100.753L321.433 101.638C323.294 101.859 325.093 102.144 326.702 102.444H326.734C325.219 101.891 323.831 101.322 322.253 100.642L318.64 99.0934L320.423 98.4138L330.805 102.871L328.817 103.629L321.511 102.713C319.697 102.476 317.725 102.191 316.036 101.891L316.005 101.922C317.425 102.46 318.813 103.044 320.517 103.787L324.225 105.384L322.458 106.047L322.474 106.032Z" fill="white"/>
</g>
<path d="M326.246 97.4971L323.248 98.6192L321.654 97.9396L329.607 94.9368L331.184 95.6164L328.155 96.7701L336.959 100.532L335.034 101.274L326.246 97.4971Z" fill="white"/>
<path d="M371.846 73.6958L275.094 111.152L178.326 73.6958L275.094 36.2236L371.846 73.6958Z" fill="white"/>
<mask id="mask5_166_784" style="mask-type:luminance" maskUnits="userSpaceOnUse" x="0" y="0" width="547" height="391">
<path d="M547 0H0V391H547V0Z" fill="white"/>
</mask>
<g mask="url(#mask5_166_784)">
<path d="M273.721 101.97C274.005 101.907 274.32 101.796 274.699 101.654C276.072 101.132 276.166 100.532 274.872 100.042C273.626 99.5833 272.19 99.6307 270.912 100.121C270.407 100.31 270.092 100.468 269.95 100.563L273.721 101.97ZM266.699 100.737C267.22 100.437 268.04 100.057 269.287 99.5675C270.628 99.0459 271.938 98.7931 273.184 98.7615C274.32 98.7298 275.598 98.9195 276.64 99.2988C277.697 99.6939 278.28 100.136 278.296 100.579C278.375 101.164 277.602 101.748 276.292 102.238C275.945 102.365 275.614 102.475 275.33 102.554L279.527 104.119L277.697 104.815L266.699 100.705V100.737Z" fill="#5E5958"/>
<path d="M284.623 98.6509L281.089 97.9239C280.221 97.7501 279.29 97.5288 278.501 97.3392H278.47C278.959 97.6553 279.59 98.003 280.079 98.3032L282.051 99.6308L284.639 98.6351L284.623 98.6509ZM283.266 100.326L285.554 101.843L283.661 102.57L275.756 97.1811L278.107 96.2803L292.528 99.1883L290.556 99.9469L286.485 99.1093L283.282 100.342L283.266 100.326Z" fill="#5E5958"/>
<path d="M289.957 95.7745C290.241 95.7113 290.556 95.6006 290.935 95.4584C292.308 94.9369 292.402 94.3363 291.109 93.8464C289.862 93.388 288.426 93.4354 287.148 93.9254C286.643 94.115 286.328 94.2731 286.186 94.3679L289.957 95.7745ZM282.936 94.5259C283.456 94.2257 284.277 93.8464 285.523 93.3564C286.864 92.8349 288.174 92.582 289.42 92.5504C290.572 92.5188 291.834 92.7084 292.876 93.0877C293.933 93.4829 294.517 93.9254 294.533 94.3679C294.611 94.9527 293.838 95.5374 292.529 96.0274C292.182 96.1538 291.85 96.2644 291.566 96.3434L295.763 97.9081L293.933 98.6035L282.936 94.4943V94.5259Z" fill="#5E5958"/>
</g>
<path d="M303.006 91.4283L299.203 92.8823L302.469 94.0992L306.729 92.4872L308.402 93.1035L302.296 95.4268L291.156 91.2702L297.026 89.026L298.698 89.6582L294.675 91.1912L297.546 92.2659L301.349 90.8119L303.006 91.4283Z" fill="#5E5958"/>
<mask id="mask6_166_784" style="mask-type:luminance" maskUnits="userSpaceOnUse" x="0" y="0" width="547" height="391">
<path d="M547 0H0V391H547V0Z" fill="white"/>
</mask>
<g mask="url(#mask6_166_784)">
<path d="M305.782 89.5159L306.871 89.105C308.118 88.6308 308.165 88.0619 307.06 87.651C305.83 87.1926 304.489 87.2875 303.305 87.7458C302.721 87.9671 302.39 88.1251 302.264 88.2199L305.782 89.5317V89.5159ZM299.029 88.378C299.582 88.0619 300.512 87.6352 301.585 87.2243C303.037 86.6711 304.283 86.3866 305.593 86.3708C306.666 86.355 307.755 86.5131 308.701 86.8766C310.137 87.4139 310.232 88.1093 309.664 88.615H309.711C310.721 88.4728 311.936 88.5992 313.261 88.8995C314.965 89.2946 316.527 89.6739 317.158 89.753L315.265 90.48C314.792 90.4167 313.64 90.1639 311.967 89.753C310.232 89.3262 309.285 89.3262 308.212 89.7213L307.281 90.069L311.857 91.7759L310.027 92.4713L299.029 88.3622V88.378Z" fill="#5E5958"/>
<g opacity="0.8">
<mask id="mask7_166_784" style="mask-type:luminance" maskUnits="userSpaceOnUse" x="158" y="2" width="234" height="65">
<path d="M391.631 2.70251H158.539V66.8366H391.631V2.70251Z" fill="white"/>
</mask>
<g mask="url(#mask7_166_784)">
<path d="M275.076 18.1118L178.324 55.584L201.708 64.6399L275.076 36.2236L348.461 64.6399L371.844 55.584L275.076 18.1118Z" fill="#47A733"/>
</g>
</g>
<g opacity="0.8">
<mask id="mask8_166_784" style="mask-type:luminance" maskUnits="userSpaceOnUse" x="181" y="20" width="188" height="76">
<path d="M368.231 20.8143H181.922V95.2529H368.231V20.8143Z" fill="white"/>
</mask>
<g mask="url(#mask8_166_784)">
<path d="M275.076 36.2236L201.707 64.6399L275.076 93.0403L348.46 64.6399L275.076 36.2236Z" fill="#47A733"/>
</g>
</g>
<path d="M274.462 83.2416C274.762 83.1784 275.093 83.0677 275.472 82.9255C276.908 82.3723 277.081 81.756 275.866 81.2344C274.715 80.7445 273.279 80.7761 271.953 81.2818C271.417 81.4873 271.101 81.6453 270.944 81.7402L274.462 83.2416ZM267.725 81.8982C268.293 81.5821 269.145 81.187 270.439 80.6971C271.843 80.1597 273.168 79.9069 274.383 79.891C275.519 79.8752 276.734 80.0649 277.712 80.4916C278.706 80.9183 279.196 81.3767 279.164 81.8508C279.164 82.4672 278.312 83.0677 276.939 83.5893C276.576 83.7315 276.245 83.8421 275.945 83.9212L279.858 85.5964L277.949 86.3234L267.709 81.9298L267.725 81.8982Z" fill="white"/>
</g>
<path d="M276.309 78.5319L278.234 77.8049L287.022 81.5822L291.345 79.9385L292.923 80.6181L286.691 82.9888L276.309 78.5319Z" fill="white"/>
<mask id="mask9_166_784" style="mask-type:luminance" maskUnits="userSpaceOnUse" x="0" y="0" width="547" height="391">
<path d="M547 0H0V391H547V0Z" fill="white"/>
</mask>
<g mask="url(#mask9_166_784)">
<path d="M295.194 76.2244L291.818 75.4342C290.981 75.2445 290.098 75.0074 289.341 74.802H289.309C289.751 75.1339 290.319 75.4974 290.761 75.8451L292.496 77.2517L295.194 76.2244ZM293.616 77.9945L295.652 79.6065L293.664 80.3651L286.658 74.6281L289.104 73.6957L302.91 76.8566L300.843 77.631L296.946 76.7301L293.601 77.9945H293.616Z" fill="white"/>
<path d="M304.376 76.2876L293.994 71.8308L296.172 71.009L303.335 71.894C305.197 72.1153 306.995 72.3998 308.605 72.7H308.636C307.122 72.1469 305.733 71.5779 304.155 70.8983L300.542 69.3495L302.325 68.6699L312.707 73.1268L310.719 73.8854L303.414 72.9687C301.599 72.7316 299.627 72.4472 297.939 72.1469L297.907 72.1785C299.327 72.7316 300.716 73.3006 302.42 74.0434L306.128 75.6396L304.36 76.3034L304.376 76.2876Z" fill="white"/>
</g>
<path d="M308.132 67.7533L305.134 68.8912L303.557 68.2116L311.493 65.193L313.087 65.8726L310.057 67.0263L318.846 70.8035L316.937 71.5305L308.132 67.7533Z" fill="white"/>
<path d="M314.649 64.0077L325.031 68.4645L323.122 69.1915L312.74 64.7347L314.649 64.0077Z" fill="white"/>
<mask id="mask10_166_784" style="mask-type:luminance" maskUnits="userSpaceOnUse" x="0" y="0" width="547" height="391">
<path d="M547 0H0V391H547V0Z" fill="white"/>
</mask>
<g mask="url(#mask10_166_784)">
<path d="M334.468 64.6399C334.247 64.9085 333.474 65.3827 332.212 65.8726C328.867 67.137 324.78 67.0263 321.625 65.6671C318.201 64.1973 318.548 62.3956 321.767 61.1787C323.029 60.7046 324.196 60.4675 324.78 60.4043L325.869 61.2103C325.159 61.3051 324.291 61.4948 323.407 61.8109C321.262 62.6169 321.057 63.7706 323.534 64.8453C325.822 65.8252 328.63 65.9358 330.949 65.0666C331.723 64.7663 332.385 64.4028 332.654 64.1025L334.468 64.6241V64.6399Z" fill="white"/>
</g>
<path d="M328.897 58.65L327.525 59.1715L326.799 58.8555L330.444 57.4805L331.169 57.7966L329.781 58.3181L333.804 60.0408L332.937 60.3727L328.897 58.65Z" fill="white"/>
<mask id="mask11_166_784" style="mask-type:luminance" maskUnits="userSpaceOnUse" x="0" y="0" width="547" height="391">
<path d="M547 0H0V391H547V0Z" fill="white"/>
</mask>
<g mask="url(#mask11_166_784)">
<path d="M337.733 56.9905C337.086 56.7376 336.313 56.4373 335.682 56.1529H335.666C336.092 56.469 336.518 56.8167 336.912 57.1643L338.269 58.3181L337.591 58.5709L334.908 57.9388C334.12 57.7491 333.299 57.5437 332.573 57.3382C333.173 57.6227 333.899 57.9546 334.514 58.239L336.313 59.1083L335.492 59.4244L331.059 57.2592L332.21 56.8167L334.751 57.4014C335.476 57.5753 336.202 57.7649 336.849 57.9388H336.865C336.471 57.6543 336.06 57.354 335.682 57.0379L334.451 55.9632L335.587 55.5365L340.62 57.4646L339.768 57.7807L337.733 56.9905Z" fill="white"/>
</g>
<path d="M275.078 0L178.326 37.4722L275.078 74.9285L371.846 37.4722L275.078 0Z" fill="white"/>
<mask id="mask12_166_784" style="mask-type:luminance" maskUnits="userSpaceOnUse" x="0" y="0" width="547" height="391">
<path d="M547 0H0V391H547V0Z" fill="white"/>
</mask>
<g mask="url(#mask12_166_784)">
<path d="M270.992 65.8884C271.291 65.8252 271.591 65.7304 271.97 65.5882C273.343 65.0666 273.453 64.4502 272.159 63.9287C270.928 63.4388 269.493 63.4546 268.215 63.9287C267.71 64.1184 267.394 64.2764 267.252 64.3712L270.992 65.8884ZM264.018 64.4977C264.554 64.1974 265.359 63.8181 266.605 63.3439C267.962 62.8382 269.256 62.5853 270.487 62.5853C271.623 62.5853 272.885 62.7908 273.911 63.2017C274.952 63.6284 275.52 64.0867 275.551 64.5451C275.615 65.1456 274.841 65.7304 273.532 66.2203C273.185 66.3468 272.853 66.4574 272.569 66.5364L276.735 68.2275L274.905 68.9071L264.018 64.4977Z" fill="#5E5958"/>
<path d="M281.894 62.6484L278.376 61.8424C277.508 61.637 276.593 61.3999 275.804 61.1944H275.772C276.261 61.5263 276.877 61.8898 277.35 62.2217L279.291 63.6125L281.894 62.6326V62.6484ZM280.522 64.3553L282.778 65.9516L280.869 66.6628L273.074 60.9732L275.425 60.0881L289.752 63.3122L287.764 64.055L283.725 63.1384L280.506 64.3395L280.522 64.3553Z" fill="#5E5958"/>
<path d="M287.259 59.7879C287.559 59.7247 287.874 59.6141 288.237 59.4876C289.61 58.9661 289.721 58.3497 288.427 57.8282C287.196 57.3382 285.76 57.354 284.482 57.8282C283.977 58.0178 283.662 58.1759 283.52 58.2707L287.259 59.7879ZM280.285 58.3813C280.822 58.081 281.626 57.7017 282.873 57.2276C284.23 56.7219 285.524 56.469 286.754 56.469C287.89 56.469 289.153 56.6586 290.178 57.0854C291.219 57.5121 291.787 57.9704 291.819 58.4287C291.882 59.0293 291.109 59.6141 289.799 60.104C289.452 60.2304 289.121 60.3411 288.837 60.4201L293.002 62.1112L291.172 62.7907L280.285 58.3813Z" fill="#5E5958"/>
</g>
<path d="M300.324 55.5366L296.505 56.959L299.756 58.2707L304.016 56.6745L305.672 57.3541L299.566 59.6457L288.521 55.1731L294.407 52.9604L296.063 53.64L292.024 55.1573L294.88 56.311L298.683 54.8728L300.324 55.5366Z" fill="#5E5958"/>
<mask id="mask13_166_784" style="mask-type:luminance" maskUnits="userSpaceOnUse" x="0" y="0" width="547" height="391">
<path d="M547 0H0V391H547V0Z" fill="white"/>
</mask>
<g mask="url(#mask13_166_784)">
<path d="M303.116 53.6084L304.205 53.1975C305.452 52.7234 305.515 52.1386 304.41 51.6961C303.195 51.2062 301.854 51.2694 300.655 51.7277C300.071 51.949 299.74 52.107 299.614 52.2018L303.101 53.6084H303.116ZM296.395 52.3283C296.963 52.0122 297.894 51.5855 298.951 51.1904C300.403 50.6372 301.665 50.3685 302.959 50.3685C304.016 50.3685 305.104 50.5582 306.035 50.9375C307.455 51.5064 307.534 52.2334 306.966 52.7392H307.014C308.023 52.6127 309.238 52.755 310.548 53.0869C312.236 53.5294 313.782 53.9403 314.429 54.0351L312.52 54.7463C312.047 54.6673 310.895 54.3986 309.238 53.9403C307.519 53.4662 306.572 53.4662 305.483 53.8455L304.552 54.1932L309.081 56.0265L307.25 56.7219L296.363 52.3125L296.395 52.3283Z" fill="#5E5958"/>
<path d="M250.89 224.548C250.164 224.548 249.438 224.406 248.776 224.137C248.113 223.869 247.498 223.442 246.961 222.905C245.904 221.877 245.32 220.471 245.32 218.969C245.32 218.606 245.383 218.242 245.431 217.879C245.51 217.515 245.62 217.184 245.762 216.852C245.904 216.52 246.062 216.188 246.267 215.872C246.456 215.572 246.709 215.287 246.961 215.034C247.214 214.781 247.498 214.528 247.798 214.339C248.097 214.149 248.444 213.944 248.776 213.801C249.107 213.659 249.47 213.58 249.801 213.485C250.527 213.343 251.284 213.343 251.979 213.485C252.342 213.564 252.705 213.659 253.036 213.801C253.367 213.944 253.699 214.133 253.983 214.339C254.298 214.528 254.598 214.765 254.85 215.034C255.103 215.287 255.324 215.572 255.545 215.872C255.734 216.188 255.908 216.52 256.05 216.852C256.192 217.184 256.302 217.515 256.365 217.879C256.444 218.242 256.476 218.606 256.476 218.969C256.476 220.487 255.923 221.877 254.85 222.905C254.314 223.442 253.699 223.853 253.036 224.137C252.373 224.422 251.647 224.548 250.89 224.548Z" fill="#48A535"/>
<path d="M265.911 164.776H211.223C208.951 164.776 207.121 162.896 207.121 160.588C207.121 158.281 208.951 156.4 211.223 156.4H265.911C268.183 156.4 270.013 158.281 270.013 160.588C270.013 162.896 268.183 164.776 265.911 164.776Z" fill="white"/>
<path d="M218.087 210.404C216.573 210.404 215.184 209.819 214.159 208.76C213.101 207.701 212.518 206.294 212.518 204.825C212.518 204.461 212.549 204.066 212.628 203.703C212.691 203.371 212.802 203.007 212.944 202.675C213.086 202.343 213.243 202.011 213.48 201.727C213.669 201.427 213.89 201.111 214.174 200.858C214.427 200.605 214.711 200.384 215.011 200.162C215.326 199.957 215.626 199.799 215.957 199.657C216.32 199.514 216.651 199.404 217.014 199.341C218.829 198.945 220.754 199.562 222.032 200.858C223.089 201.917 223.673 203.339 223.673 204.825C223.673 206.31 223.089 207.701 222.032 208.76C221.779 209.013 221.495 209.266 221.196 209.455C220.896 209.645 220.549 209.85 220.249 209.993C219.918 210.103 219.555 210.214 219.192 210.309C218.829 210.356 218.466 210.419 218.103 210.419" fill="#48A535"/>
<path d="M239.988 210.388C239.262 210.388 238.536 210.246 237.873 209.977C237.211 209.708 236.595 209.281 236.059 208.744C235.002 207.717 234.418 206.31 234.418 204.809C234.418 204.445 234.481 204.082 234.528 203.718C234.607 203.355 234.718 203.023 234.86 202.691C235.002 202.359 235.16 202.027 235.365 201.711C235.554 201.411 235.806 201.126 236.059 200.874C236.311 200.621 236.595 200.368 236.895 200.178C237.195 199.988 237.542 199.783 237.873 199.641C238.205 199.499 238.568 199.42 238.899 199.325C239.625 199.182 240.382 199.182 241.076 199.325C241.439 199.404 241.802 199.499 242.134 199.641C242.465 199.783 242.796 199.973 243.08 200.178C243.396 200.368 243.696 200.605 243.948 200.874C244.2 201.126 244.421 201.411 244.642 201.711C244.832 202.027 245.005 202.359 245.147 202.691C245.289 203.023 245.4 203.355 245.463 203.718C245.542 204.082 245.573 204.445 245.573 204.809C245.573 206.326 245.021 207.717 243.948 208.744C243.412 209.281 242.796 209.692 242.134 209.977C241.471 210.261 240.745 210.388 239.988 210.388Z" fill="#48A535"/>
<path d="M265.911 177.262H211.223C208.951 177.262 207.121 175.381 207.121 173.074C207.121 170.766 208.951 168.885 211.223 168.885H265.911C268.183 168.885 270.013 170.766 270.013 173.074C270.013 175.381 268.183 177.262 265.911 177.262Z" fill="white"/>
<path d="M265.911 194.441H211.223C208.951 194.441 207.121 192.56 207.121 190.253C207.121 187.946 208.951 186.065 211.223 186.065H265.911C268.183 186.065 270.013 187.946 270.013 190.253C270.013 192.56 268.183 194.441 265.911 194.441Z" fill="#6E6967"/>
<path d="M229.415 164.539C224.903 164.539 221.242 160.857 221.242 156.305C221.242 152.038 224.13 148.877 225.597 145.637C226.843 142.872 228.2 138.968 228.91 136.834C229.068 136.344 229.747 136.344 229.92 136.834C230.63 138.968 231.987 142.872 233.234 145.637C234.701 148.877 237.588 152.054 237.588 156.321C237.588 160.873 233.928 164.555 229.415 164.555" fill="#80CEF3"/>
<path d="M338.475 170.308H283.788C281.516 170.308 279.686 168.427 279.686 166.12C279.686 163.812 281.516 161.932 283.788 161.932H338.475C340.747 161.932 342.578 163.812 342.578 166.12C342.578 168.427 340.747 170.308 338.475 170.308Z" fill="white"/>
<path d="M338.475 182.793H283.788C281.516 182.793 279.686 180.913 279.686 178.605C279.686 176.298 281.516 174.417 283.788 174.417H338.475C340.747 174.417 342.578 176.298 342.578 178.605C342.578 180.913 340.747 182.793 338.475 182.793Z" fill="white"/>
<path d="M338.475 198.108H283.788C281.516 198.108 279.686 196.227 279.686 193.92C279.686 191.612 281.516 189.731 283.788 189.731H338.475C340.747 189.731 342.578 191.612 342.578 193.92C342.578 196.227 340.747 198.108 338.475 198.108Z" fill="#6E6967"/>
<path d="M311.068 179.87C306.555 179.87 302.895 176.187 302.895 171.635C302.895 167.368 305.782 164.207 307.249 160.967C308.496 158.202 309.853 154.298 310.563 152.164C310.721 151.675 311.399 151.675 311.573 152.164C312.283 154.298 313.64 158.202 314.886 160.967C316.353 164.207 319.241 167.384 319.241 171.651C319.241 176.203 315.58 179.885 311.068 179.885" fill="#80CEF3"/>
<path d="M269.066 231.012C264.553 231.012 260.893 227.33 260.893 222.778C260.893 218.511 263.78 215.35 265.247 212.11C266.494 209.345 267.851 205.441 268.561 203.307C268.719 202.817 269.397 202.817 269.571 203.307C270.281 205.441 271.638 209.345 272.884 212.11C274.351 215.35 277.239 218.527 277.239 222.794C277.239 227.346 273.578 231.028 269.066 231.028" fill="#80CEF3"/>
</g>
<path d="M416.703 98.4994L414.244 103.132L438.136 115.857L440.596 111.224L416.703 98.4994Z" fill="#00963D"/>
<path d="M401.256 93.2457L419.906 93.6882L412.048 108.497L401.256 93.2457Z" fill="#00963D"/>
<mask id="mask14_166_784" style="mask-type:luminance" maskUnits="userSpaceOnUse" x="0" y="0" width="547" height="391">
<path d="M547 0H0V391H547V0Z" fill="white"/>
</mask>
<g mask="url(#mask14_166_784)">
<path d="M256.555 358.048C256.555 360.64 254.393 362.742 251.727 362.742C249.06 362.742 246.898 360.64 246.898 358.048C246.898 355.456 249.06 353.354 251.727 353.354C254.393 353.354 256.555 355.456 256.555 358.048Z" fill="white"/>
<path d="M298.871 347.238C298.871 349.83 296.71 351.932 294.043 351.932C291.376 351.932 289.215 349.83 289.215 347.238C289.215 344.646 291.376 342.544 294.043 342.544C296.71 342.544 298.871 344.646 298.871 347.238Z" fill="#6E6967"/>
<path d="M287.164 359.47C287.164 362.062 285.002 364.164 282.336 364.164C279.669 364.164 277.508 362.062 277.508 359.47C277.508 356.878 279.669 354.776 282.336 354.776C285.002 354.776 287.164 356.878 287.164 359.47Z" fill="#48A535"/>
<path d="M314.887 358.838C314.887 361.43 312.725 363.532 310.059 363.532C307.392 363.532 305.23 361.43 305.23 358.838C305.23 356.246 307.392 354.144 310.059 354.144C312.725 354.144 314.887 356.246 314.887 358.838Z" fill="white"/>
<path d="M263.086 345.515C263.086 348.107 260.924 350.209 258.258 350.209C255.591 350.209 253.43 348.107 253.43 345.515C253.43 342.923 255.591 340.821 258.258 340.821C260.924 340.821 263.086 342.923 263.086 345.515Z" fill="#6E6967"/>
<path d="M239.072 359.47C239.072 362.062 236.911 364.164 234.244 364.164C231.578 364.164 229.416 362.062 229.416 359.47C229.416 356.878 231.578 354.776 234.244 354.776C236.911 354.776 239.072 356.878 239.072 359.47Z" fill="#48A535"/>
<path d="M522.938 154.409C530.069 156.447 534.629 159.735 534.629 163.528V217.057H546.999V154.409H522.938Z" fill="#6E6967"/>
<path d="M509.416 185.512C509.416 185.512 509.479 185.527 509.479 185.559C509.479 185.591 509.479 185.622 509.432 185.622C508.69 185.828 508.012 186.254 507.586 186.887L506.749 188.167L505.708 189.747L505.661 189.826L504.572 191.486L503.341 193.351C503.231 193.509 503.278 193.73 503.436 193.841L504.556 194.583H504.588C504.824 194.757 504.777 195.073 504.556 195.184C504.509 195.216 504.446 195.247 504.367 195.231L498.418 194.836C498.292 194.836 498.182 194.757 498.134 194.647L495.452 189.32C495.294 189.004 495.657 188.673 495.957 188.878L497.109 189.637C497.267 189.747 497.487 189.7 497.598 189.542L499.507 186.65C499.98 185.938 500.785 185.512 501.637 185.512H509.432H509.416ZM511.467 186.286C511.909 186.286 512.319 186.523 512.508 186.918L515.27 192.466C515.522 192.971 515.317 193.603 514.796 193.856L510.489 196.022C509.968 196.274 509.353 196.069 509.1 195.547L506.749 190.822L506.497 190.332C506.434 190.206 506.45 190.063 506.528 189.937L506.749 189.605L508.232 187.329C508.643 186.697 509.353 186.302 510.126 186.302H511.467V186.286ZM519.388 196.022L518.189 196.717C518.015 196.812 517.968 197.033 518.062 197.191L519.782 200.194C520.208 200.937 520.24 201.838 519.861 202.612L516.374 209.597C516.374 209.597 516.327 209.629 516.295 209.629C516.264 209.629 516.248 209.582 516.248 209.55C516.406 208.791 516.327 207.985 515.948 207.337L514.228 204.382L512.082 200.652C511.988 200.494 511.767 200.431 511.609 200.526L510.41 201.221C510.094 201.395 509.747 201.047 509.936 200.747L512.95 195.579C513.013 195.468 513.124 195.405 513.25 195.405L519.214 195.374C519.577 195.374 519.703 195.848 519.388 196.022ZM506.513 210.688V205.868C506.513 205.615 506.607 205.409 506.749 205.22C506.939 204.983 507.223 204.825 507.554 204.825H513.376C513.518 204.825 513.644 204.904 513.723 205.014L515.285 207.717C515.664 208.381 515.696 209.187 515.364 209.866L514.78 211.067C514.591 211.462 514.181 211.715 513.739 211.715H507.554C507.223 211.715 506.939 211.557 506.749 211.32C506.607 211.146 506.513 210.925 506.513 210.672M502.095 213.264V211.873C502.095 211.684 501.937 211.526 501.748 211.526H498.292C497.44 211.526 496.635 211.099 496.162 210.388L491.87 203.876C491.87 203.876 491.87 203.813 491.87 203.797C491.902 203.781 491.934 203.781 491.949 203.797C492.517 204.303 493.259 204.635 494.016 204.635H497.424H501.716C501.905 204.635 502.063 204.477 502.063 204.287V202.896C502.063 202.533 502.536 202.407 502.71 202.723L504.525 205.899L505.613 207.812L505.661 207.906C505.724 208.017 505.724 208.143 505.661 208.254L505.613 208.349L504.525 210.261L502.71 213.438C502.536 213.754 502.063 213.628 502.063 213.264M491.334 200.494L494.426 195.136C494.71 194.647 495.357 194.473 495.847 194.757L500.012 197.175C500.501 197.46 500.675 198.108 500.391 198.598L497.472 203.655C497.409 203.781 497.267 203.861 497.14 203.861H494.016C493.259 203.861 492.549 203.497 492.123 202.865L491.366 201.759C491.113 201.395 491.097 200.921 491.318 200.526M505.661 174.828C505.298 174.828 504.935 174.828 504.572 174.812C492.801 174.654 483.035 171.888 478.869 167.906V217.721C478.869 222.541 489.646 227.678 505.676 227.678C520.003 227.678 530.117 223.553 532.089 219.238C532.263 218.875 532.357 218.511 532.405 218.148C532.42 218.005 532.468 217.847 532.468 217.705V167.89C528.287 171.872 518.52 174.638 506.765 174.796C506.402 174.796 506.039 174.812 505.676 174.812" fill="#6E6967"/>
<path d="M510.946 164.618C509.905 165.14 508.438 165.488 506.749 165.598C506.386 165.63 506.024 165.646 505.661 165.646C505.298 165.646 504.919 165.63 504.572 165.598C502.884 165.488 501.416 165.124 500.375 164.618C499.744 164.302 499.27 163.939 499.018 163.528C498.892 163.307 498.797 163.085 498.797 162.848C498.797 162.706 498.844 162.564 498.908 162.437C499.349 161.236 501.653 160.288 504.588 160.098C504.951 160.067 505.313 160.051 505.676 160.051C506.039 160.051 506.418 160.067 506.765 160.098C509.716 160.288 512.003 161.236 512.445 162.437C512.493 162.58 512.556 162.706 512.556 162.848C512.556 163.085 512.461 163.307 512.335 163.528C512.082 163.939 511.609 164.302 510.978 164.618M506.749 154.424C506.386 154.424 506.024 154.409 505.661 154.409C505.298 154.409 504.935 154.409 504.572 154.424C490.687 154.63 480.731 158.534 479.122 162.422C478.964 162.785 478.869 163.149 478.869 163.512C478.869 163.876 478.98 164.239 479.122 164.603C480.731 168.49 490.687 172.41 504.572 172.6C504.935 172.6 505.298 172.615 505.661 172.615C506.024 172.615 506.386 172.615 506.749 172.6C520.634 172.394 530.59 168.49 532.2 164.603C532.342 164.239 532.452 163.876 532.452 163.512C532.452 163.149 532.342 162.785 532.2 162.422C530.59 158.534 520.634 154.614 506.749 154.424Z" fill="#6E6967"/>
<path d="M445.34 154.409C452.472 156.447 457.032 159.735 457.032 163.528V217.057H469.402V154.409H445.34Z" fill="white"/>
<path d="M431.803 185.512C431.803 185.512 431.85 185.527 431.866 185.559C431.866 185.591 431.866 185.622 431.818 185.622C431.077 185.828 430.383 186.254 429.972 186.887L429.136 188.167L428.095 189.747L428.047 189.826L426.959 191.486L425.728 193.351C425.617 193.509 425.665 193.73 425.823 193.841L426.943 194.583H426.974C427.211 194.757 427.164 195.073 426.943 195.184C426.895 195.216 426.832 195.247 426.754 195.231L420.805 194.836C420.679 194.836 420.568 194.757 420.521 194.647L417.839 189.32C417.681 189.004 418.044 188.673 418.344 188.878L419.496 189.637C419.653 189.747 419.874 189.7 419.985 189.542L421.894 186.65C422.367 185.938 423.172 185.512 424.024 185.512H431.818H431.803ZM433.854 186.286C434.295 186.286 434.706 186.523 434.895 186.918L437.656 192.466C437.909 192.971 437.704 193.603 437.183 193.856L432.875 196.022C432.371 196.274 431.739 196.069 431.487 195.547L429.136 190.822L428.884 190.332C428.82 190.206 428.836 190.063 428.915 189.937L429.136 189.605L430.619 187.329C431.029 186.697 431.739 186.302 432.513 186.302H433.854V186.286ZM441.774 196.022L440.575 196.717C440.402 196.812 440.354 197.033 440.449 197.191L442.169 200.194C442.595 200.937 442.626 201.838 442.248 202.612L438.761 209.597C438.761 209.597 438.713 209.629 438.682 209.629C438.65 209.629 438.635 209.582 438.635 209.55C438.792 208.791 438.713 207.985 438.335 207.337L436.615 204.382L434.469 200.652C434.374 200.494 434.153 200.431 433.996 200.526L432.797 201.221C432.481 201.395 432.134 201.047 432.323 200.747L435.337 195.579C435.4 195.468 435.51 195.405 435.637 195.405L441.601 195.374C441.964 195.374 442.09 195.848 441.774 196.022ZM428.899 210.688V205.868C428.899 205.615 428.994 205.409 429.136 205.22C429.325 204.983 429.609 204.825 429.941 204.825H435.763C435.905 204.825 436.031 204.904 436.11 205.014L437.672 207.717C438.051 208.381 438.082 209.187 437.751 209.866L437.167 211.067C436.978 211.462 436.568 211.715 436.126 211.715H429.941C429.609 211.715 429.325 211.557 429.136 211.32C428.994 211.146 428.899 210.925 428.899 210.672M424.497 213.264V211.873C424.497 211.684 424.339 211.526 424.15 211.526H420.695C419.843 211.526 419.038 211.099 418.565 210.388L414.273 203.876C414.273 203.876 414.273 203.813 414.273 203.797C414.304 203.781 414.336 203.781 414.352 203.797C414.92 204.303 415.661 204.635 416.419 204.635H419.827H424.119C424.308 204.635 424.466 204.477 424.466 204.287V202.896C424.466 202.533 424.939 202.407 425.113 202.723L426.927 205.899L428.016 207.812L428.063 207.906C428.126 208.017 428.126 208.143 428.063 208.254L428.016 208.349L426.927 210.261L425.113 213.438C424.939 213.754 424.466 213.628 424.466 213.264M413.736 200.494L416.829 195.136C417.113 194.647 417.76 194.473 418.249 194.757L422.414 197.175C422.904 197.46 423.077 198.108 422.793 198.598L419.874 203.655C419.811 203.781 419.669 203.861 419.543 203.861H416.419C415.661 203.861 414.951 203.497 414.525 202.865L413.768 201.759C413.516 201.395 413.5 200.921 413.721 200.526M428.047 174.828C427.684 174.828 427.322 174.828 426.959 174.812C415.204 174.654 405.421 171.888 401.256 167.906V217.721C401.256 222.541 412.032 227.678 428.063 227.678C442.39 227.678 452.504 223.553 454.476 219.238C454.649 218.875 454.744 218.511 454.791 218.148C454.807 218.005 454.855 217.847 454.855 217.705V167.89C450.673 171.872 440.907 174.638 429.152 174.796C428.789 174.796 428.426 174.812 428.063 174.812" fill="white"/>
<path d="M433.333 164.618C432.292 165.14 430.824 165.488 429.136 165.598C428.773 165.63 428.41 165.646 428.047 165.646C427.684 165.646 427.306 165.63 426.959 165.598C425.27 165.488 423.803 165.124 422.762 164.618C422.13 164.302 421.657 163.939 421.405 163.528C421.278 163.307 421.184 163.085 421.184 162.848C421.184 162.706 421.231 162.564 421.278 162.437C421.72 161.236 424.024 160.288 426.959 160.098C427.322 160.067 427.684 160.051 428.047 160.051C428.41 160.051 428.789 160.067 429.136 160.098C432.087 160.288 434.374 161.236 434.816 162.437C434.863 162.58 434.927 162.706 434.927 162.848C434.927 163.085 434.832 163.307 434.706 163.528C434.453 163.939 433.98 164.302 433.349 164.618M429.136 154.424C428.773 154.424 428.41 154.409 428.047 154.409C427.684 154.409 427.322 154.409 426.959 154.424C413.074 154.63 403.118 158.534 401.508 162.422C401.351 162.785 401.256 163.149 401.256 163.512C401.256 163.876 401.366 164.239 401.508 164.603C403.118 168.49 413.074 172.41 426.959 172.6C427.322 172.6 427.684 172.615 428.047 172.615C428.41 172.615 428.773 172.615 429.136 172.6C443.021 172.394 452.977 168.49 454.586 164.603C454.744 164.239 454.839 163.876 454.839 163.512C454.839 163.149 454.728 162.785 454.586 162.422C452.977 158.534 443.021 154.614 429.136 154.424Z" fill="white"/>
<path d="M61.9296 205.315H4.32324C1.94072 205.315 0 203.402 0 201.047C0 198.692 1.94072 196.78 4.32324 196.78H61.9296C64.3121 196.78 66.2528 198.692 66.2528 201.047C66.2528 203.402 64.3121 205.315 61.9296 205.315Z" fill="white"/>
<path d="M61.9296 213.865H4.32324C1.94072 213.865 0 211.952 0 209.597C0 207.243 1.94072 205.33 4.32324 205.33H61.9296C64.3121 205.33 66.2528 207.243 66.2528 209.597C66.2528 211.952 64.3121 213.865 61.9296 213.865Z" fill="#67B558"/>
<path d="M61.9296 222.399H4.32324C1.94072 222.399 0 220.503 0 218.148C0 215.793 1.94072 213.88 4.32324 213.88H61.9296C64.3121 213.88 66.2528 215.793 66.2528 218.148C66.2528 220.503 64.3121 222.415 61.9296 222.415" fill="white"/>
<path d="M61.9296 230.949H4.32324C1.94072 230.949 0 229.037 0 226.682C0 224.327 1.94072 222.415 4.32324 222.415H61.9296C64.3121 222.415 66.2528 224.327 66.2528 226.682C66.2528 229.037 64.3121 230.949 61.9296 230.949Z" fill="#6E6967"/>
<path d="M26.6176 191.075C25.8602 191.075 25.1029 191.296 24.3297 191.754C23.4619 192.26 22.9886 193.05 23.0201 193.983C23.0517 195.121 23.8091 196.211 24.9766 196.812C26.87 197.776 29.505 197.318 32.2031 195.563C31.6035 194.473 29.9941 191.944 27.7694 191.249C27.3907 191.122 27.012 191.075 26.6176 191.075ZM33.1182 230.997C32.7238 230.997 32.3924 230.681 32.3924 230.285V198.139C31.2564 200.036 29.0474 203.054 25.4815 205.188C25.1502 205.394 24.6926 205.283 24.4875 204.951C24.2824 204.619 24.3928 204.177 24.7242 203.971C27.7063 202.185 29.6943 199.672 30.8304 197.918C27.6747 199.277 25.45 198.661 24.2982 198.076C22.6572 197.238 21.6159 195.69 21.5685 194.03C21.5212 192.576 22.2628 191.312 23.5882 190.537C25.1186 189.637 26.6807 189.431 28.1954 189.905C31.6666 190.996 33.6862 195.326 33.7651 195.5C33.8125 195.595 33.8282 195.69 33.8282 195.784V230.285C33.8282 230.681 33.5127 230.997 33.1024 230.997" fill="#444243"/>
<path d="M34.0493 195.563C36.7474 197.317 39.3823 197.776 41.2757 196.812C42.4433 196.211 43.2007 195.136 43.2322 193.983C43.2638 193.05 42.7904 192.26 41.9226 191.754C40.7393 191.075 39.619 190.901 38.483 191.249C36.2582 191.944 34.6489 194.473 34.0493 195.563ZM33.1184 230.997C32.7239 230.997 32.3926 230.68 32.3926 230.285V195.784C32.3926 195.69 32.4084 195.579 32.4557 195.5C32.5346 195.31 34.5542 190.98 38.0254 189.905C39.5559 189.431 41.1022 189.652 42.6327 190.537C43.958 191.312 44.6996 192.592 44.6523 194.03C44.6049 195.69 43.5636 197.238 41.9226 198.076C40.7708 198.661 38.5619 199.277 35.3904 197.918C36.5107 199.672 38.5145 202.185 41.4808 203.971C41.828 204.177 41.9226 204.619 41.7175 204.951C41.5124 205.283 41.0706 205.393 40.7235 205.188C37.1576 203.054 34.9329 200.036 33.8126 198.139V230.285C33.8126 230.68 33.4971 230.997 33.0868 230.997" fill="#444243"/>
<path d="M143.33 205.315H85.7236C83.3411 205.315 81.4004 203.402 81.4004 201.047C81.4004 198.692 83.3411 196.78 85.7236 196.78H143.33C145.712 196.78 147.653 198.692 147.653 201.047C147.653 203.402 145.712 205.315 143.33 205.315Z" fill="white"/>
<path d="M143.33 213.865H85.7236C83.3411 213.865 81.4004 211.952 81.4004 209.597C81.4004 207.243 83.3411 205.33 85.7236 205.33H143.33C145.712 205.33 147.653 207.243 147.653 209.597C147.653 211.952 145.712 213.865 143.33 213.865Z" fill="#67B558"/>
<path d="M143.33 222.399H85.7236C83.3411 222.399 81.4004 220.487 81.4004 218.132C81.4004 215.777 83.3411 213.865 85.7236 213.865H143.33C145.712 213.865 147.653 215.777 147.653 218.132C147.653 220.487 145.712 222.399 143.33 222.399Z" fill="white"/>
<path d="M143.33 230.949H85.7236C83.3411 230.949 81.4004 229.037 81.4004 226.682C81.4004 224.327 83.3411 222.415 85.7236 222.415H143.33C145.712 222.415 147.653 224.327 147.653 226.682C147.653 229.037 145.712 230.949 143.33 230.949Z" fill="#6E6967"/>
<path d="M108.018 191.075C107.261 191.075 106.503 191.296 105.73 191.754C104.862 192.26 104.389 193.05 104.421 193.983C104.452 195.121 105.194 196.211 106.377 196.812C108.27 197.776 110.905 197.333 113.603 195.563C113.004 194.473 111.395 191.944 109.17 191.249C108.791 191.122 108.412 191.075 108.018 191.075ZM114.534 230.997C114.14 230.997 113.809 230.681 113.809 230.285V198.139C112.688 200.036 110.464 203.054 106.898 205.188C106.566 205.394 106.109 205.283 105.904 204.951C105.699 204.619 105.809 204.177 106.14 203.971C109.122 202.185 111.11 199.672 112.231 197.918C109.075 199.277 106.85 198.645 105.699 198.076C104.058 197.238 103.016 195.69 102.969 194.03C102.922 192.576 103.663 191.312 104.989 190.537C106.535 189.637 108.081 189.431 109.596 189.905C113.067 190.996 115.087 195.326 115.166 195.5C115.213 195.595 115.229 195.69 115.229 195.784V230.285C115.229 230.681 114.913 230.997 114.503 230.997" fill="#444243"/>
<path d="M115.45 195.563C118.148 197.317 120.783 197.776 122.676 196.812C123.844 196.211 124.601 195.136 124.632 193.983C124.664 193.05 124.191 192.26 123.323 191.754C122.14 191.075 121.019 190.901 119.883 191.249C117.658 191.944 116.049 194.473 115.45 195.563ZM114.534 230.997C114.14 230.997 113.809 230.68 113.809 230.285V195.784C113.809 195.69 113.824 195.579 113.872 195.5C113.951 195.31 115.97 190.98 119.441 189.905C120.956 189.431 122.518 189.652 124.049 190.537C125.374 191.312 126.1 192.592 126.068 194.03C126.021 195.69 124.98 197.238 123.339 198.076C122.187 198.661 119.962 199.277 116.806 197.918C117.942 199.672 119.931 202.185 122.913 203.971C123.26 204.177 123.354 204.619 123.149 204.951C122.944 205.283 122.502 205.393 122.155 205.188C118.589 203.054 116.38 200.036 115.244 198.139V230.285C115.244 230.68 114.929 230.997 114.519 230.997" fill="#444243"/>
<path d="M101.832 154.946H44.2256C41.8431 154.946 39.9023 153.034 39.9023 150.679C39.9023 148.324 41.8431 146.412 44.2256 146.412H101.832C104.214 146.412 106.155 148.324 106.155 150.679C106.155 153.034 104.214 154.946 101.832 154.946Z" fill="white"/>
<path d="M101.832 163.48H44.2256C41.8431 163.48 39.9023 161.568 39.9023 159.213C39.9023 156.858 41.8431 154.946 44.2256 154.946H101.832C104.214 154.946 106.155 156.858 106.155 159.213C106.155 161.568 104.214 163.48 101.832 163.48Z" fill="#67B558"/>
<path d="M101.832 172.03H44.2256C41.8431 172.03 39.9023 170.118 39.9023 167.763C39.9023 165.408 41.8431 163.496 44.2256 163.496H101.832C104.214 163.496 106.155 165.408 106.155 167.763C106.155 170.118 104.214 172.03 101.832 172.03Z" fill="white"/>
<path d="M101.832 180.581H44.2256C41.8431 180.581 39.9023 178.668 39.9023 176.313C39.9023 173.959 41.8431 172.046 44.2256 172.046H101.832C104.214 172.046 106.155 173.959 106.155 176.313C106.155 178.668 104.214 180.581 101.832 180.581Z" fill="#6E6967"/>
<path d="M66.5375 140.706C65.7801 140.706 65.0228 140.928 64.2497 141.386C63.3819 141.892 62.9085 142.682 62.9401 143.614C62.9716 144.752 63.729 145.843 64.8966 146.443C66.79 147.407 69.4249 146.965 72.123 145.195C71.5234 144.104 69.914 141.575 67.6893 140.88C67.3106 140.754 66.932 140.706 66.5375 140.706ZM73.0381 180.628C72.6437 180.628 72.3123 180.312 72.3123 179.917V147.771C71.1763 149.667 68.9673 152.686 65.4015 154.82C65.0701 155.025 64.6126 154.914 64.4074 154.582C64.2023 154.251 64.3128 153.808 64.6441 153.603C67.6262 151.817 69.6143 149.304 70.7503 147.55C67.5789 148.925 65.3699 148.292 64.2181 147.708C62.5772 146.87 61.5358 145.321 61.4885 143.662C61.4411 142.208 62.1827 140.943 63.5081 140.169C65.0543 139.268 66.6006 139.063 68.1153 139.537C71.5865 140.627 73.6062 144.958 73.685 145.131C73.7324 145.226 73.7482 145.321 73.7482 145.416V179.917C73.7482 180.312 73.4326 180.628 73.0224 180.628" fill="#444243"/>
<path d="M73.9534 145.195C76.6515 146.949 79.2865 147.407 81.1799 146.443C82.3475 145.843 83.1048 144.768 83.1364 143.614C83.1679 142.682 82.6946 141.892 81.8268 141.386C80.6434 140.69 79.5232 140.532 78.3871 140.88C76.1624 141.575 74.553 144.104 73.9534 145.195ZM73.0383 180.628C72.6438 180.628 72.3125 180.312 72.3125 179.917V145.416C72.3125 145.321 72.3283 145.21 72.3756 145.131C72.4545 144.942 74.4741 140.611 77.9453 139.537C79.46 139.063 81.0221 139.284 82.5526 140.169C83.8779 140.943 84.6037 142.208 84.5722 143.662C84.5249 145.321 83.4835 146.87 81.8426 147.708C80.6907 148.292 78.466 148.924 75.3104 147.55C76.4464 149.304 78.4345 151.832 81.4165 153.603C81.7637 153.808 81.8583 154.251 81.6532 154.582C81.4481 154.914 81.0063 155.025 80.6592 154.82C77.0933 152.686 74.8686 149.667 73.7483 147.771V179.917C73.7483 180.312 73.4328 180.628 73.0225 180.628" fill="#444243"/>
<path d="M300.449 230.159C298.934 230.159 297.545 229.574 296.52 228.515C295.463 227.456 294.879 226.05 294.879 224.58C294.879 224.217 294.91 223.821 294.989 223.458C295.052 223.126 295.163 222.763 295.305 222.431C295.447 222.099 295.605 221.767 295.841 221.482C296.031 221.182 296.252 220.866 296.536 220.613C296.788 220.36 297.072 220.139 297.372 219.918C297.687 219.712 297.987 219.554 298.319 219.412C298.681 219.27 299.013 219.159 299.376 219.096C301.19 218.701 303.115 219.317 304.393 220.613C305.45 221.672 306.034 223.094 306.034 224.58C306.034 226.066 305.45 227.456 304.393 228.515C304.141 228.768 303.857 229.021 303.557 229.211C303.257 229.4 302.91 229.606 302.61 229.748C302.279 229.859 301.916 229.969 301.553 230.064C301.19 230.112 300.827 230.175 300.464 230.175" fill="#48A535"/>
<path d="M322.16 230.143C321.434 230.143 320.708 230.001 320.045 229.732C319.383 229.448 318.767 229.037 318.231 228.499C317.174 227.472 316.59 226.066 316.59 224.564C316.59 224.201 316.653 223.837 316.7 223.474C316.779 223.11 316.89 222.778 317.032 222.446C317.174 222.115 317.331 221.783 317.537 221.467C317.726 221.166 317.978 220.882 318.231 220.629C318.483 220.376 318.767 220.123 319.067 219.934C319.367 219.744 319.714 219.538 320.045 219.396C320.377 219.254 320.74 219.175 321.071 219.08C321.797 218.938 322.554 218.938 323.248 219.08C323.611 219.159 323.974 219.254 324.305 219.396C324.637 219.538 324.968 219.728 325.252 219.934C325.568 220.123 325.867 220.36 326.12 220.629C326.372 220.882 326.593 221.166 326.814 221.467C327.003 221.783 327.177 222.115 327.319 222.446C327.461 222.778 327.571 223.11 327.635 223.474C327.714 223.837 327.745 224.201 327.745 224.564C327.745 226.081 327.193 227.472 326.12 228.499C325.583 229.037 324.968 229.448 324.305 229.732C323.643 230.017 322.917 230.143 322.16 230.143Z" fill="#48A535"/>
<path d="M289.609 215.603C288.094 215.603 286.706 215.018 285.68 213.96C284.623 212.901 284.039 211.494 284.039 210.024C284.039 209.661 284.071 209.266 284.149 208.902C284.213 208.57 284.323 208.207 284.465 207.875C284.607 207.543 284.765 207.211 285.002 206.927C285.191 206.626 285.412 206.31 285.696 206.057C285.948 205.804 286.232 205.583 286.532 205.362C286.848 205.156 287.147 204.998 287.479 204.856C287.842 204.714 288.173 204.603 288.536 204.54C290.35 204.145 292.275 204.761 293.553 206.057C294.61 207.116 295.194 208.539 295.194 210.024C295.194 211.51 294.61 212.901 293.553 213.96C293.301 214.212 293.017 214.465 292.717 214.655C292.417 214.845 292.07 215.05 291.77 215.192C291.439 215.303 291.076 215.414 290.713 215.508C290.35 215.556 289.987 215.619 289.625 215.619" fill="#48A535"/>
<path d="M311.304 215.587C310.578 215.587 309.852 215.445 309.19 215.176C308.527 214.892 307.912 214.481 307.375 213.944C306.318 212.916 305.734 211.51 305.734 210.008C305.734 209.645 305.797 209.281 305.845 208.918C305.924 208.554 306.034 208.222 306.176 207.891C306.318 207.559 306.476 207.227 306.681 206.911C306.87 206.61 307.123 206.326 307.375 206.073C307.628 205.82 307.912 205.567 308.212 205.378C308.511 205.188 308.858 204.983 309.19 204.84C309.521 204.698 309.884 204.619 310.215 204.524C310.941 204.382 311.699 204.382 312.393 204.524C312.756 204.603 313.119 204.698 313.45 204.84C313.781 204.983 314.113 205.172 314.397 205.378C314.712 205.567 315.012 205.804 315.264 206.073C315.517 206.326 315.738 206.61 315.959 206.911C316.148 207.227 316.322 207.559 316.464 207.891C316.606 208.222 316.716 208.554 316.779 208.918C316.858 209.281 316.89 209.645 316.89 210.008C316.89 211.526 316.337 212.916 315.264 213.944C314.728 214.481 314.113 214.892 313.45 215.176C312.787 215.461 312.061 215.587 311.304 215.587Z" fill="#48A535"/>
<path d="M332.999 215.587C332.274 215.587 331.548 215.445 330.885 215.176C330.222 214.892 329.607 214.481 329.071 213.944C328.013 212.916 327.43 211.51 327.43 210.008C327.43 209.645 327.493 209.281 327.54 208.918C327.619 208.554 327.729 208.222 327.871 207.891C328.013 207.559 328.171 207.227 328.376 206.911C328.566 206.61 328.818 206.326 329.071 206.073C329.323 205.82 329.607 205.567 329.907 205.378C330.207 205.188 330.554 204.983 330.885 204.84C331.216 204.698 331.579 204.619 331.911 204.524C332.637 204.382 333.394 204.382 334.088 204.524C334.451 204.603 334.814 204.698 335.145 204.84C335.477 204.983 335.808 205.172 336.092 205.378C336.407 205.567 336.707 205.804 336.96 206.073C337.212 206.326 337.433 206.61 337.654 206.911C337.843 207.227 338.017 207.559 338.159 207.891C338.301 208.222 338.411 208.554 338.474 208.918C338.553 209.281 338.585 209.645 338.585 210.008C338.585 211.526 338.033 212.916 336.96 213.944C336.423 214.481 335.808 214.892 335.145 215.176C334.483 215.461 333.757 215.587 332.999 215.587Z" fill="#48A535"/>
<path d="M228.974 224.564C227.459 224.564 226.071 223.979 225.045 222.921C223.988 221.862 223.404 220.455 223.404 218.985C223.404 218.622 223.436 218.227 223.515 217.863C223.578 217.531 223.688 217.168 223.83 216.836C223.972 216.504 224.13 216.172 224.367 215.888C224.556 215.587 224.777 215.271 225.061 215.018C225.313 214.766 225.597 214.544 225.897 214.323C226.213 214.118 226.513 213.959 226.844 213.817C227.207 213.675 227.538 213.564 227.901 213.501C229.716 213.106 231.641 213.722 232.919 215.018C233.976 216.077 234.56 217.5 234.56 218.985C234.56 220.471 233.976 221.862 232.919 222.921C232.666 223.173 232.382 223.426 232.082 223.616C231.783 223.806 231.435 224.011 231.136 224.153C230.804 224.264 230.441 224.375 230.079 224.469C229.716 224.517 229.353 224.58 228.99 224.58" fill="#48A535"/>
<path d="M215.846 357.637C215.767 357.637 215.689 357.637 215.61 357.621C214.994 357.495 214.584 356.878 214.71 356.262C216.241 348.834 225.25 342.496 234.78 342.133C236.91 342.054 238.788 340.916 239.577 339.241C240.95 336.285 244.563 333.63 249.754 331.781C256.318 329.426 265.769 328.399 271.133 330.991C272.885 331.828 274.999 331.797 276.624 330.864C281.784 327.925 291.045 327.277 298.177 329.347C302.422 330.58 305.372 332.603 306.745 335.179C307.818 337.186 310.453 338.166 312.93 337.439C323.817 334.231 331.217 338.103 334.893 348.945C335.098 349.545 334.783 350.209 334.167 350.399C333.552 350.62 332.905 350.288 332.7 349.687C329.402 339.968 323.312 336.775 313.561 339.652C310.074 340.663 306.256 339.209 304.694 336.254C303.636 334.262 301.08 332.587 297.515 331.56C290.919 329.647 282.415 330.201 277.744 332.872C275.472 334.152 272.553 334.231 270.124 333.061C265.958 331.054 257.517 331.433 250.511 333.946C245.967 335.574 242.732 337.866 241.644 340.221C240.508 342.67 237.841 344.33 234.859 344.44C225.597 344.788 218.134 351.078 216.967 356.736C216.856 357.274 216.383 357.653 215.846 357.653" fill="#6E6967"/>
<path d="M273.784 311.077C273.784 311.077 262.471 316.261 251.868 317.067C230.047 318.727 212.486 301.31 232.982 290.737C253.477 280.164 272.159 300.22 272.159 300.22C272.159 300.22 286.754 276.023 309.506 276.229C332.242 276.434 331.485 297.059 315.628 307.348C295.511 320.386 274.873 310.856 274.873 310.856L273.784 311.077Z" fill="#00963D"/>
<path d="M278.865 306.763C278.565 306.763 278.281 306.652 278.06 306.431C277.602 305.988 277.602 305.245 278.06 304.803C284.734 298.039 291.061 293.977 305.341 291.875C305.972 291.764 306.555 292.207 306.65 292.855C306.745 293.487 306.303 294.072 305.688 294.151C292.04 296.158 286.028 300.014 279.701 306.415C279.48 306.636 279.18 306.763 278.88 306.763" fill="#D2D422"/>
<path d="M268.641 306.763C268.514 306.763 268.372 306.747 268.246 306.684C256.665 302.369 251.742 301.689 240.855 301.61C240.224 301.61 239.703 301.089 239.719 300.457C239.719 299.825 240.24 299.319 240.871 299.319C252.073 299.398 257.138 300.093 269.051 304.534C269.65 304.756 269.95 305.419 269.729 306.02C269.556 306.478 269.114 306.779 268.656 306.779" fill="#D2D422"/>
<path d="M273.641 351.284C272.726 351.284 271.969 350.557 271.922 349.64L271.732 345.689C270.833 326.866 270.565 321.176 273.152 310.066C273.373 309.133 274.304 308.564 275.219 308.77C276.15 308.991 276.718 309.924 276.513 310.84C274.036 321.492 274.273 326.581 275.188 345.515L275.377 349.466C275.424 350.414 274.683 351.236 273.736 351.268H273.657L273.641 351.284Z" fill="#00963D"/>
</g>
</g>
</g>
<defs>
<clipPath id="clip0_166_784">
<rect width="547" height="391" fill="white"/>
</clipPath>
</defs>
</svg>
