<svg width="157" height="191" viewBox="0 0 157 191" fill="none" xmlns="http://www.w3.org/2000/svg">
<g clip-path="url(#clip0_168_1000)">
<path d="M105.293 0L53.5996 95.5063L105.293 191L156.999 95.5063L105.293 0Z" fill="white"/>
<path d="M116.9 157.055L114.008 162.723L109.209 154.532L112.038 148.953L112.72 150.119L110.624 154.228L111.924 156.434L113.907 152.529L114.577 153.695L112.594 157.588L114.071 160.111L116.218 155.902L116.9 157.055Z" fill="#3D3D3D"/>
<mask id="mask0_168_1000" style="mask-type:luminance" maskUnits="userSpaceOnUse" x="0" y="0" width="157" height="191">
<path d="M157 0H0V191H157V0Z" fill="white"/>
</mask>
<g mask="url(#mask0_168_1000)">
<path d="M120.399 148.116C120.399 149.549 120.134 150.906 119.515 152.123C118.239 154.621 116.332 154.38 114.956 152.047C113.516 149.6 113.364 146.125 114.589 143.703C115.107 142.676 115.701 142.118 116.484 141.7L116.774 143.361C116.206 143.653 115.701 144.185 115.284 144.997C114.463 146.607 114.779 148.889 115.739 150.538C116.698 152.174 117.987 152.453 118.782 150.88C119.136 150.195 119.376 149.105 119.389 147.913L120.386 148.116H120.399Z" fill="#3D3D3D"/>
<path d="M119.212 137.173C118.429 138.707 118.896 141.002 119.793 142.537C120.702 144.096 121.978 144.781 122.761 143.234C123.544 141.7 123.089 139.405 122.18 137.845C121.283 136.311 119.995 135.613 119.212 137.16M122.95 136.349C124.289 138.631 124.744 141.865 123.443 144.413C122.167 146.911 120.361 146.341 119.023 144.058C117.696 141.789 117.242 138.517 118.517 136.007C119.818 133.458 121.612 134.079 122.95 136.349Z" fill="#3D3D3D"/>
</g>
<path d="M124.516 124.43L127.787 135.626L127.042 137.122L120.715 131.923L121.523 130.326L126.146 134.231L123.721 126.002L124.516 124.43Z" fill="#3D3D3D"/>
<path d="M130.628 130.047L129.896 131.505L125.084 123.314L125.829 121.856L130.628 130.047Z" fill="#3D3D3D"/>
<path d="M129.214 117.519C128.431 119.053 128.898 121.348 129.795 122.883C130.704 124.442 131.98 125.127 132.763 123.58C133.546 122.046 133.091 119.751 132.182 118.191C131.285 116.657 129.997 115.959 129.214 117.506M132.952 116.695C134.291 118.977 134.746 122.211 133.445 124.759C132.169 127.257 130.363 126.687 129.024 124.404C127.698 122.134 127.244 118.863 128.519 116.352C129.82 113.804 131.614 114.425 132.952 116.695Z" fill="#3D3D3D"/>
<g opacity="0.8">
<path d="M77.0782 0L128.784 95.5063L77.0782 191L25.3848 95.5063L77.0782 0Z" fill="#47A733"/>
</g>
<path d="M84.8716 151.717L86.6018 154.672L87.3722 153.163C87.8017 152.326 87.7259 151.108 87.2207 150.246C86.7029 149.371 86.0587 149.371 85.642 150.208L84.8716 151.717ZM84.9347 149.118C85.7935 147.431 87.0565 147.241 87.9658 148.801C88.9004 150.386 88.8752 152.706 88.029 154.367L87.2838 155.838L89.0015 158.767L88.2563 160.225L83.457 152.034L84.9347 149.13V149.118Z" fill="white"/>
<path d="M94.6858 147.583L92.0083 152.846L87.209 144.654L87.9415 143.196L92.0714 150.233L94.0038 146.417L94.6858 147.583Z" fill="white"/>
<path d="M95.569 138.986L93.3335 137.186L94.4702 141.117L95.5564 138.974L95.569 138.986ZM98.8527 139.379L98.0444 140.964L96.4657 139.696L94.9249 142.714L95.7079 145.542L94.9249 147.089L91.7422 135.715L92.4242 134.383L98.8527 139.392V139.379Z" fill="white"/>
<path d="M102.667 131.873L101.948 133.293L96.9083 131.087L100.205 136.729L99.4721 138.175L94.6602 129.984L95.3674 128.589L100.47 130.833L97.1356 125.14L97.8681 123.682L102.667 131.873Z" fill="white"/>
<path d="M102.44 117.189L101.177 119.675L105.294 126.712L104.549 128.17L100.431 121.133L99.1811 123.58L98.5117 122.426L101.758 116.035L102.44 117.189Z" fill="white"/>
<path d="M107.972 121.462L107.227 122.921L102.428 114.729L103.16 113.271L107.972 121.462Z" fill="white"/>
<mask id="mask1_168_1000" style="mask-type:luminance" maskUnits="userSpaceOnUse" x="0" y="0" width="157" height="191">
<path d="M157 0H0V191H157V0Z" fill="white"/>
</mask>
<g mask="url(#mask1_168_1000)">
<path d="M111.797 111.902C111.797 113.335 111.532 114.691 110.913 115.909C109.65 118.407 107.731 118.166 106.354 115.833C104.914 113.385 104.763 109.911 105.988 107.489C106.506 106.462 107.099 105.904 107.882 105.486L108.173 107.147C107.604 107.438 107.099 107.958 106.682 108.782C105.861 110.393 106.177 112.675 107.137 114.324C108.097 115.959 109.385 116.238 110.181 114.666C110.534 113.981 110.774 112.891 110.787 111.712L111.797 111.914V111.902Z" fill="white"/>
</g>
<path d="M115.032 99.7162L114.439 100.895L113.15 98.7018L113.504 100.604L113.112 101.377L112.077 100.883L113.34 103.051L112.746 104.218L110.22 99.919L110.751 98.8666L112.633 99.8556L111.963 96.4954L112.506 95.4303L115.032 99.7288V99.7162ZM110.574 101.415L109.942 102.658L111.862 105.942L111.205 107.223L109.286 103.939L108.654 105.169L108.061 104.154L109.968 100.388L110.561 101.403L110.574 101.415Z" fill="white"/>
<path d="M51.7061 0L0 95.5063L51.7061 191L103.399 95.5063L51.7061 0Z" fill="white"/>
<mask id="mask2_168_1000" style="mask-type:luminance" maskUnits="userSpaceOnUse" x="0" y="0" width="157" height="191">
<path d="M157 0H0V191H157V0Z" fill="white"/>
</mask>
<g mask="url(#mask2_168_1000)">
<path d="M54.7754 153.784L56.9099 157.423L57.9708 155.344C58.5517 154.19 58.5138 152.592 57.895 151.527C57.2635 150.449 56.4173 150.538 55.8363 151.692L54.7754 153.771V153.784ZM54.9523 150.348C56.1395 148.015 57.794 147.583 58.918 149.511C60.0673 151.476 59.9536 154.519 58.7791 156.827L57.7434 158.856L59.8652 162.483L58.8422 164.499L52.9062 154.367L54.9523 150.36V150.348Z" fill="#3D3D3D"/>
</g>
<path d="M63.97 145.948L61.1409 143.881L62.4671 148.902L63.97 145.948ZM68.2388 146.024L67.1274 148.217L65.1193 146.759L62.9975 150.944L63.9068 154.545L62.8207 156.688L59.1328 142.156L60.0674 140.305L68.2515 146.024H68.2388Z" fill="#3D3D3D"/>
<mask id="mask3_168_1000" style="mask-type:luminance" maskUnits="userSpaceOnUse" x="0" y="0" width="157" height="191">
<path d="M157 0H0V191H157V0Z" fill="white"/>
</mask>
<g mask="url(#mask3_168_1000)">
<path d="M64.9415 133.8L67.0759 137.439L68.1368 135.36C68.7178 134.206 68.6799 132.608 68.061 131.543C67.4295 130.465 66.5833 130.554 66.0024 131.708L64.9415 133.787V133.8ZM65.1183 130.364C66.3055 128.031 67.96 127.6 69.084 129.527C70.2333 131.492 70.1196 134.536 68.9451 136.843L67.9094 138.872L70.0312 142.499L69.0082 144.515L63.0723 134.383L65.1183 130.377V130.364Z" fill="#3D3D3D"/>
</g>
<path d="M78.1281 126.598L74.1371 134.447L68.2012 124.315L72.1164 116.606L72.9626 118.039L70.0577 123.732L71.6617 126.458L74.415 121.057L75.2486 122.49L72.4953 127.891L74.3266 130.998L77.2946 125.165L78.1281 126.598Z" fill="#3D3D3D"/>
<mask id="mask4_168_1000" style="mask-type:luminance" maskUnits="userSpaceOnUse" x="0" y="0" width="157" height="191">
<path d="M157 0H0V191H157V0Z" fill="white"/>
</mask>
<g mask="url(#mask4_168_1000)">
<path d="M78.0005 115.059C78.5688 113.943 78.7582 112.409 78.1268 111.331C77.4953 110.253 76.6996 110.684 76.1439 111.775L75.0577 113.892L76.9396 117.113L77.9878 115.059H78.0005ZM83.7722 115.49L82.5472 117.887L78.6319 116.885L77.7858 118.533L80.1601 122.578L79.1371 124.594L73.2012 114.463L75.2977 110.342C76.4217 108.136 78.0131 107.311 79.1624 109.277C79.9076 110.545 80.0465 112.624 79.5918 114.45L83.7722 115.49Z" fill="#3D3D3D"/>
</g>
</g>
<defs>
<clipPath id="clip0_168_1000">
<rect width="157" height="191" fill="white"/>
</clipPath>
</defs>
</svg>
