<svg width="341" height="181" viewBox="0 0 341 181" fill="none" xmlns="http://www.w3.org/2000/svg">
<g clip-path="url(#clip0_169_1362)">
<path d="M99.737 0.419006L50.7715 90.5838L99.737 180.749L148.714 90.5838L99.737 0.419006Z" fill="white"/>
<path d="M110.731 148.691L107.991 154.042L103.445 146.308L106.125 141.053L106.771 142.142L104.785 146.021L106.017 148.104L107.896 144.417L108.53 145.518L106.651 149.193L108.051 151.576L110.085 147.601L110.731 148.691Z" fill="#3D3D3D"/>
<mask id="mask0_169_1362" style="mask-type:luminance" maskUnits="userSpaceOnUse" x="0" y="0" width="149" height="181">
<path d="M148.715 0.419006H0V180.737H148.715V0.419006Z" fill="white"/>
</mask>
<g mask="url(#mask0_169_1362)">
<path d="M114.045 140.251C114.045 141.604 113.794 142.885 113.207 144.034C111.999 146.392 110.193 146.165 108.889 143.962C107.525 141.652 107.381 138.372 108.542 136.085C109.032 135.115 109.595 134.589 110.336 134.194L110.611 135.762C110.073 136.037 109.595 136.54 109.2 137.306C108.422 138.826 108.721 140.981 109.63 142.537C110.54 144.082 111.76 144.345 112.514 142.861C112.849 142.214 113.076 141.185 113.088 140.059L114.033 140.251H114.045Z" fill="#3D3D3D"/>
<path d="M112.921 129.92C112.179 131.369 112.622 133.535 113.471 134.984C114.332 136.456 115.541 137.103 116.282 135.642C117.024 134.194 116.593 132.027 115.732 130.555C114.883 129.106 113.662 128.448 112.921 129.908M116.462 129.142C117.73 131.297 118.16 134.349 116.928 136.756C115.72 139.114 114.009 138.575 112.741 136.42C111.485 134.278 111.054 131.189 112.263 128.819C113.495 126.413 115.194 126.999 116.462 129.142Z" fill="#3D3D3D"/>
</g>
<path d="M117.945 117.889L121.043 128.46L120.337 129.872L114.344 124.964L115.109 123.456L119.488 127.143L117.191 119.374L117.945 117.889Z" fill="#3D3D3D"/>
<path d="M123.736 123.193L123.042 124.569L118.484 116.836L119.19 115.459L123.736 123.193Z" fill="#3D3D3D"/>
<path d="M122.395 111.377C121.653 112.826 122.096 114.993 122.945 116.441C123.807 117.913 125.015 118.56 125.757 117.099C126.499 115.651 126.068 113.484 125.207 112.012C124.357 110.563 123.137 109.905 122.395 111.365M125.936 110.587C127.204 112.742 127.635 115.795 126.403 118.201C125.195 120.559 123.484 120.02 122.216 117.866C120.96 115.723 120.529 112.634 121.737 110.264C122.969 107.858 124.668 108.444 125.936 110.587Z" fill="#3D3D3D"/>
<g opacity="0.8">
<path d="M73.0124 0.419006L121.99 90.5838L73.0124 180.749L24.0469 90.5838L73.0124 0.419006Z" fill="#47A733"/>
</g>
<path d="M80.3926 143.651L82.0316 146.44L82.7613 145.015C83.1681 144.225 83.0963 143.076 82.6178 142.262C82.1273 141.436 81.5172 141.436 81.1224 142.226L80.3926 143.651ZM80.4524 141.197C81.2659 139.605 82.4623 139.425 83.3236 140.897C84.2089 142.394 84.185 144.584 83.3834 146.153L82.6776 147.541L84.3046 150.307L83.5988 151.683L79.0527 143.95L80.4524 141.209V141.197Z" fill="white"/>
<path d="M89.6877 139.748L87.1515 144.716L82.6055 136.983L83.2993 135.606L87.2113 142.25L89.0417 138.647L89.6877 139.748Z" fill="white"/>
<path d="M90.5252 131.632L88.4078 129.932L89.4845 133.643L90.5133 131.62L90.5252 131.632ZM93.6357 132.003L92.87 133.5L91.3746 132.302L89.9151 135.152L90.6568 137.821L89.9151 139.281L86.9004 128.544L87.5464 127.287L93.6357 132.015V132.003Z" fill="white"/>
<path d="M97.2488 124.928L96.5669 126.257L91.7935 124.174L94.9159 129.501L94.2221 130.878L89.6641 123.133L90.334 121.816L95.1672 123.935L92.0089 118.56L92.7027 117.183L97.2488 124.928Z" fill="white"/>
<path d="M97.0331 111.054L95.8367 113.4L99.7368 120.044L99.0309 121.421L95.1309 114.777L93.9465 117.087L93.3125 115.998L96.3871 109.965L97.0331 111.054Z" fill="white"/>
<path d="M102.273 115.088L101.568 116.465L97.0215 108.732L97.7154 107.355L102.273 115.088Z" fill="white"/>
<mask id="mask1_169_1362" style="mask-type:luminance" maskUnits="userSpaceOnUse" x="0" y="0" width="149" height="181">
<path d="M148.715 0.419006H0V180.737H148.715V0.419006Z" fill="white"/>
</mask>
<g mask="url(#mask1_169_1362)">
<path d="M105.898 106.062C105.898 107.415 105.647 108.696 105.061 109.845C103.865 112.203 102.046 111.976 100.742 109.773C99.3785 107.463 99.2349 104.183 100.395 101.896C100.886 100.927 101.448 100.4 102.19 100.005L102.465 101.573C101.927 101.848 101.448 102.339 101.053 103.117C100.276 104.638 100.575 106.792 101.484 108.349C102.393 109.893 103.613 110.156 104.367 108.672C104.702 108.025 104.929 106.996 104.941 105.883L105.898 106.074V106.062Z" fill="white"/>
</g>
<path d="M108.961 94.5581L108.399 95.6714L107.179 93.6005L107.514 95.3961L107.143 96.1263L106.162 95.6595L107.358 97.7065L106.796 98.8078L104.403 94.7497L104.906 93.7561L106.688 94.6898L106.054 91.5175L106.568 90.512L108.961 94.5701V94.5581ZM104.738 96.1622L104.14 97.3354L105.958 100.436L105.336 101.645L103.518 98.5444L102.92 99.7056L102.357 98.7479L104.164 95.1926L104.726 96.1503L104.738 96.1622Z" fill="white"/>
<path d="M48.9775 0.419006L0 90.5838L48.9775 180.749L97.943 90.5838L48.9775 0.419006Z" fill="white"/>
<mask id="mask2_169_1362" style="mask-type:luminance" maskUnits="userSpaceOnUse" x="0" y="0" width="149" height="181">
<path d="M148.715 0.419006H0V180.737H148.715V0.419006Z" fill="white"/>
</mask>
<g mask="url(#mask2_169_1362)">
<path d="M51.8838 145.602L53.9056 149.038L54.9105 147.075C55.4608 145.985 55.425 144.477 54.8388 143.471C54.2406 142.454 53.4391 142.538 52.8888 143.627L51.8838 145.59V145.602ZM52.0513 142.358C53.1759 140.155 54.7431 139.748 55.8078 141.568C56.8964 143.423 56.7888 146.296 55.6762 148.475L54.6952 150.39L56.705 153.814L55.736 155.718L50.1133 146.153L52.0513 142.37V142.358Z" fill="#3D3D3D"/>
</g>
<path d="M60.5936 138.204L57.9139 136.253L59.17 140.993L60.5936 138.204ZM64.6372 138.288L63.5844 140.359L61.6823 138.982L59.6725 142.932L60.5338 146.332L59.505 148.355L56.0117 134.637L56.897 132.889L64.6492 138.288H64.6372Z" fill="#3D3D3D"/>
<mask id="mask3_169_1362" style="mask-type:luminance" maskUnits="userSpaceOnUse" x="0" y="0" width="149" height="181">
<path d="M148.715 0.419006H0V180.737H148.715V0.419006Z" fill="white"/>
</mask>
<g mask="url(#mask3_169_1362)">
<path d="M61.5147 126.736L63.5365 130.172L64.5414 128.208C65.0917 127.119 65.0558 125.611 64.4696 124.605C63.8715 123.588 63.0699 123.671 62.5196 124.761L61.5147 126.724V126.736ZM61.6822 123.492C62.8067 121.289 64.3739 120.882 65.4386 122.702C66.5273 124.557 66.4196 127.43 65.307 129.609L64.3261 131.524L66.3359 134.948L65.3669 136.851L59.7441 127.287L61.6822 123.504V123.492Z" fill="#3D3D3D"/>
</g>
<path d="M74.0047 119.936L70.2243 127.346L64.6016 117.782L68.3102 110.503L69.1117 111.856L66.3602 117.231L67.8795 119.805L70.4875 114.705L71.277 116.058L68.6691 121.158L70.4037 124.09L73.2151 118.584L74.0047 119.936Z" fill="#3D3D3D"/>
<mask id="mask4_169_1362" style="mask-type:luminance" maskUnits="userSpaceOnUse" x="0" y="0" width="149" height="181">
<path d="M148.715 0.419006H0V180.737H148.715V0.419006Z" fill="white"/>
</mask>
<g mask="url(#mask4_169_1362)">
<path d="M73.8859 109.043C74.4242 107.989 74.6037 106.541 74.0055 105.523C73.4073 104.506 72.6537 104.913 72.1273 105.942L71.0984 107.942L72.881 110.982L73.8739 109.043H73.8859ZM79.3531 109.462L78.1926 111.724L74.484 110.779L73.6825 112.335L75.9316 116.154L74.9626 118.057L69.3398 108.492L71.3257 104.602C72.3905 102.519 73.8978 101.741 74.9865 103.596C75.6923 104.793 75.8239 106.756 75.3932 108.48L79.3531 109.462Z" fill="#3D3D3D"/>
</g>
<path d="M243.057 90.8352L292.022 181L341 90.8352L292.022 0.670349L243.057 90.8352Z" fill="#47A733"/>
<path d="M303.004 148.942L300.277 154.293L295.73 146.56L298.41 141.304L299.056 142.394L297.07 146.272L298.291 148.355L300.181 144.68L300.815 145.77L298.937 149.457L300.336 151.827L302.37 147.853L303.004 148.942Z" fill="white"/>
<mask id="mask5_169_1362" style="mask-type:luminance" maskUnits="userSpaceOnUse" x="167" y="0" width="174" height="181">
<path d="M341.001 0H167.211V181H341.001V0Z" fill="white"/>
</mask>
<g mask="url(#mask5_169_1362)">
<path d="M306.332 140.502C306.332 141.855 306.081 143.136 305.495 144.285C304.286 146.644 302.48 146.416 301.176 144.213C299.812 141.903 299.668 138.623 300.829 136.337C301.319 135.367 301.882 134.84 302.623 134.445L302.899 136.013C302.36 136.289 301.882 136.791 301.487 137.558C300.709 139.078 301.008 141.233 301.918 142.789C302.827 144.333 304.047 144.597 304.801 143.112C305.136 142.466 305.363 141.436 305.375 140.311L306.32 140.502H306.332Z" fill="white"/>
<path d="M305.208 130.184C304.466 131.632 304.909 133.799 305.758 135.247C306.619 136.72 307.828 137.366 308.569 135.918C309.311 134.469 308.88 132.302 308.019 130.83C307.17 129.382 305.949 128.723 305.208 130.184ZM308.749 129.393C310.017 131.548 310.448 134.601 309.215 137.007C308.007 139.365 306.296 138.827 305.028 136.672C303.772 134.529 303.341 131.441 304.55 129.07C305.782 126.664 307.481 127.251 308.749 129.393Z" fill="white"/>
</g>
<path d="M310.23 118.141L313.329 128.723L312.611 130.124L306.617 125.216L307.395 123.707L311.773 127.394L309.476 119.625L310.23 118.141Z" fill="white"/>
<path d="M316.021 123.456L315.328 124.821L310.77 117.087L311.475 115.711L316.021 123.456Z" fill="white"/>
<mask id="mask6_169_1362" style="mask-type:luminance" maskUnits="userSpaceOnUse" x="167" y="0" width="174" height="181">
<path d="M341.001 0H167.211V181H341.001V0Z" fill="white"/>
</mask>
<g mask="url(#mask6_169_1362)">
<path d="M314.682 111.629C313.941 113.077 314.383 115.244 315.233 116.692C316.094 118.165 317.302 118.811 318.044 117.351C318.786 115.902 318.355 113.736 317.494 112.263C316.644 110.815 315.424 110.156 314.682 111.617M318.223 110.839C319.492 112.993 319.922 116.046 318.69 118.452C317.482 120.81 315.771 120.272 314.503 118.117C313.247 115.974 312.816 112.886 314.024 110.515C315.257 108.109 316.955 108.696 318.223 110.839Z" fill="white"/>
</g>
<path d="M266.96 0L217.982 90.1648L266.96 180.318L315.925 90.1648L266.96 0Z" fill="white"/>
<mask id="mask7_169_1362" style="mask-type:luminance" maskUnits="userSpaceOnUse" x="167" y="0" width="174" height="181">
<path d="M341.001 0H167.211V181H341.001V0Z" fill="white"/>
</mask>
<g mask="url(#mask7_169_1362)">
<path d="M269.868 145.183L271.89 148.619L272.895 146.655C273.457 145.566 273.421 144.058 272.823 143.052C272.225 142.035 271.423 142.118 270.873 143.208L269.868 145.171V145.183ZM270.036 141.939C271.16 139.736 272.727 139.329 273.792 141.149C274.881 143.004 274.773 145.877 273.661 148.056L272.68 149.971L274.689 153.395L273.72 155.298L268.098 145.734L270.036 141.951V141.939Z" fill="#3D3D3D"/>
</g>
<path d="M278.576 137.785L275.896 135.834L277.152 140.574L278.576 137.785ZM282.62 137.857L281.567 139.928L279.665 138.551L277.655 142.502L278.516 145.901L277.487 147.924L273.994 134.206L274.879 132.458L282.632 137.857H282.62Z" fill="#3D3D3D"/>
<mask id="mask8_169_1362" style="mask-type:luminance" maskUnits="userSpaceOnUse" x="167" y="0" width="174" height="181">
<path d="M341.001 0H167.211V181H341.001V0Z" fill="white"/>
</mask>
<g mask="url(#mask8_169_1362)">
<path d="M279.497 126.317L281.519 129.753L282.524 127.789C283.074 126.7 283.038 125.192 282.452 124.186C281.854 123.169 281.052 123.252 280.502 124.342L279.497 126.305V126.317ZM279.665 123.073C280.789 120.87 282.356 120.463 283.421 122.283C284.51 124.138 284.402 127.011 283.289 129.19L282.308 131.105L284.318 134.529L283.349 136.432L277.727 126.868L279.665 123.085V123.073Z" fill="#3D3D3D"/>
</g>
<path d="M291.987 119.517L288.207 126.927L282.584 117.363L286.305 110.084L287.094 111.437L284.343 116.812L285.862 119.386L288.47 114.286L289.259 115.639L286.651 120.738L288.386 123.671L291.198 118.165L291.987 119.517Z" fill="#3D3D3D"/>
<path d="M291.866 108.624C292.405 107.571 292.584 106.122 291.986 105.105C291.388 104.087 290.634 104.494 290.108 105.523L289.079 107.523L290.861 110.563L291.854 108.624H291.866ZM297.334 109.031L296.173 111.293L292.465 110.348L291.663 111.904L293.912 115.723L292.943 117.626L287.32 108.061L289.306 104.171C290.371 102.088 291.878 101.31 292.967 103.165C293.673 104.362 293.804 106.326 293.374 108.049L297.334 109.031Z" fill="#3D3D3D"/>
<g opacity="0.8">
<path d="M241.466 0L290.443 90.1648L241.466 180.318L192.488 90.1648L241.466 0Z" fill="#47A733"/>
</g>
<path d="M247.604 143.232L249.243 146.021L249.972 144.596C250.379 143.806 250.307 142.657 249.829 141.843C249.338 141.017 248.728 141.017 248.333 141.807L247.604 143.232ZM247.663 140.778C248.477 139.186 249.673 139.006 250.535 140.478C251.42 141.975 251.396 144.166 250.594 145.734L249.889 147.122L251.516 149.888L250.81 151.264L246.264 143.531L247.663 140.79V140.778Z" fill="white"/>
<path d="M256.899 139.317L254.362 144.297L249.816 136.564L250.51 135.187L254.422 141.831L256.253 138.228L256.899 139.317Z" fill="white"/>
<path d="M257.736 131.213L255.619 129.513L256.695 133.224L257.724 131.201L257.736 131.213ZM260.847 131.584L260.081 133.08L258.586 131.883L257.126 134.732L257.868 137.402L257.126 138.862L254.111 128.124L254.757 126.868L260.847 131.596V131.584Z" fill="white"/>
<path d="M264.46 124.497L263.778 125.838L259.004 123.755L262.127 129.082L261.433 130.447L256.875 122.714L257.557 121.397L262.378 123.516L259.22 118.141L259.914 116.764L264.46 124.497Z" fill="white"/>
<path d="M264.244 110.635L263.048 112.981L266.96 119.625L266.254 121.002L262.342 114.358L261.169 116.668L260.523 115.579L263.598 109.546L264.244 110.635Z" fill="white"/>
<path d="M269.484 114.669L268.778 116.046L264.232 108.313L264.938 106.936L269.484 114.669Z" fill="white"/>
<mask id="mask9_169_1362" style="mask-type:luminance" maskUnits="userSpaceOnUse" x="167" y="0" width="174" height="181">
<path d="M341.001 0H167.211V181H341.001V0Z" fill="white"/>
</mask>
<g mask="url(#mask9_169_1362)">
<path d="M273.109 105.643C273.109 106.996 272.858 108.277 272.272 109.426C271.076 111.784 269.257 111.557 267.953 109.354C266.589 107.044 266.446 103.764 267.606 101.477C268.097 100.508 268.659 99.981 269.401 99.5859L269.676 101.154C269.138 101.429 268.659 101.92 268.264 102.698C267.487 104.219 267.786 106.373 268.695 107.93C269.604 109.474 270.824 109.737 271.578 108.253C271.901 107.606 272.14 106.577 272.152 105.464L273.109 105.655V105.643Z" fill="white"/>
</g>
<path d="M276.172 94.1392L275.61 95.2525L274.39 93.1815L274.725 94.9771L274.354 95.7074L273.373 95.2405L274.569 97.2875L274.007 98.3889L271.614 94.3307L272.117 93.3371L273.899 94.2709L273.265 91.0986L273.779 90.093L276.172 94.1512V94.1392ZM271.949 95.7433L271.351 96.9164L273.169 100.017L272.547 101.226L270.729 98.1255L270.131 99.2867L269.568 98.329L271.375 94.7736L271.937 95.7313L271.949 95.7433Z" fill="white"/>
<path d="M216.188 0L167.211 90.1648L216.188 180.318L265.154 90.1648L216.188 0Z" fill="white"/>
<mask id="mask10_169_1362" style="mask-type:luminance" maskUnits="userSpaceOnUse" x="167" y="0" width="174" height="181">
<path d="M341.001 0H167.211V181H341.001V0Z" fill="white"/>
</mask>
<g mask="url(#mask10_169_1362)">
<path d="M219.106 145.183L221.128 148.619L222.133 146.655C222.683 145.566 222.648 144.058 222.061 143.052C221.463 142.035 220.662 142.118 220.111 143.208L219.106 145.171V145.183ZM219.274 141.939C220.399 139.736 221.966 139.329 223.03 141.149C224.119 143.004 224.011 145.877 222.899 148.056L221.918 149.971L223.928 153.395L222.959 155.298L217.336 145.734L219.274 141.951V141.939Z" fill="#3D3D3D"/>
</g>
<path d="M227.805 137.785L225.125 135.834L226.381 140.574L227.805 137.785ZM231.848 137.857L230.795 139.928L228.893 138.551L226.883 142.502L227.745 145.901L226.716 147.924L223.223 134.206L224.108 132.458L231.86 137.857H231.848Z" fill="#3D3D3D"/>
<path d="M228.725 126.317L230.747 129.753L231.752 127.789C232.302 126.7 232.267 125.192 231.68 124.186C231.082 123.169 230.281 123.252 229.73 124.342L228.725 126.305V126.317ZM228.905 123.073C230.029 120.87 231.597 120.463 232.661 122.283C233.75 124.138 233.642 127.011 232.53 129.19L231.549 131.105L233.559 134.529L232.59 136.432L226.967 126.868L228.905 123.085V123.073Z" fill="#3D3D3D"/>
<path d="M241.216 119.517L237.435 126.927L231.812 117.363L235.533 110.084L236.323 111.437L233.583 116.812L235.09 119.386L237.698 114.286L238.488 115.639L235.88 120.738L237.615 123.671L240.426 118.165L241.216 119.517Z" fill="#3D3D3D"/>
<path d="M241.095 108.624C241.633 107.571 241.813 106.122 241.214 105.105C240.616 104.087 239.863 104.494 239.336 105.523L238.307 107.523L240.09 110.563L241.083 108.624H241.095ZM246.562 109.031L245.402 111.293L241.693 110.348L240.891 111.904L243.141 115.723L242.172 117.626L236.549 108.061L238.535 104.171C239.599 102.088 241.107 101.31 242.195 103.165C242.901 104.362 243.033 106.326 242.602 108.049L246.562 109.031Z" fill="#3D3D3D"/>
</g>
<defs>
<clipPath id="clip0_169_1362">
<rect width="341" height="181" fill="white"/>
</clipPath>
</defs>
</svg>
