<svg width="495" height="73" viewBox="0 0 495 73" fill="none" xmlns="http://www.w3.org/2000/svg">
<g clip-path="url(#clip0_164_101)">
<mask id="mask0_164_101" style="mask-type:luminance" maskUnits="userSpaceOnUse" x="0" y="0" width="495" height="73">
<path d="M495 0H0V73H495V0Z" fill="white"/>
</mask>
<g mask="url(#mask0_164_101)">
<path d="M80.5249 68.8601C76.3557 66.1002 73.6681 62.2708 72.4277 57.3719C71.2217 52.4731 71.6697 46.9532 73.8404 40.7779C75.9767 34.6026 79.3879 29.0827 84.0395 24.1839C88.6911 19.285 94.0318 15.4556 100.131 12.6957C106.229 9.93575 112.466 8.55579 118.875 8.55579C124.25 8.55579 128.798 9.48726 132.485 11.4192C136.172 13.3167 138.894 16.0421 140.582 19.5955L128.35 28.1512C125.835 23.2869 121.494 20.8374 115.257 20.8374C111.398 20.8374 107.677 21.6999 104.059 23.3904C100.441 25.0808 97.2707 27.4268 94.5142 30.4627C91.7577 33.4986 89.7248 36.914 88.381 40.7779C87.0027 44.6418 86.6582 48.0572 87.3128 51.0931C87.9331 54.129 89.4836 56.475 91.8955 58.1654C94.3419 59.8559 97.4775 60.7184 101.337 60.7184C107.539 60.7184 113.603 58.2344 119.53 53.3356L125.801 61.8913C121.597 65.5137 116.945 68.2737 111.915 70.1711C106.85 72.0686 101.647 73 96.2715 73C89.9315 73 84.6942 71.6201 80.5249 68.8601Z" fill="white"/>
<path d="M175.555 58.1654C179.104 56.4749 182.24 54.129 184.996 51.0931C187.753 48.0572 189.786 44.6418 191.13 40.7779C192.473 36.914 192.818 33.4986 192.198 30.4627C191.577 27.4267 190.061 25.0808 187.684 23.3904C185.306 21.6999 182.274 20.8374 178.622 20.8374C174.97 20.8374 171.317 21.6999 167.803 23.3904C164.254 25.0808 161.118 27.4267 158.362 30.4627C155.605 33.4986 153.572 36.914 152.194 40.7779C150.85 44.6418 150.506 48.0572 151.126 51.0931C151.746 54.129 153.262 56.4749 155.64 58.1654C158.017 59.8559 161.015 60.7183 164.702 60.7183C168.388 60.7183 171.972 59.8904 175.521 58.1654M144.441 68.8256C140.238 66.0312 137.515 62.2018 136.31 57.3029C135.069 52.4041 135.551 46.9187 137.653 40.8124C139.79 34.706 143.166 29.2207 147.818 24.3218C152.47 19.423 157.845 15.5936 164.012 12.7991C170.18 10.0392 176.486 8.62476 182.929 8.62476C189.372 8.62476 194.713 10.0392 198.882 12.7991C203.051 15.5936 205.774 19.423 207.014 24.3218C208.254 29.2207 207.841 34.706 205.705 40.8124C203.568 46.9187 200.157 52.4386 195.506 57.3029C190.854 62.2018 185.444 66.0312 179.311 68.8256C173.178 71.62 166.907 73 160.429 73C153.951 73 148.645 71.62 144.441 68.8256Z" fill="white"/>
</g>
<path d="M285.47 9.65973L263.729 71.9305H278.131L286.056 49.2301H304.697L308.729 37.673H290.088L295.842 21.2169H387.634L391.665 9.65973H285.47Z" fill="white"/>
<path d="M227.344 9.65973L205.602 71.9305H220.004L227.929 49.2301H256.7L260.732 37.673H231.961L237.715 21.2169H270.311L274.342 9.65973H227.344Z" fill="white"/>
<path d="M319.859 28.5997L305.008 71.9305H319.411L334.227 28.5997H319.859Z" fill="white"/>
<path d="M459.58 9.65973L423.159 48.3677L413.374 9.65973H401.486L379.744 71.9305H393.251L406 35.3615L413.753 65.3412H420.23L449.277 34.568L436.321 71.9305H449.828L471.398 9.65973H459.58Z" fill="white"/>
<path d="M342.392 28.5997L327.645 71.9305H369.922L374.023 60.2009H346.148L356.795 28.5997H342.392Z" fill="white"/>
<path d="M473.74 0V2.13894H476.979V11.5227H479.46V2.13894H482.768V0H473.74ZM492.863 0L489.659 6.00284L486.351 0H484.043V11.4882H486.42V4.48488L488.729 8.83176H490.52L492.829 4.45038V11.4882H495V0H492.863Z" fill="white"/>
<path d="M4.16922 61.0634L0 72.9655H48.1011L52.2703 61.0634H4.16922Z" fill="white"/>
<path d="M65.019 20.7339L69.1882 8.86627H22.3965L18.2617 20.7339H65.019Z" fill="white"/>
<path d="M49.2372 45.8492L53.3375 34.0505H13.5749L9.47461 45.8492H49.2372Z" fill="white"/>
</g>
<defs>
<clipPath id="clip0_164_101">
<rect width="495" height="73" fill="white"/>
</clipPath>
</defs>
</svg>
