<svg width="183" height="191" viewBox="0 0 183 191" fill="none" xmlns="http://www.w3.org/2000/svg">
<g clip-path="url(#clip0_169_1209)">
<path d="M79.8672 95.8537L131.428 191L183.001 95.8537L131.428 0.707397L79.8672 95.8537Z" fill="#47A733"/>
<path d="M142.991 157.171L140.119 162.817L135.332 154.657L138.154 149.111L138.834 150.261L136.743 154.354L138.028 156.552L140.006 152.674L140.686 153.823L138.708 157.714L140.182 160.215L142.323 156.021L142.991 157.171Z" fill="white"/>
<mask id="mask0_169_1209" style="mask-type:luminance" maskUnits="userSpaceOnUse" x="0" y="0" width="183" height="191">
<path d="M183 0H0V191H183V0Z" fill="white"/>
</mask>
<g mask="url(#mask0_169_1209)">
<path d="M146.493 148.265C146.493 149.693 146.229 151.044 145.611 152.257C144.339 154.745 142.437 154.505 141.064 152.181C139.628 149.743 139.477 146.282 140.698 143.869C141.215 142.846 141.807 142.29 142.588 141.873L142.878 143.528C142.311 143.819 141.807 144.349 141.391 145.158C140.573 146.762 140.887 149.036 141.845 150.678C142.802 152.307 144.087 152.585 144.881 151.019C145.233 150.337 145.473 149.25 145.485 148.063L146.481 148.265H146.493Z" fill="white"/>
<path d="M145.31 137.376C144.529 138.905 144.995 141.191 145.889 142.719C146.796 144.273 148.069 144.955 148.85 143.427C149.631 141.898 149.177 139.612 148.27 138.058C147.376 136.53 146.091 135.835 145.31 137.376ZM149.039 136.542C150.374 138.816 150.827 142.037 149.53 144.576C148.258 147.065 146.456 146.497 145.121 144.223C143.798 141.962 143.345 138.702 144.617 136.201C145.914 133.662 147.703 134.281 149.039 136.542Z" fill="white"/>
</g>
<path d="M150.599 124.668L153.862 135.835L153.106 137.313L146.795 132.134L147.601 130.542L152.224 134.433L149.806 126.234L150.599 124.668Z" fill="white"/>
<path d="M156.696 130.277L155.953 131.717L151.166 123.556L151.909 122.104L156.696 130.277Z" fill="white"/>
<mask id="mask1_169_1209" style="mask-type:luminance" maskUnits="userSpaceOnUse" x="0" y="0" width="183" height="191">
<path d="M183 0H0V191H183V0Z" fill="white"/>
</mask>
<g mask="url(#mask1_169_1209)">
<path d="M155.286 117.796C154.505 119.324 154.971 121.611 155.866 123.139C156.773 124.693 158.045 125.375 158.826 123.834C159.607 122.306 159.154 120.019 158.247 118.465C157.352 116.937 156.067 116.242 155.286 117.783M159.015 116.962C160.35 119.236 160.804 122.457 159.506 124.996C158.234 127.485 156.433 126.916 155.097 124.643C153.775 122.381 153.321 119.122 154.594 116.621C155.891 114.082 157.68 114.701 159.015 116.962Z" fill="white"/>
</g>
<path d="M105.023 0L53.4629 95.1463L105.023 190.28L156.596 95.1463L105.023 0Z" fill="white"/>
<mask id="mask2_169_1209" style="mask-type:luminance" maskUnits="userSpaceOnUse" x="0" y="0" width="183" height="191">
<path d="M183 0H0V191H183V0Z" fill="white"/>
</mask>
<g mask="url(#mask2_169_1209)">
<path d="M108.097 153.204L110.226 156.83L111.284 154.758C111.876 153.608 111.838 152.017 111.208 150.956C110.578 149.882 109.734 149.97 109.155 151.12L108.097 153.192V153.204ZM108.273 149.781C109.457 147.457 111.108 147.027 112.229 148.947C113.375 150.905 113.262 153.937 112.09 156.236L111.057 158.257L113.173 161.87L112.153 163.879L106.232 153.785L108.273 149.794V149.781Z" fill="#3D3D3D"/>
</g>
<path d="M117.268 145.397L114.446 143.338L115.769 148.341L117.268 145.397ZM121.526 145.473L120.417 147.659L118.414 146.206L116.298 150.375L117.205 153.962L116.122 156.097L112.443 141.62L113.376 139.776L121.539 145.473H121.526Z" fill="#3D3D3D"/>
<mask id="mask3_169_1209" style="mask-type:luminance" maskUnits="userSpaceOnUse" x="0" y="0" width="183" height="191">
<path d="M183 0H0V191H183V0Z" fill="white"/>
</mask>
<g mask="url(#mask3_169_1209)">
<path d="M118.237 133.296L120.366 136.921L121.425 134.85C122.004 133.7 121.966 132.108 121.349 131.047C120.719 129.974 119.875 130.062 119.296 131.211L118.237 133.283V133.296ZM118.414 129.872C119.598 127.548 121.248 127.119 122.369 129.039C123.516 130.997 123.402 134.028 122.231 136.328L121.198 138.349L123.314 141.962L122.294 143.97L116.373 133.877L118.414 129.885V129.872Z" fill="#3D3D3D"/>
</g>
<path d="M131.39 126.121L127.409 133.94L121.488 123.847L125.393 116.166L126.237 117.594L123.34 123.266L124.94 125.982L127.674 120.6L128.518 122.028L125.771 127.409L127.598 130.504L130.546 124.693L131.39 126.121Z" fill="#3D3D3D"/>
<path d="M131.264 114.625C131.83 113.514 132.019 111.985 131.389 110.911C130.76 109.838 129.966 110.267 129.412 111.354L128.328 113.463L130.205 116.672L131.251 114.625H131.264ZM137.02 115.055L135.799 117.442L131.893 116.444L131.049 118.087L133.418 122.116L132.397 124.125L126.477 114.032L128.568 109.926C129.689 107.728 131.276 106.907 132.422 108.865C133.166 110.128 133.304 112.2 132.851 114.019L137.02 115.055Z" fill="#3D3D3D"/>
<g opacity="0.8">
<path d="M78.1903 0L129.751 95.1463L78.1903 190.28L26.6172 95.1463L78.1903 0Z" fill="#47A733"/>
</g>
<path d="M84.6531 151.145L86.3789 154.088L87.1473 152.585C87.5756 151.751 87.5 150.539 86.9962 149.68C86.4797 148.808 85.8372 148.808 85.4215 149.642L84.6531 151.145ZM84.7161 148.555C85.5727 146.875 86.8324 146.686 87.7394 148.24C88.6716 149.819 88.6464 152.13 87.8024 153.785L87.0591 155.251L88.7724 158.169L88.0291 159.621L83.2422 151.461L84.7161 148.568V148.555Z" fill="white"/>
<path d="M94.4419 147.014L91.7713 152.269L86.9844 144.109L87.715 142.656L91.8343 149.667L93.7617 145.865L94.4419 147.014Z" fill="white"/>
<path d="M95.3228 138.462L93.0931 136.669L94.2269 140.585L95.3102 138.45L95.3228 138.462ZM98.5981 138.854L97.7919 140.433L96.2172 139.17L94.6804 142.176L95.4614 144.993L94.6804 146.534L91.5059 135.203L92.1861 133.877L98.5981 138.867V138.854Z" fill="white"/>
<path d="M102.403 131.376L101.685 132.79L96.6583 130.592L99.9462 136.214L99.2156 137.654L94.416 129.493L95.1215 128.104L100.211 130.34L96.8851 124.668L97.6157 123.215L102.403 131.376Z" fill="white"/>
<path d="M102.176 116.747L100.916 119.223L105.023 126.234L104.279 127.687L100.173 120.676L98.9255 123.114L98.2578 121.965L101.495 115.598L102.176 116.747Z" fill="white"/>
<path d="M107.694 121.005L106.951 122.457L102.164 114.297L102.895 112.844L107.694 121.005Z" fill="white"/>
<mask id="mask4_169_1209" style="mask-type:luminance" maskUnits="userSpaceOnUse" x="0" y="0" width="183" height="191">
<path d="M183 0H0V191H183V0Z" fill="white"/>
</mask>
<g mask="url(#mask4_169_1209)">
<path d="M111.511 111.48C111.511 112.907 111.246 114.259 110.629 115.472C109.369 117.96 107.454 117.72 106.081 115.396C104.645 112.958 104.494 109.497 105.716 107.084C106.233 106.061 106.825 105.505 107.606 105.088L107.895 106.743C107.329 107.033 106.825 107.551 106.409 108.372C105.59 109.977 105.905 112.25 106.862 113.893C107.82 115.522 109.105 115.8 109.898 114.234C110.238 113.552 110.49 112.465 110.503 111.29L111.511 111.492V111.48Z" fill="white"/>
</g>
<path d="M114.735 99.3403L114.143 100.515L112.858 98.3297L113.211 100.225L112.82 100.995L111.787 100.502L113.047 102.663L112.455 103.825L109.935 99.5424L110.464 98.4939L112.341 99.4792L111.674 96.1317L112.215 95.0706L114.735 99.3529V99.3403ZM110.288 101.033L109.658 102.271L111.573 105.543L110.918 106.819L109.003 103.547L108.373 104.772L107.781 103.762L109.683 100.01L110.276 101.02L110.288 101.033Z" fill="white"/>
<path d="M51.5731 0L0 95.1463L51.5731 190.28L103.134 95.1463L51.5731 0Z" fill="white"/>
<mask id="mask5_169_1209" style="mask-type:luminance" maskUnits="userSpaceOnUse" x="0" y="0" width="183" height="191">
<path d="M183 0H0V191H183V0Z" fill="white"/>
</mask>
<g mask="url(#mask5_169_1209)">
<path d="M54.6339 153.204L56.7629 156.83L57.821 154.758C58.4005 153.608 58.3627 152.017 57.7454 150.956C57.1156 149.882 56.2716 149.97 55.6921 151.12L54.6339 153.192V153.204ZM54.8103 149.781C55.9944 147.457 57.6447 147.027 58.7658 148.947C59.9122 150.905 59.7988 153.937 58.6272 156.236L57.5943 158.257L59.7106 161.87L58.6902 163.879L52.7695 153.785L54.8103 149.794V149.781Z" fill="#3D3D3D"/>
</g>
<path d="M63.8052 145.397L60.9834 143.338L62.3061 148.341L63.8052 145.397ZM68.0631 145.473L66.9545 147.659L64.9516 146.206L62.8352 150.375L63.7422 153.962L62.6589 156.097L58.9805 141.62L59.9127 139.776L68.0757 145.473H68.0631Z" fill="#3D3D3D"/>
<path d="M64.7745 133.296L66.9035 136.921L67.9616 134.85C68.5411 133.7 68.5033 132.108 67.8861 131.047C67.2562 129.974 66.4122 130.062 65.8327 131.211L64.7745 133.283V133.296ZM64.9509 129.872C66.1351 127.548 67.7853 127.119 68.9064 129.039C70.0528 130.997 69.9394 134.028 68.7679 136.328L67.7349 138.349L69.8512 141.962L68.8309 143.97L62.9102 133.877L64.9509 129.885V129.872Z" fill="#3D3D3D"/>
<path d="M77.9268 126.121L73.9461 133.94L68.0254 123.847L71.9431 116.166L72.7745 117.594L69.8772 123.266L71.477 125.982L74.2232 120.6L75.0546 122.028L72.3085 127.409L74.135 130.504L77.0954 124.693L77.9268 126.121Z" fill="#3D3D3D"/>
<path d="M77.8006 114.625C78.3675 113.514 78.5565 111.985 77.9266 110.911C77.2967 109.838 76.5031 110.267 75.9488 111.354L74.8655 113.463L76.7425 116.672L77.788 114.625H77.8006ZM83.5576 115.055L82.3356 117.442L78.4305 116.444L77.5865 118.087L79.9547 122.116L78.9344 124.125L73.0137 114.032L75.1048 109.926C76.226 107.728 77.8132 106.907 78.9596 108.865C79.7028 110.128 79.8414 112.2 79.3879 114.019L83.5576 115.055Z" fill="#3D3D3D"/>
</g>
<defs>
<clipPath id="clip0_169_1209">
<rect width="183" height="191" fill="white"/>
</clipPath>
</defs>
</svg>
