<svg width="143" height="143" viewBox="0 0 143 143" fill="none" xmlns="http://www.w3.org/2000/svg">
<g clip-path="url(#clip0_164_301)">
<path d="M71.32 142.63C110.71 142.63 142.64 110.7 142.64 71.31C142.64 31.92 110.7 0 71.32 0C31.94 0 0 31.93 0 71.32C0 110.71 31.93 142.64 71.32 142.64" fill="white"/>
<path d="M57.8995 47.64C54.9795 43.73 50.2695 41.15 45.0195 41.15C39.7695 41.15 35.0995 43.69 32.1795 47.6H32.1495V47.64C30.1695 50.31 28.9895 53.61 28.9895 57.18C28.9895 66.02 36.1795 73.21 45.0195 73.21C53.8595 73.21 61.0495 66.02 61.0495 57.18C61.0495 53.61 59.8795 50.31 57.8895 47.64M29.9995 57.67H36.3895C36.4895 60.51 37.3895 63.14 38.5795 65.38H32.4295C30.9695 63.15 30.0895 60.51 29.9995 57.67ZM45.5195 47.6V42.97C46.4695 43.91 47.9395 45.53 49.2895 47.6H45.5195ZM49.8995 48.59C51.2595 50.9 52.3595 53.68 52.4695 56.69H45.5095V48.59H49.8895H49.8995ZM44.5295 42.77V47.6H40.5595C42.0095 45.38 43.5995 43.69 44.5295 42.77ZM44.5295 48.59V56.69H37.3795C37.4895 53.68 38.5995 50.9 39.9595 48.59H44.5395H44.5295ZM36.3895 56.68H29.9995C30.0995 53.68 31.0795 50.89 32.6895 48.58H38.7895C37.4995 50.91 36.4895 53.67 36.3895 56.68ZM37.3795 57.67H44.5295V65.38H39.7295C38.4795 63.15 37.4795 60.51 37.3795 57.67ZM44.5295 66.37V71.58C43.5395 70.62 41.8195 68.78 40.3095 66.37H44.5295ZM45.5195 71.39V66.37H49.5395C48.1295 68.63 46.5295 70.38 45.5195 71.39ZM45.5195 65.38V57.67H52.4795C52.3695 60.51 51.3795 63.15 50.1295 65.38H45.5195ZM53.4695 57.67H60.0595C59.9695 60.51 59.0895 63.15 57.6295 65.38H51.2895C52.4795 63.14 53.3795 60.51 53.4795 57.67M53.4695 56.68C53.3695 53.67 52.3595 50.91 51.0695 48.58H57.3595C58.9795 50.89 59.9595 53.68 60.0595 56.68H53.4695ZM56.6095 47.6H50.4895C48.9595 45.13 47.2195 43.23 46.1395 42.19C50.3395 42.5 54.0695 44.54 56.6095 47.6ZM43.6895 42.2C42.6195 43.25 40.8795 45.14 39.3595 47.6H33.4395C35.9395 44.59 39.5795 42.56 43.6895 42.2ZM33.1295 66.37H39.1295C40.6995 69.02 42.5595 71.05 43.6995 72.16C39.4095 71.78 35.6295 69.6 33.1295 66.37ZM46.1395 72.18C47.2695 71.08 49.1495 69.04 50.7195 66.38H56.9195C54.3795 69.66 50.5195 71.86 46.1395 72.18ZM29.6095 83.65H32.1395L33.0495 88.47L34.3795 83.65H36.8995L38.2295 88.46L39.1395 83.65H41.6495L39.7495 92.26H37.1395L35.6295 86.84L34.1295 92.26H31.5195L29.5995 83.65H29.6095ZM42.5095 83.65V92.26H45.1795V89.06H46.6395C47.7095 89.06 48.5095 88.82 49.0295 88.33C49.5495 87.84 49.8095 87.16 49.8095 86.29C49.8095 85.42 49.5695 84.79 49.0895 84.33C48.6095 83.87 47.8895 83.64 46.9295 83.64H42.5095V83.65ZM45.1795 85.4H45.9395C46.4395 85.4 46.7795 85.49 46.9595 85.68C47.1395 85.87 47.2295 86.1 47.2295 86.37C47.2295 86.65 47.1295 86.88 46.9195 87.06C46.7095 87.24 46.3495 87.33 45.8395 87.33H45.1895V85.41L45.1795 85.4ZM50.8695 87.96C50.8695 88.97 51.0695 89.81 51.4595 90.47C51.8495 91.14 52.3695 91.63 53.0095 91.94C53.6495 92.25 54.4495 92.4 55.4195 92.4C56.3895 92.4 57.1695 92.22 57.8095 91.86C58.4495 91.5 58.9395 91 59.2795 90.36C59.6195 89.72 59.7895 88.89 59.7895 87.89C59.7895 86.51 59.3995 85.43 58.6295 84.66C57.8595 83.89 56.7495 83.51 55.3195 83.51C53.8895 83.51 52.8295 83.9 52.0495 84.68C51.2695 85.46 50.8795 86.56 50.8795 87.96M54.0195 86.08C54.3495 85.7 54.7795 85.51 55.3095 85.51C55.8395 85.51 56.3095 85.7 56.6395 86.07C56.9695 86.44 57.1295 87.03 57.1295 87.85C57.1295 88.81 56.9695 89.48 56.6595 89.85C56.3495 90.22 55.8995 90.41 55.3295 90.41C54.7595 90.41 54.3295 90.22 54.0095 89.84C53.6895 89.46 53.5295 88.84 53.5295 87.97C53.5295 87.1 53.6895 86.46 54.0195 86.09M60.8895 41.16C56.9995 37.28 52.4795 34.83 45.2095 34.4C44.7795 35.71 45.1295 37.8 45.0195 39.43C55.2095 39.93 61.8395 46.52 62.6395 55.08C63.5695 65.06 56.8395 73.21 47.5295 74.59C36.1995 76.28 27.2595 67.04 27.1995 57.01C27.1295 45.25 34.1895 39.07 43.8495 35.95C43.2695 34.4 43.5095 32.04 42.1095 31.31C30.7595 35.11 21.4495 43.61 22.3595 58.17C22.7695 64.77 25.7495 69.83 29.5195 73.63C33.0495 77.18 39.4295 80.11 46.3695 79.62C52.8395 79.16 57.6695 76.24 61.2795 72.47C64.8195 68.76 67.6895 64.29 67.6695 56.81C67.6595 49.76 64.5595 44.82 60.8895 41.16ZM33.8795 95.95H35.0295L35.4395 98.14L36.0495 95.95H37.1895L37.7995 98.14L38.2195 95.95H39.3595L38.4995 99.87H37.3095L36.6195 97.4L35.9395 99.87H34.7595L33.8895 95.95H33.8795ZM40.7095 97.92C40.7095 98.32 40.7795 98.6 40.9295 98.77C41.0795 98.94 41.2795 99.03 41.5295 99.03C41.7795 99.03 41.9895 98.94 42.1295 98.78C42.2695 98.61 42.3395 98.31 42.3395 97.87C42.3395 97.5 42.2595 97.23 42.1195 97.06C41.9695 96.89 41.7695 96.81 41.5195 96.81C41.2695 96.81 41.0795 96.9 40.9295 97.07C40.7795 97.24 40.7095 97.53 40.7095 97.92ZM39.4995 97.91C39.4995 97.27 39.6795 96.77 40.0395 96.41C40.3995 96.06 40.8895 95.88 41.5295 95.88C42.1695 95.88 42.6795 96.06 43.0395 96.41C43.3895 96.76 43.5695 97.25 43.5695 97.88C43.5695 98.34 43.4895 98.71 43.3395 99.01C43.1895 99.3 42.9595 99.53 42.6695 99.69C42.3795 99.85 42.0095 99.93 41.5795 99.93C41.1495 99.93 40.7695 99.86 40.4795 99.72C40.1895 99.58 39.9595 99.36 39.7795 99.05C39.5995 98.74 39.5095 98.37 39.5095 97.91M45.4495 97.54H45.9495C46.0095 97.54 46.1095 97.52 46.2695 97.49C46.3495 97.47 46.4095 97.43 46.4595 97.37C46.5095 97.31 46.5395 97.22 46.5395 97.14C46.5395 97.01 46.4995 96.91 46.4195 96.85C46.3395 96.78 46.1895 96.75 45.9695 96.75H45.4495V97.55V97.54ZM44.2295 99.87V95.95H46.2395C46.6095 95.95 46.8995 95.98 47.0995 96.05C47.2995 96.12 47.4595 96.24 47.5795 96.41C47.6995 96.58 47.7595 96.8 47.7595 97.04C47.7595 97.26 47.7095 97.45 47.6195 97.6C47.5295 97.76 47.3995 97.89 47.2395 97.98C47.1395 98.04 46.9995 98.09 46.8195 98.14C46.9595 98.19 47.0695 98.24 47.1295 98.29C47.1795 98.32 47.2395 98.39 47.3195 98.5C47.4095 98.6 47.4595 98.69 47.4895 98.74L48.0795 99.87H46.7095L46.0695 98.68C45.9895 98.52 45.9195 98.42 45.8495 98.38C45.7595 98.32 45.6595 98.29 45.5495 98.29H45.4395V99.88H44.2195L44.2295 99.87ZM48.4595 95.95H49.6695V98.91H51.5595V99.87H48.4595V95.95ZM53.3495 96.84V98.98H53.6395C53.8895 98.98 54.0695 98.95 54.1795 98.9C54.2895 98.84 54.3695 98.74 54.4295 98.61C54.4895 98.47 54.5195 98.24 54.5195 97.93C54.5195 97.51 54.4495 97.23 54.3195 97.08C54.1895 96.93 53.9595 96.85 53.6495 96.85H53.3495V96.84ZM52.1295 95.95H53.9295C54.2795 95.95 54.5695 96 54.7895 96.1C55.0095 96.2 55.1895 96.33 55.3295 96.52C55.4695 96.7 55.5795 96.91 55.6395 97.15C55.7095 97.39 55.7395 97.64 55.7395 97.91C55.7395 98.33 55.6895 98.65 55.5995 98.88C55.5095 99.11 55.3695 99.31 55.1995 99.46C55.0295 99.62 54.8495 99.72 54.6495 99.77C54.3895 99.84 54.1495 99.88 53.9295 99.88H52.1295V95.96V95.95ZM28.1795 103.32H28.4695C28.6995 103.32 28.8695 103.28 28.9595 103.2C29.0595 103.12 29.0995 103.02 29.0995 102.89C29.0995 102.76 29.0595 102.66 28.9795 102.57C28.8995 102.49 28.7395 102.44 28.5195 102.44H28.1795V103.32ZM26.9595 101.65H28.9695C29.4095 101.65 29.7395 101.76 29.9495 101.96C30.1695 102.17 30.2795 102.47 30.2795 102.85C30.2795 103.23 30.1595 103.56 29.9195 103.78C29.6795 104 29.3195 104.12 28.8395 104.12H28.1795V105.57H26.9595V101.65ZM32.5995 104.07L32.1695 102.66L31.7395 104.07H32.5995ZM32.8595 104.92H31.4895L31.2895 105.57H30.0595L31.5295 101.65H32.8595L34.3295 105.57H33.0595L32.8595 104.92ZM37.2095 103.96L38.2695 104.28C38.1995 104.58 38.0895 104.83 37.9295 105.02C37.7795 105.22 37.5895 105.37 37.3595 105.47C37.1295 105.57 36.8395 105.62 36.4895 105.62C36.0595 105.62 35.7195 105.56 35.4495 105.43C35.1795 105.3 34.9495 105.09 34.7495 104.78C34.5495 104.47 34.4495 104.07 34.4495 103.58C34.4495 102.94 34.6195 102.44 34.9695 102.09C35.3195 101.74 35.7995 101.57 36.4295 101.57C36.9195 101.57 37.3095 101.67 37.5895 101.87C37.8695 102.07 38.0795 102.37 38.2195 102.79L37.1495 103.03C37.1095 102.91 37.0695 102.82 37.0295 102.77C36.9595 102.68 36.8795 102.6 36.7795 102.56C36.6795 102.51 36.5695 102.49 36.4495 102.49C36.1795 102.49 35.9595 102.6 35.8195 102.82C35.7095 102.98 35.6495 103.24 35.6495 103.59C35.6495 104.02 35.7195 104.32 35.8495 104.48C35.9795 104.64 36.1695 104.72 36.4095 104.72C36.6495 104.72 36.8195 104.66 36.9395 104.53C37.0595 104.4 37.1495 104.21 37.1995 103.97M38.8595 101.65H40.0695V103.13L41.3395 101.65H42.9495L41.5195 103.12L43.0095 105.56H41.5195L40.6995 103.95L40.0695 104.61V105.56H38.8595V101.64V101.65ZM45.5695 104.07L45.1395 102.66L44.7095 104.07H45.5695ZM45.8195 104.92H44.4495L44.2495 105.57H43.0195L44.4895 101.65H45.8195L47.2895 105.57H46.0195L45.8195 104.92ZM49.5295 104.15V103.34H51.4095V105.01C51.0495 105.25 50.7295 105.42 50.4595 105.51C50.1795 105.6 49.8595 105.64 49.4795 105.64C49.0095 105.64 48.6295 105.56 48.3395 105.4C48.0495 105.24 47.8195 105.01 47.6595 104.69C47.4995 104.37 47.4195 104.02 47.4195 103.61C47.4195 103.18 47.5095 102.81 47.6895 102.5C47.8695 102.18 48.1295 101.94 48.4695 101.78C48.7395 101.65 49.0895 101.59 49.5395 101.59C49.9895 101.59 50.2995 101.63 50.5095 101.71C50.7195 101.79 50.8995 101.91 51.0395 102.07C51.1795 102.24 51.2895 102.44 51.3595 102.7L50.1895 102.91C50.1395 102.76 50.0595 102.65 49.9395 102.57C49.8195 102.49 49.6795 102.45 49.4995 102.45C49.2295 102.45 49.0195 102.54 48.8595 102.73C48.6995 102.92 48.6195 103.2 48.6195 103.6C48.6195 104.02 48.6995 104.33 48.8595 104.51C49.0195 104.69 49.2395 104.78 49.5295 104.78C49.6695 104.78 49.7995 104.76 49.9195 104.72C50.0395 104.68 50.1795 104.61 50.3395 104.52V104.15H49.5295ZM52.1795 101.65H53.3895V105.57H52.1795V101.65ZM54.2595 101.65H55.3895L56.8595 103.82V101.65H57.9995V105.57H56.8595L55.3895 103.41V105.57H54.2495V101.65H54.2595ZM60.7795 104.15V103.34H62.6495V105.01C62.2895 105.25 61.9795 105.42 61.6995 105.51C61.4195 105.6 61.0995 105.64 60.7195 105.64C60.2595 105.64 59.8795 105.56 59.5895 105.4C59.2995 105.24 59.0695 105.01 58.9095 104.69C58.7495 104.37 58.6695 104.02 58.6695 103.61C58.6695 103.18 58.7595 102.81 58.9395 102.5C59.1195 102.18 59.3695 101.94 59.7095 101.78C59.9795 101.65 60.3295 101.59 60.7795 101.59C61.2295 101.59 61.5395 101.63 61.7495 101.71C61.9595 101.79 62.1395 101.91 62.2895 102.07C62.4295 102.24 62.5395 102.44 62.6095 102.7L61.4395 102.91C61.3895 102.76 61.3095 102.65 61.1895 102.57C61.0695 102.49 60.9295 102.45 60.7495 102.45C60.4795 102.45 60.2695 102.54 60.1095 102.73C59.9495 102.92 59.8695 103.2 59.8695 103.6C59.8695 104.02 59.9495 104.33 60.1095 104.51C60.2695 104.69 60.4895 104.78 60.7795 104.78C60.9095 104.78 61.0495 104.76 61.1695 104.72C61.2895 104.68 61.4295 104.61 61.5895 104.52V104.15H60.7795ZM22.7295 109.32C22.7295 109.72 22.7995 110 22.9495 110.17C23.0995 110.34 23.2995 110.43 23.5495 110.43C23.7995 110.43 24.0095 110.34 24.1495 110.17C24.2895 110 24.3595 109.7 24.3595 109.26C24.3595 108.89 24.2895 108.62 24.1395 108.45C23.9895 108.28 23.7895 108.19 23.5295 108.19C23.2695 108.19 23.0895 108.28 22.9395 108.45C22.7895 108.62 22.7195 108.91 22.7195 109.31M21.5195 109.31C21.5195 108.67 21.6995 108.17 22.0495 107.82C22.4095 107.46 22.8995 107.29 23.5395 107.29C24.1795 107.29 24.6895 107.47 25.0495 107.81C25.3995 108.16 25.5795 108.65 25.5795 109.28C25.5795 109.74 25.4995 110.11 25.3495 110.41C25.1895 110.7 24.9695 110.93 24.6795 111.09C24.3895 111.25 24.0295 111.33 23.5895 111.33C23.1495 111.33 22.7795 111.26 22.4895 111.12C22.1995 110.98 21.9695 110.76 21.7895 110.45C21.6095 110.14 21.5195 109.77 21.5195 109.31ZM27.4595 108.94H27.9695C28.0195 108.94 28.1295 108.92 28.2895 108.89C28.3695 108.87 28.4395 108.83 28.4795 108.77C28.5295 108.7 28.5595 108.63 28.5595 108.54C28.5595 108.41 28.5195 108.32 28.4395 108.25C28.3595 108.18 28.2095 108.15 27.9895 108.15H27.4595V108.95V108.94ZM26.2395 111.27V107.35H28.2495C28.6195 107.35 28.9095 107.38 29.1095 107.45C29.3095 107.51 29.4695 107.63 29.5895 107.81C29.7095 107.98 29.7695 108.2 29.7695 108.45C29.7695 108.67 29.7195 108.86 29.6295 109.01C29.5395 109.17 29.4095 109.3 29.2495 109.39C29.1395 109.45 28.9995 109.51 28.8295 109.55C28.9695 109.6 29.0795 109.65 29.1395 109.7C29.1895 109.73 29.2495 109.8 29.3395 109.91C29.4295 110.02 29.4795 110.1 29.5095 110.15L30.0895 111.28H28.7195L28.0795 110.08C27.9995 109.92 27.9295 109.82 27.8595 109.78C27.7695 109.72 27.6695 109.69 27.5695 109.69H27.4595V111.28H26.2395V111.27ZM32.3395 109.85V109.04H34.2095V110.71C33.8495 110.95 33.5395 111.12 33.2595 111.2C32.9795 111.29 32.6595 111.33 32.2795 111.33C31.8195 111.33 31.4395 111.25 31.1495 111.09C30.8595 110.93 30.6295 110.7 30.4695 110.38C30.3095 110.07 30.2295 109.71 30.2295 109.3C30.2295 108.87 30.3195 108.5 30.4895 108.19C30.6695 107.87 30.9295 107.63 31.2695 107.47C31.5395 107.34 31.8995 107.28 32.3395 107.28C32.7795 107.28 33.0995 107.32 33.3095 107.4C33.5295 107.48 33.6995 107.6 33.8395 107.77C33.9795 107.94 34.0895 108.14 34.1595 108.4L32.9895 108.61C32.9395 108.46 32.8595 108.35 32.7395 108.27C32.6195 108.19 32.4795 108.15 32.2995 108.15C32.0295 108.15 31.8195 108.24 31.6595 108.43C31.4995 108.62 31.4195 108.91 31.4195 109.31C31.4195 109.73 31.4995 110.03 31.6595 110.22C31.8195 110.4 32.0395 110.49 32.3295 110.49C32.4695 110.49 32.5995 110.47 32.7195 110.43C32.8395 110.39 32.9795 110.32 33.1395 110.23V109.86H32.3295L32.3395 109.85ZM37.0895 109.77L36.6595 108.36L36.2295 109.77H37.0795H37.0895ZM37.3495 110.62H35.9795L35.7795 111.27H34.5395L36.0095 107.35H37.3395L38.8095 111.27H37.5395L37.3395 110.62H37.3495ZM39.1995 107.35H40.3295L41.7995 109.52V107.35H42.9395V111.27H41.7995L40.3295 109.11V111.27H39.1895V107.35H39.1995ZM43.7995 107.35H45.0095V111.27H43.7995V107.35ZM45.6595 109.97L46.8095 109.9C46.8395 110.09 46.8895 110.23 46.9595 110.33C47.0795 110.49 47.2595 110.57 47.4995 110.57C47.6695 110.57 47.8095 110.53 47.8995 110.45C47.9995 110.37 48.0395 110.28 48.0395 110.17C48.0395 110.07 47.9895 109.98 47.9095 109.9C47.8195 109.82 47.6095 109.75 47.2895 109.67C46.7595 109.55 46.3795 109.39 46.1495 109.2C45.9195 109 45.8095 108.75 45.8095 108.44C45.8095 108.24 45.8695 108.05 45.9795 107.87C46.0995 107.69 46.2695 107.55 46.5095 107.45C46.7395 107.35 47.0695 107.3 47.4695 107.3C47.9695 107.3 48.3595 107.39 48.6195 107.58C48.8795 107.77 49.0395 108.06 49.0895 108.47L47.9495 108.54C47.9195 108.36 47.8595 108.23 47.7595 108.15C47.6595 108.07 47.5295 108.03 47.3495 108.03C47.2095 108.03 47.0995 108.06 47.0295 108.12C46.9595 108.18 46.9195 108.25 46.9195 108.34C46.9195 108.4 46.9495 108.46 47.0095 108.51C47.0695 108.56 47.1995 108.61 47.4195 108.66C47.9495 108.77 48.3295 108.89 48.5595 109.01C48.7895 109.13 48.9595 109.27 49.0595 109.44C49.1595 109.61 49.2195 109.81 49.2195 110.02C49.2195 110.27 49.1495 110.5 49.0095 110.71C48.8695 110.92 48.6795 111.08 48.4295 111.19C48.1795 111.3 47.8595 111.35 47.4795 111.35C46.8095 111.35 46.3495 111.22 46.0895 110.97C45.8295 110.71 45.6895 110.39 45.6495 109.99M51.9795 109.77L51.5495 108.36L51.1195 109.77H51.9795ZM52.2395 110.62H50.8695L50.6695 111.27H49.4295L50.8995 107.35H52.2295L53.6995 111.27H52.4295L52.2295 110.62H52.2395ZM53.4295 107.35H57.1095V108.32H55.8795V111.27H54.6695V108.32H53.4395V107.35H53.4295ZM57.6995 107.35H58.9095V111.27H57.6995V107.35ZM60.8395 109.32C60.8395 109.72 60.9095 110 61.0595 110.17C61.2095 110.34 61.4095 110.43 61.6595 110.43C61.9095 110.43 62.1195 110.34 62.2595 110.17C62.4095 110 62.4795 109.7 62.4795 109.26C62.4795 108.89 62.3995 108.62 62.2495 108.45C62.0995 108.28 61.8995 108.19 61.6395 108.19C61.3795 108.19 61.1995 108.28 61.0495 108.45C60.8995 108.62 60.8295 108.91 60.8295 109.31M59.6295 109.31C59.6295 108.67 59.8095 108.17 60.1595 107.82C60.5195 107.46 61.0095 107.29 61.6495 107.29C62.2895 107.29 62.7995 107.47 63.1595 107.81C63.5095 108.16 63.6895 108.65 63.6895 109.28C63.6895 109.74 63.6095 110.11 63.4595 110.41C63.2995 110.7 63.0795 110.93 62.7895 111.09C62.4995 111.25 62.1395 111.33 61.6995 111.33C61.2595 111.33 60.8895 111.26 60.5995 111.12C60.3095 110.98 60.0795 110.76 59.8995 110.45C59.7195 110.14 59.6295 109.77 59.6295 109.31ZM64.3495 107.35H65.4795L66.9595 109.52V107.35H68.0995V111.27H66.9595L65.4895 109.11V111.27H64.3495V107.35Z" fill="#3E3A39"/>
<path d="M118.551 53.18L117.891 53.3L117.641 51.88L118.991 51.64C119.241 51.88 119.411 52.1 119.521 52.29C119.631 52.49 119.711 52.73 119.761 53.02C119.821 53.37 119.811 53.67 119.721 53.92C119.631 54.17 119.471 54.37 119.241 54.54C119.011 54.71 118.731 54.82 118.401 54.88C118.061 54.94 117.741 54.93 117.461 54.84C117.181 54.75 116.951 54.59 116.771 54.35C116.631 54.16 116.531 53.9 116.471 53.56C116.411 53.23 116.401 52.98 116.431 52.8C116.471 52.62 116.541 52.47 116.651 52.34C116.761 52.21 116.921 52.1 117.111 52.01L117.441 52.87C117.331 52.93 117.251 53.01 117.201 53.11C117.151 53.21 117.141 53.33 117.161 53.46C117.201 53.66 117.301 53.81 117.471 53.9C117.641 53.99 117.891 54.01 118.211 53.96C118.551 53.9 118.791 53.79 118.911 53.65C119.041 53.5 119.081 53.32 119.041 53.1C119.021 53 118.991 52.9 118.941 52.81C118.891 52.72 118.821 52.62 118.721 52.52L118.421 52.57L118.531 53.19L118.551 53.18ZM116.801 58.75L116.821 57.88L118.621 56.78L116.841 56.74L116.861 55.86L120.071 55.93L120.051 56.81L118.261 57.91L120.031 57.95L120.011 58.83L116.801 58.76V58.75ZM116.491 60.59L116.641 59.66L119.821 60.19L119.661 61.12L116.491 60.59ZM117.881 63.44L117.241 63.24L117.671 61.86L118.981 62.27C119.091 62.6 119.151 62.87 119.151 63.09C119.151 63.32 119.111 63.57 119.031 63.85C118.921 64.19 118.771 64.45 118.581 64.63C118.391 64.81 118.151 64.92 117.871 64.96C117.591 65 117.291 64.97 116.971 64.87C116.631 64.76 116.361 64.61 116.161 64.4C115.951 64.19 115.821 63.94 115.771 63.65C115.731 63.42 115.771 63.14 115.871 62.81C115.971 62.49 116.081 62.26 116.191 62.12C116.301 61.98 116.441 61.88 116.601 61.81C116.761 61.75 116.951 61.72 117.171 61.73L117.061 62.64C116.931 62.64 116.831 62.67 116.741 62.74C116.651 62.81 116.591 62.9 116.551 63.04C116.491 63.24 116.511 63.41 116.621 63.58C116.731 63.74 116.941 63.87 117.251 63.97C117.581 64.07 117.841 64.09 118.021 64.02C118.201 63.95 118.321 63.8 118.391 63.59C118.421 63.49 118.441 63.39 118.441 63.29C118.441 63.19 118.421 63.07 118.381 62.93L118.091 62.84L117.901 63.44H117.881ZM116.471 66.78L115.291 66.54L116.161 67.37L116.471 66.78ZM117.181 66.93L116.691 67.87L117.091 68.25L116.651 69.1L114.321 66.61L114.791 65.7L118.171 66.17L117.721 67.04L117.181 66.93ZM111.711 70.34L112.291 69.6L113.251 70.35L112.891 68.83L113.661 67.85L113.941 69.47L116.231 69.79L115.521 70.7L114.081 70.39L114.211 71.1L114.831 71.58L114.251 72.32L111.711 70.34ZM111.891 72.8L112.681 72.46C112.801 72.68 112.871 72.89 112.891 73.09C112.911 73.29 112.881 73.48 112.801 73.66C112.721 73.84 112.581 74.02 112.371 74.2C112.121 74.42 111.881 74.55 111.661 74.61C111.441 74.67 111.181 74.65 110.901 74.56C110.621 74.46 110.351 74.27 110.081 73.97C109.731 73.57 109.561 73.17 109.581 72.78C109.591 72.39 109.791 72.03 110.151 71.72C110.441 71.47 110.721 71.33 110.991 71.31C111.261 71.29 111.551 71.37 111.851 71.56L111.351 72.25C111.261 72.19 111.191 72.16 111.141 72.15C111.051 72.13 110.961 72.12 110.881 72.15C110.791 72.17 110.721 72.21 110.651 72.27C110.491 72.41 110.431 72.58 110.461 72.8C110.481 72.96 110.591 73.14 110.781 73.36C111.011 73.63 111.211 73.78 111.381 73.81C111.551 73.84 111.701 73.8 111.831 73.68C111.971 73.56 112.031 73.43 112.031 73.29C112.031 73.15 111.981 72.99 111.871 72.81M108.641 75.35L107.771 74.51L108.061 75.68L108.641 75.35ZM109.151 75.86L108.231 76.39L108.371 76.92L107.541 77.4L106.931 74.04L107.821 73.53L110.411 75.75L109.561 76.24L109.161 75.85L109.151 75.86ZM105.011 76.37L105.231 76.29C105.401 76.23 105.511 76.15 105.551 76.06C105.601 75.97 105.601 75.88 105.571 75.78C105.531 75.68 105.471 75.62 105.391 75.57C105.311 75.52 105.181 75.53 105.021 75.6L104.771 75.69L105.021 76.36L105.011 76.37ZM103.651 75.41L105.111 74.87C105.431 74.75 105.701 74.75 105.911 74.85C106.131 74.95 106.291 75.15 106.401 75.45C106.511 75.75 106.521 76.02 106.401 76.26C106.291 76.5 106.061 76.68 105.701 76.81L105.221 76.99L105.631 78.11L104.751 78.44L103.631 75.42L103.651 75.41ZM97.8407 77.36H98.2407C98.2407 77.36 98.3707 77.36 98.4907 77.33C98.5507 77.32 98.6007 77.29 98.6407 77.23C98.6807 77.18 98.7007 77.11 98.7007 77.04C98.7007 76.94 98.6707 76.85 98.6107 76.8C98.5507 76.74 98.4307 76.71 98.2607 76.71H97.8507L97.8407 77.35V77.36ZM96.8607 79.25L96.9207 76.03L98.4807 76.06C98.7707 76.06 98.9907 76.1 99.1407 76.15C99.2907 76.21 99.4107 76.31 99.5007 76.45C99.5907 76.59 99.6407 76.77 99.6307 76.97C99.6307 77.15 99.5907 77.3 99.5107 77.43C99.4407 77.56 99.3307 77.66 99.2107 77.74C99.1307 77.79 99.0207 77.83 98.8807 77.86C98.9907 77.9 99.0707 77.94 99.1207 77.98C99.1507 78.01 99.2007 78.07 99.2707 78.15C99.3407 78.24 99.3807 78.31 99.4007 78.35L99.8407 79.29L98.7807 79.27L98.3007 78.28C98.2407 78.15 98.1807 78.07 98.1307 78.03C98.0607 77.98 97.9907 77.95 97.9007 77.95H97.8207L97.7907 79.25L96.8507 79.23L96.8607 79.25ZM93.7107 77.14C93.6507 77.46 93.6607 77.7 93.7507 77.86C93.8407 78.02 93.9707 78.12 94.1707 78.16C94.3707 78.2 94.5307 78.16 94.6707 78.04C94.8007 77.92 94.9107 77.69 94.9707 77.34C95.0307 77.04 95.0107 76.81 94.9207 76.66C94.8307 76.5 94.6907 76.4 94.5007 76.37C94.3207 76.33 94.1507 76.37 94.0107 76.49C93.8707 76.61 93.7707 76.83 93.7107 77.15M92.8007 76.96C92.9007 76.44 93.1107 76.07 93.4407 75.83C93.7707 75.59 94.1707 75.52 94.6507 75.62C95.1507 75.72 95.5007 75.93 95.7207 76.26C95.9307 76.59 95.9907 77.01 95.8907 77.52C95.8207 77.89 95.7007 78.18 95.5407 78.39C95.3807 78.6 95.1707 78.76 94.9307 78.84C94.6807 78.93 94.3907 78.94 94.0607 78.88C93.7207 78.82 93.4607 78.71 93.2607 78.55C93.0607 78.39 92.9207 78.18 92.8307 77.91C92.7407 77.64 92.7307 77.32 92.8007 76.95M90.4407 74.43L92.6107 75.23L92.3707 75.88L91.0807 75.41L90.8907 75.94L91.9907 76.34L91.7707 76.95L90.6707 76.55L90.2207 77.78L89.3407 77.46L90.4507 74.44L90.4407 74.43ZM84.7207 72.18L85.0107 72.45C85.0107 72.45 85.1107 72.52 85.2207 72.58C85.2807 72.61 85.3407 72.62 85.4007 72.61C85.4707 72.6 85.5207 72.56 85.5707 72.51C85.6407 72.43 85.6707 72.35 85.6607 72.27C85.6507 72.19 85.5807 72.09 85.4607 71.97L85.1507 71.69L84.7107 72.18H84.7207ZM82.7407 72.97L84.8907 70.58L86.0507 71.63C86.2707 71.82 86.4107 71.99 86.4907 72.13C86.5707 72.27 86.6007 72.43 86.5707 72.6C86.5507 72.77 86.4607 72.93 86.3307 73.08C86.2107 73.21 86.0807 73.3 85.9407 73.35C85.8007 73.4 85.6607 73.41 85.5107 73.39C85.4207 73.37 85.3107 73.33 85.1807 73.26C85.2407 73.37 85.2707 73.45 85.2807 73.51C85.2807 73.55 85.2807 73.63 85.2807 73.74C85.2807 73.85 85.2607 73.93 85.2407 73.98L84.9507 74.97L84.1707 74.26L84.4607 73.19C84.5007 73.05 84.5107 72.95 84.5007 72.89C84.4807 72.81 84.4407 72.74 84.3807 72.68L84.3207 72.62L83.4407 73.59L82.7407 72.96V72.97ZM82.1507 70.33L82.8907 69.38L81.7607 69.79L82.1507 70.33ZM81.7007 70.9L81.0707 70.04L80.5507 70.23L79.9907 69.46L83.2607 68.49L83.8607 69.32L81.9307 72.13L81.3507 71.34L81.6907 70.91L81.7007 70.9ZM81.3207 64.95L82.5907 67.5L81.8807 67.85L81.4607 66.99L79.2907 68.07L78.8707 67.23L81.0407 66.16L80.6207 65.3L81.3307 64.95H81.3207ZM78.2807 62.49L78.6007 63.32C78.4607 63.38 78.3607 63.46 78.3007 63.54C78.2007 63.67 78.1807 63.82 78.2307 63.99C78.2707 64.12 78.3307 64.21 78.4207 64.26C78.5107 64.31 78.5907 64.32 78.6807 64.3C78.7607 64.28 78.8207 64.22 78.8607 64.13C78.9007 64.05 78.9207 63.87 78.9007 63.62C78.8707 63.2 78.9107 62.88 79.0107 62.66C79.1207 62.44 79.2907 62.3 79.5307 62.22C79.6907 62.17 79.8507 62.17 80.0207 62.22C80.1907 62.26 80.3407 62.36 80.4707 62.51C80.6107 62.66 80.7207 62.88 80.8107 63.19C80.9207 63.56 80.9407 63.87 80.8507 64.1C80.7607 64.34 80.5707 64.53 80.2607 64.66L79.9507 63.83C80.0807 63.76 80.1707 63.69 80.2107 63.6C80.2507 63.51 80.2507 63.4 80.2107 63.27C80.1807 63.17 80.1307 63.09 80.0707 63.06C80.0107 63.02 79.9407 63.01 79.8707 63.03C79.8207 63.05 79.7807 63.08 79.7607 63.14C79.7307 63.2 79.7207 63.31 79.7407 63.48C79.7707 63.9 79.7707 64.21 79.7307 64.4C79.6907 64.6 79.6107 64.76 79.5007 64.88C79.3907 65 79.2507 65.08 79.0807 65.14C78.8807 65.2 78.6907 65.21 78.4907 65.15C78.2907 65.1 78.1207 64.99 77.9807 64.84C77.8407 64.68 77.7207 64.46 77.6307 64.18C77.4807 63.69 77.4707 63.32 77.6207 63.06C77.7607 62.81 77.9907 62.62 78.2907 62.5M79.2107 59.57L77.4707 59.83L77.5107 60.06C77.5407 60.25 77.5807 60.39 77.6407 60.46C77.7007 60.53 77.7907 60.59 77.9107 60.62C78.0307 60.65 78.2207 60.65 78.4707 60.61C78.8107 60.56 79.0307 60.47 79.1407 60.35C79.2507 60.23 79.2907 60.05 79.2507 59.81L79.2107 59.58V59.57ZM79.7907 58.54L80.0007 59.92C80.0407 60.19 80.0307 60.42 79.9807 60.59C79.9307 60.77 79.8307 60.92 79.7107 61.05C79.5807 61.18 79.4207 61.29 79.2407 61.36C79.0507 61.44 78.8507 61.49 78.6307 61.53C78.2907 61.58 78.0207 61.58 77.8207 61.54C77.6207 61.49 77.4507 61.42 77.3007 61.31C77.1507 61.2 77.0507 61.07 76.9807 60.93C76.8907 60.73 76.8307 60.56 76.8107 60.39L76.6007 59.01L79.7807 58.53L79.7907 58.54ZM79.7007 55.44V56.38L77.2907 56.41L77.3107 57.87H76.5207L76.4907 55.48L79.7107 55.44H79.7007ZM78.6507 52.69L78.6007 53.08C78.6007 53.08 78.6007 53.21 78.6107 53.33C78.6107 53.39 78.6407 53.45 78.6907 53.49C78.7407 53.54 78.8007 53.56 78.8707 53.57C78.9707 53.58 79.0607 53.56 79.1207 53.5C79.1807 53.45 79.2207 53.33 79.2407 53.16L79.2907 52.75L78.6407 52.67L78.6507 52.69ZM76.8607 51.53L80.0507 51.91L79.8607 53.46C79.8307 53.75 79.7707 53.96 79.7007 54.11C79.6307 54.26 79.5207 54.37 79.3707 54.44C79.2207 54.52 79.0407 54.54 78.8307 54.52C78.6507 54.5 78.5007 54.44 78.3807 54.36C78.2607 54.27 78.1707 54.16 78.1007 54.03C78.0607 53.94 78.0307 53.83 78.0107 53.69C77.9607 53.8 77.9107 53.87 77.8607 53.92C77.8307 53.95 77.7707 54 77.6707 54.05C77.5707 54.11 77.5007 54.14 77.4607 54.16L76.4807 54.5L76.6107 53.45L77.6507 53.07C77.7807 53.02 77.8707 52.98 77.9207 52.93C77.9807 52.87 78.0107 52.8 78.0207 52.71V52.63L76.7307 52.47L76.8407 51.54L76.8607 51.53ZM79.2207 48.61C78.9107 48.52 78.6707 48.51 78.5007 48.58C78.3307 48.65 78.2207 48.78 78.1707 48.97C78.1107 49.17 78.1407 49.33 78.2407 49.48C78.3407 49.62 78.5707 49.74 78.9207 49.84C79.2107 49.92 79.4407 49.93 79.6007 49.85C79.7707 49.78 79.8807 49.65 79.9307 49.46C79.9807 49.28 79.9507 49.11 79.8507 48.96C79.7407 48.81 79.5307 48.69 79.2207 48.6M79.4807 47.71C79.9907 47.85 80.3407 48.1 80.5507 48.44C80.7607 48.78 80.7907 49.19 80.6607 49.67C80.5207 50.16 80.2807 50.49 79.9307 50.68C79.5807 50.87 79.1607 50.89 78.6607 50.75C78.3007 50.65 78.0207 50.51 77.8207 50.33C77.6207 50.15 77.4907 49.93 77.4207 49.68C77.3507 49.43 77.3607 49.14 77.4607 48.81C77.5507 48.48 77.6807 48.22 77.8607 48.04C78.0307 47.86 78.2607 47.73 78.5407 47.66C78.8207 47.59 79.1407 47.61 79.5007 47.71M83.0207 44.06L82.6107 44.85L80.8607 44.3L82.2407 45.55L81.8307 46.34L80.0207 45.93L81.4707 47.04L81.0607 47.83L78.5207 45.75L78.9507 44.94L80.9907 45.4L79.4407 43.99L79.8607 43.18L83.0307 44.07L83.0207 44.06ZM114.311 41.21C110.401 37.31 105.861 34.85 98.5507 34.41C98.1207 35.73 98.4707 37.83 98.3507 39.46C108.591 39.97 115.251 46.59 116.061 55.19C117.001 65.23 110.231 73.41 100.881 74.81C89.4907 76.51 80.5007 67.22 80.4507 57.14C80.3807 45.32 87.4807 39.11 97.1807 35.97C96.6007 34.42 96.8407 32.04 95.4307 31.31C84.0307 35.13 74.6707 43.68 75.5807 58.31C75.9907 64.94 78.9907 70.03 82.7807 73.85C86.3307 77.42 92.7407 80.37 99.7107 79.87C106.211 79.4 111.071 76.48 114.691 72.68C118.251 68.96 121.131 64.46 121.111 56.95C121.101 49.86 117.991 44.89 114.301 41.22M89.0707 61.83C88.6607 63.65 88.4007 65.6 88.3907 67.81C89.5007 66.99 90.6707 66.23 91.9107 65.53C90.6907 64.58 89.8107 63.29 89.0707 61.83ZM98.1307 52.96H94.2507C93.5607 54.15 93.2407 55.69 93.1407 57.46H98.1407V52.96H98.1307ZM104.651 65.71C103.931 66.34 103.061 66.82 102.071 67.19C103.081 67.9 104.471 68.24 105.641 68.79C105.231 67.85 104.991 66.73 104.651 65.71ZM89.9907 52.96C89.5207 53.62 89.2307 54.46 89.0007 55.36C89.4507 56.01 89.8507 56.69 90.1807 57.45H92.7107C92.7107 55.62 93.1307 54.23 93.6907 52.95H89.9907V52.96ZM104.101 57.96C104.011 59.7 103.681 61.19 103.111 62.46H104.161C104.141 61.64 104.011 60.92 103.911 60.18C104.921 59.46 105.941 58.76 106.871 57.97H104.101V57.96ZM93.6307 62.45C93.0907 61.16 92.7407 59.68 92.6407 57.95H90.2407C89.5007 59.22 88.8707 61.24 89.9307 62.5C91.0507 62.36 92.4207 62.48 93.6307 62.44M96.2107 47.78C98.1307 47.22 100.651 47.74 102.121 48.15C101.361 45.92 100.541 43.74 99.2907 41.99C98.9607 42.74 98.6507 43.53 98.2407 44.33C97.8807 45.04 97.4807 45.62 97.1007 46.16C96.7707 46.63 96.2707 47.16 96.2107 47.78ZM104.281 62.94H102.871C102.271 64.31 101.361 65.37 100.411 66.39C101.151 67.25 102.261 66.71 103.181 66.2C103.581 65.98 104.511 65.43 104.591 65.1C104.741 64.48 104.121 63.63 104.281 62.94ZM98.0607 48.28C96.6607 49.46 95.2907 50.68 94.4907 52.47H98.1307C98.0807 51.09 98.2107 49.56 98.0607 48.28ZM107.301 52.84C107.941 53.87 108.311 55.16 108.531 56.6C109.221 56.19 110.111 55.47 110.571 54.63C111.171 54.33 111.601 53.85 111.931 53.27C110.231 53.32 108.671 52.92 107.301 52.84ZM102.261 52.47C101.391 50.74 100.171 49.39 98.6207 48.34V52.47H102.261ZM98.1307 62.94H94.4307C94.6307 63.37 94.8407 63.81 95.1607 64.11C95.4707 63.89 95.9207 63.81 96.2707 63.62C96.4907 63.88 96.8507 64.11 97.1907 64.36C97.4907 64.6 97.8707 64.99 98.1107 64.92V62.95L98.1307 62.94ZM106.881 52.96C105.631 53.01 104.211 52.88 103.061 53.03C103.681 54.24 103.981 55.75 104.111 57.46C105.431 57.33 107.351 57.79 108.111 57.09C107.961 55.46 107.521 54.11 106.891 52.96M93.8807 62.94C92.6807 62.98 91.3307 62.85 90.2407 63C90.9207 63.83 91.4707 64.77 92.4607 65.28C93.1707 64.94 93.9107 64.63 94.6207 64.3C94.4107 63.81 94.0907 63.43 93.8907 62.94M98.6207 62.94V65.4C99.1207 65.56 99.5907 65.75 99.9107 66.08C100.991 65.3 101.701 64.13 102.381 62.94H98.6207ZM103.611 57.46C103.551 55.68 103.131 54.25 102.561 52.96H98.6807C98.5307 54.34 98.6507 55.98 98.6107 57.46H103.601H103.611ZM105.761 52.4C104.861 52.2 103.991 51.96 103.111 51.73C102.901 50.7 102.581 49.79 102.311 48.83C101.411 48.43 100.341 48.18 99.1707 48.03C100.571 49.31 101.951 50.63 102.801 52.47C103.771 52.43 104.901 52.55 105.761 52.4ZM98.6807 57.96C98.5307 59.34 98.6507 60.98 98.6107 62.46H102.621C103.161 61.17 103.581 59.76 103.601 57.96H98.6807ZM97.3807 48.09C96.7007 48.11 96.2007 48.31 95.6007 48.4C95.5407 49.73 94.1407 49.25 93.1307 49.57C92.5207 49.76 91.9707 50.48 91.5907 50.86C91.0807 51.37 90.6207 51.78 90.3007 52.46H93.9307C94.6407 50.92 95.8407 49.54 97.0107 48.52C97.1407 48.4 97.4907 48.3 97.3807 48.09ZM92.0307 49.63C89.3207 49.88 86.3807 49.9 84.3807 50.86C85.9307 52.07 87.3907 53.36 88.6307 54.87C89.1907 52.91 90.3807 51.28 91.6507 50.13C91.7907 50.01 92.1307 49.85 92.0307 49.63ZM98.1307 57.96H93.2007C93.0907 59.63 93.6407 61.17 94.1207 62.46H98.1307V57.96ZM116.921 107.52V111.27H118.011V109.21L119.411 111.27H120.501V107.52H119.411V109.59L118.001 107.52H116.921ZM113.781 108.58C113.921 108.41 114.111 108.33 114.341 108.33C114.581 108.33 114.781 108.41 114.921 108.58C115.061 108.74 115.131 109 115.131 109.35C115.131 109.77 115.061 110.06 114.931 110.22C114.791 110.38 114.601 110.46 114.351 110.46C114.101 110.46 113.921 110.38 113.781 110.21C113.641 110.04 113.571 109.77 113.571 109.39C113.571 109.01 113.641 108.73 113.781 108.57M112.411 109.39C112.411 109.83 112.501 110.19 112.671 110.48C112.841 110.77 113.071 110.98 113.341 111.12C113.621 111.25 113.971 111.32 114.391 111.32C114.811 111.32 115.151 111.24 115.431 111.09C115.711 110.93 115.921 110.71 116.071 110.43C116.221 110.15 116.291 109.79 116.291 109.35C116.291 108.75 116.121 108.28 115.781 107.94C115.441 107.6 114.961 107.44 114.341 107.44C113.721 107.44 113.261 107.61 112.921 107.95C112.581 108.29 112.411 108.77 112.411 109.38M110.561 111.27H111.721V107.52H110.561V111.27ZM106.471 107.52V108.45H107.651V111.27H108.811V108.45H109.991V107.52H106.471ZM104.261 109.84L104.671 108.49L105.081 109.84H104.261ZM105.321 110.65L105.511 111.27H106.721L105.311 107.52H104.051L102.641 111.27H103.821L104.011 110.65H105.321ZM99.0307 110.02C99.0707 110.4 99.2007 110.71 99.4507 110.96C99.6907 111.21 100.141 111.33 100.771 111.33C101.131 111.33 101.431 111.28 101.671 111.17C101.911 111.06 102.101 110.91 102.231 110.71C102.361 110.51 102.431 110.29 102.431 110.05C102.431 109.84 102.381 109.66 102.281 109.49C102.181 109.32 102.021 109.19 101.801 109.07C101.581 108.95 101.221 108.85 100.711 108.74C100.511 108.7 100.381 108.65 100.321 108.6C100.261 108.55 100.231 108.5 100.231 108.44C100.231 108.36 100.261 108.29 100.331 108.23C100.401 108.17 100.501 108.14 100.641 108.14C100.801 108.14 100.931 108.18 101.021 108.26C101.111 108.34 101.171 108.46 101.201 108.63L102.291 108.56C102.241 108.17 102.091 107.89 101.841 107.71C101.591 107.53 101.221 107.44 100.741 107.44C100.351 107.44 100.041 107.49 99.8207 107.59C99.6007 107.69 99.4307 107.82 99.3207 108C99.2107 108.17 99.1507 108.35 99.1507 108.55C99.1507 108.84 99.2607 109.09 99.4807 109.27C99.7007 109.46 100.061 109.61 100.571 109.73C100.881 109.8 101.081 109.87 101.161 109.95C101.241 110.03 101.291 110.11 101.291 110.21C101.291 110.31 101.241 110.4 101.151 110.48C101.061 110.56 100.931 110.6 100.771 110.6C100.551 110.6 100.381 110.52 100.261 110.37C100.191 110.28 100.141 110.14 100.111 109.96L99.0107 110.03L99.0307 110.02ZM97.2407 111.27H98.4007V107.52H97.2407V111.27ZM92.8407 107.52V111.27H93.9307V109.21L95.3307 111.27H96.4207V107.52H95.3307V109.59L93.9207 107.52H92.8407ZM90.0007 109.84L90.4107 108.49L90.8207 109.84H90.0007ZM91.0707 110.65L91.2607 111.27H92.4707L91.0607 107.52H89.8007L88.3907 111.27H89.5707L89.7507 110.65H91.0607H91.0707ZM86.2807 109.91H87.0507V110.26C86.9007 110.35 86.7607 110.41 86.6507 110.45C86.5307 110.49 86.4107 110.51 86.2807 110.51C86.0107 110.51 85.7907 110.42 85.6407 110.25C85.4907 110.08 85.4107 109.79 85.4107 109.38C85.4107 109 85.4907 108.72 85.6407 108.54C85.7907 108.36 85.9907 108.27 86.2507 108.27C86.4207 108.27 86.5607 108.31 86.6707 108.38C86.7807 108.45 86.8607 108.56 86.9007 108.7L88.0207 108.5C87.9507 108.26 87.8507 108.06 87.7107 107.9C87.5707 107.74 87.4007 107.63 87.2007 107.55C86.9907 107.47 86.6807 107.44 86.2707 107.44C85.8607 107.44 85.5007 107.5 85.2507 107.62C84.9207 107.78 84.6807 108.01 84.5107 108.31C84.3407 108.61 84.2607 108.97 84.2607 109.38C84.2607 109.77 84.3407 110.11 84.4907 110.41C84.6407 110.71 84.8607 110.94 85.1407 111.09C85.4207 111.24 85.7807 111.32 86.2307 111.32C86.5907 111.32 86.9007 111.28 87.1707 111.19C87.4307 111.11 87.7407 110.95 88.0807 110.71V109.11H86.2907V109.89L86.2807 109.91ZM81.6007 108.27H82.1107C82.3207 108.27 82.4707 108.3 82.5407 108.37C82.6207 108.44 82.6607 108.53 82.6607 108.65C82.6607 108.73 82.6307 108.81 82.5907 108.87C82.5407 108.93 82.4807 108.97 82.4007 108.99C82.2507 109.02 82.1407 109.04 82.0907 109.04H81.6007V108.28V108.27ZM80.4307 111.27H81.5907V109.75H81.6907C81.8007 109.75 81.8907 109.78 81.9807 109.84C82.0407 109.88 82.1107 109.98 82.1907 110.13L82.8107 111.27H84.1207L83.5607 110.18C83.5307 110.12 83.4807 110.05 83.4007 109.95C83.3207 109.85 83.2607 109.78 83.2207 109.75C83.1607 109.7 83.0507 109.66 82.9207 109.61C83.0907 109.57 83.2307 109.52 83.3307 109.46C83.4807 109.37 83.6107 109.24 83.7007 109.09C83.7907 108.94 83.8307 108.76 83.8307 108.55C83.8307 108.31 83.7707 108.11 83.6607 107.94C83.5407 107.77 83.3907 107.66 83.2007 107.6C83.0107 107.54 82.7407 107.51 82.3807 107.51H80.4507V111.26L80.4307 111.27ZM77.2807 108.58C77.4207 108.41 77.6107 108.33 77.8407 108.33C78.0707 108.33 78.2707 108.41 78.4207 108.58C78.5607 108.74 78.6307 109 78.6307 109.35C78.6307 109.77 78.5607 110.06 78.4307 110.22C78.2907 110.38 78.1007 110.46 77.8507 110.46C77.6007 110.46 77.4207 110.38 77.2807 110.21C77.1407 110.04 77.0707 109.77 77.0707 109.39C77.0707 109.01 77.1407 108.73 77.2807 108.57M75.9107 109.39C75.9107 109.83 76.0007 110.19 76.1707 110.48C76.3407 110.77 76.5707 110.98 76.8507 111.12C77.1307 111.25 77.4807 111.32 77.9007 111.32C78.3207 111.32 78.6607 111.24 78.9407 111.09C79.2207 110.93 79.4307 110.71 79.5807 110.43C79.7307 110.15 79.8007 109.79 79.8007 109.35C79.8007 108.75 79.6307 108.28 79.2907 107.94C78.9507 107.6 78.4707 107.44 77.8507 107.44C77.2307 107.44 76.7707 107.61 76.4307 107.95C76.0907 108.29 75.9207 108.77 75.9207 109.38M113.621 104.27H114.401V104.62C114.251 104.71 114.111 104.78 114.001 104.81C113.881 104.85 113.761 104.87 113.631 104.87C113.361 104.87 113.151 104.78 112.991 104.61C112.841 104.44 112.761 104.15 112.761 103.74C112.761 103.36 112.841 103.08 112.991 102.9C113.141 102.72 113.341 102.64 113.601 102.64C113.771 102.64 113.911 102.68 114.021 102.75C114.131 102.82 114.211 102.93 114.251 103.08L115.371 102.88C115.301 102.64 115.201 102.44 115.061 102.28C114.921 102.12 114.751 102 114.551 101.93C114.351 101.86 114.031 101.82 113.621 101.82C113.211 101.82 112.851 101.88 112.591 102C112.261 102.16 112.021 102.39 111.851 102.69C111.681 102.99 111.601 103.35 111.601 103.76C111.601 104.17 111.681 104.49 111.831 104.79C111.981 105.09 112.201 105.32 112.481 105.47C112.761 105.62 113.121 105.7 113.571 105.7C113.931 105.7 114.241 105.66 114.511 105.57C114.771 105.48 115.081 105.33 115.421 105.09V103.49H113.631V104.27H113.621ZM107.381 101.87V105.62H108.471V103.56L109.871 105.62H110.961V101.87H109.871V103.95L108.461 101.87H107.381ZM105.381 105.62H106.541V101.87H105.381V105.62ZM102.861 104.27H103.631V104.62C103.481 104.71 103.341 104.78 103.231 104.81C103.111 104.85 102.991 104.87 102.861 104.87C102.591 104.87 102.371 104.78 102.221 104.61C102.071 104.44 101.991 104.15 101.991 103.74C101.991 103.36 102.071 103.08 102.221 102.9C102.371 102.72 102.571 102.64 102.831 102.64C103.001 102.64 103.141 102.68 103.251 102.75C103.361 102.83 103.441 102.93 103.481 103.08L104.601 102.88C104.531 102.64 104.431 102.44 104.291 102.28C104.151 102.12 103.981 102 103.781 101.93C103.571 101.86 103.261 101.82 102.851 101.82C102.441 101.82 102.081 101.88 101.831 102C101.501 102.16 101.261 102.39 101.091 102.69C100.921 102.99 100.841 103.35 100.841 103.76C100.841 104.17 100.921 104.49 101.071 104.79C101.221 105.09 101.441 105.32 101.721 105.47C102.001 105.62 102.361 105.7 102.811 105.7C103.171 105.7 103.481 105.66 103.751 105.57C104.011 105.48 104.321 105.33 104.661 105.09V103.49H102.871V104.27H102.861ZM98.2307 104.19L98.6407 102.84L99.0507 104.19H98.2307ZM99.3007 105.01L99.4907 105.63H100.701L99.2907 101.88H98.0307L96.6207 105.63H97.8007L97.9807 105.01H99.3007ZM92.6307 101.87V105.62H93.7907V104.71L94.3907 104.08L95.1807 105.62H96.6007L95.1707 103.29L96.5407 101.87H95.0007L93.7907 103.29V101.87H92.6307ZM91.0507 104.09C91.0007 104.33 90.9207 104.51 90.8007 104.63C90.6807 104.76 90.5207 104.82 90.3007 104.82C90.0807 104.82 89.8907 104.74 89.7707 104.59C89.6407 104.43 89.5807 104.15 89.5807 103.74C89.5807 103.4 89.6307 103.16 89.7407 103C89.8807 102.79 90.0807 102.68 90.3407 102.68C90.4607 102.68 90.5607 102.7 90.6507 102.75C90.7507 102.8 90.8307 102.87 90.8907 102.95C90.9307 103 90.9707 103.09 91.0007 103.2L92.0207 102.97C91.8907 102.57 91.6907 102.28 91.4207 102.09C91.1507 101.9 90.7807 101.8 90.3107 101.8C89.7007 101.8 89.2407 101.97 88.9107 102.3C88.5807 102.63 88.4107 103.11 88.4107 103.73C88.4107 104.19 88.5107 104.58 88.6907 104.87C88.8807 105.17 89.1007 105.38 89.3607 105.5C89.6207 105.62 89.9507 105.68 90.3607 105.68C90.7007 105.68 90.9707 105.63 91.1907 105.53C91.4107 105.43 91.5907 105.29 91.7407 105.1C91.8907 104.91 91.9907 104.67 92.0607 104.39L91.0507 104.08V104.09ZM85.8207 104.19L86.2307 102.84L86.6407 104.19H85.8207ZM86.8807 105.01L87.0707 105.63H88.2807L86.8707 101.88H85.6107L84.2007 105.63H85.3807L85.5607 105.01H86.8707H86.8807ZM82.4007 102.64H82.7307C82.9507 102.64 83.0907 102.68 83.1707 102.76C83.2507 102.84 83.2907 102.94 83.2907 103.06C83.2907 103.18 83.2407 103.28 83.1507 103.36C83.0607 103.44 82.9007 103.48 82.6807 103.48H82.4007V102.64ZM81.2307 101.87V105.62H82.3907V104.23H83.0207C83.4907 104.23 83.8407 104.12 84.0607 103.91C84.2907 103.7 84.4007 103.4 84.4007 103.02C84.4007 102.64 84.3007 102.37 84.0907 102.17C83.8807 101.97 83.5707 101.87 83.1507 101.87H81.2207H81.2307ZM105.761 97.08C106.061 97.08 106.281 97.15 106.411 97.3C106.541 97.45 106.601 97.72 106.601 98.12C106.601 98.42 106.571 98.64 106.511 98.77C106.451 98.91 106.371 99 106.271 99.05C106.171 99.1 106.001 99.13 105.751 99.13H105.471V97.08H105.761ZM104.311 96.24V99.99H106.031C106.241 99.99 106.471 99.95 106.721 99.89C106.911 99.84 107.081 99.74 107.241 99.59C107.401 99.44 107.531 99.25 107.621 99.03C107.711 98.81 107.761 98.5 107.761 98.1C107.761 97.84 107.731 97.6 107.671 97.37C107.611 97.14 107.511 96.94 107.371 96.77C107.231 96.6 107.061 96.46 106.851 96.37C106.641 96.28 106.371 96.23 106.031 96.23H104.311V96.24ZM100.811 96.24V99.99H103.771V99.07H101.961V96.24H100.801H100.811ZM97.9107 96.99H98.4207C98.6307 96.99 98.7807 97.02 98.8507 97.09C98.9307 97.16 98.9707 97.25 98.9707 97.37C98.9707 97.45 98.9407 97.53 98.9007 97.59C98.8507 97.65 98.7907 97.69 98.7107 97.71C98.5607 97.74 98.4507 97.76 98.4007 97.76H97.9107V97V96.99ZM96.7407 99.98H97.9007V98.46H98.0007C98.1107 98.46 98.2007 98.49 98.2807 98.55C98.3407 98.59 98.4107 98.69 98.4907 98.84L99.1107 99.99H100.421L99.8607 98.9C99.8307 98.85 99.7807 98.77 99.7007 98.67C99.6207 98.57 99.5607 98.5 99.5207 98.47C99.4607 98.42 99.3607 98.38 99.2207 98.33C99.3907 98.29 99.5307 98.24 99.6307 98.18C99.7807 98.08 99.9107 97.96 100.001 97.81C100.091 97.66 100.131 97.48 100.131 97.27C100.131 97.03 100.071 96.83 99.9507 96.66C99.8307 96.49 99.6807 96.38 99.4907 96.32C99.3007 96.26 99.0307 96.23 98.6707 96.23H96.7407V99.98ZM93.5907 97.3C93.7307 97.13 93.9207 97.05 94.1507 97.05C94.3807 97.05 94.5907 97.13 94.7307 97.3C94.8707 97.46 94.9407 97.72 94.9407 98.07C94.9407 98.49 94.8707 98.78 94.7307 98.94C94.5907 99.1 94.4007 99.18 94.1507 99.18C93.9007 99.18 93.7207 99.1 93.5807 98.93C93.4407 98.76 93.3707 98.49 93.3707 98.11C93.3707 97.73 93.4407 97.45 93.5807 97.29M92.2207 98.11C92.2207 98.55 92.3107 98.91 92.4807 99.2C92.6507 99.49 92.8807 99.71 93.1507 99.84C93.4307 99.98 93.7807 100.04 94.2007 100.04C94.6207 100.04 94.9607 99.96 95.2407 99.81C95.5207 99.65 95.7307 99.44 95.8807 99.15C96.0307 98.87 96.1007 98.51 96.1007 98.07C96.1007 97.47 95.9307 97 95.5907 96.66C95.2507 96.32 94.7707 96.16 94.1507 96.16C93.5307 96.16 93.0707 96.33 92.7307 96.67C92.3907 97.01 92.2207 97.49 92.2207 98.1M86.8307 96.24L87.6707 99.99H88.8107L89.4607 97.63L90.1207 99.99H91.2607L92.0907 96.24H91.0007L90.6007 98.34L90.0207 96.24H88.9207L88.3407 98.34L87.9407 96.24H86.8407H86.8307ZM107.371 86.13C107.701 85.75 108.131 85.56 108.671 85.56C109.211 85.56 109.681 85.75 110.011 86.12C110.341 86.5 110.501 87.09 110.501 87.91C110.501 88.88 110.341 89.55 110.031 89.92C109.711 90.29 109.271 90.48 108.701 90.48C108.131 90.48 107.701 90.29 107.381 89.91C107.061 89.53 106.891 88.9 106.891 88.03C106.891 87.16 107.051 86.52 107.381 86.14M104.211 88.01C104.211 89.02 104.411 89.86 104.811 90.54C105.211 91.21 105.721 91.7 106.361 92.01C107.001 92.32 107.811 92.48 108.781 92.48C109.751 92.48 110.541 92.3 111.181 91.94C111.821 91.58 112.321 91.08 112.651 90.43C112.991 89.78 113.161 88.96 113.161 87.94C113.161 86.55 112.771 85.46 111.991 84.69C111.211 83.92 110.101 83.53 108.661 83.53C107.221 83.53 106.161 83.92 105.371 84.71C104.581 85.5 104.191 86.6 104.191 88.01M98.4907 85.44H99.2507C99.7507 85.44 100.091 85.54 100.271 85.72C100.451 85.91 100.541 86.14 100.541 86.41C100.541 86.68 100.441 86.92 100.231 87.1C100.021 87.28 99.6607 87.37 99.1507 87.37H98.4907V85.44ZM95.8007 83.68V92.33H98.4807V89.12H99.9407C101.021 89.12 101.821 88.87 102.351 88.38C102.871 87.89 103.141 87.21 103.141 86.33C103.141 85.45 102.901 84.82 102.421 84.36C101.941 83.9 101.221 83.67 100.251 83.67H95.8107L95.8007 83.68ZM82.8407 83.68H85.3807L86.2907 88.52L87.6307 83.68H90.1607L91.5007 88.52L92.4107 83.68H94.9307L93.0207 92.33H90.4007L88.8807 86.88L87.3707 92.33H84.7507L82.8207 83.68H82.8407Z" fill="#3E3A39"/>
</g>
<defs>
<clipPath id="clip0_164_301">
<rect width="142.63" height="142.63" fill="white"/>
</clipPath>
</defs>
</svg>
