<svg width="143" height="143" viewBox="0 0 143 143" fill="none" xmlns="http://www.w3.org/2000/svg">
<g clip-path="url(#clip0_164_210)">
<path d="M71.32 142.63C110.71 142.63 142.64 110.7 142.64 71.31C142.64 31.92 110.7 0 71.32 0C31.94 0 0 31.93 0 71.32C0 110.71 31.93 142.64 71.32 142.64" fill="white"/>
<path d="M126.82 90.69C126.8 90.07 126.79 89.46 126.51 88.87C126.21 88.23 125.71 87.91 125.06 87.88C124.37 87.85 123.91 88.29 123.6 88.87C123.29 89.47 123.3 90.13 123.35 90.77C123.44 91.87 124.1 92.46 125.16 92.4C126.42 92.33 126.82 91.91 126.82 90.68M127.92 91.75C127.49 92.99 127.12 94.25 126.06 95.18C125.23 95.92 124.27 96.28 123.21 96.43C123.03 96.45 122.77 96.51 122.74 96.26C122.71 96 122.98 96.04 123.16 96C125.08 95.53 126.3 94.31 126.54 92.64C126.33 92.53 126.18 92.71 126.02 92.77C124.64 93.29 123.58 93.06 122.87 92.1C122.17 91.15 122.21 89.46 122.95 88.5C123.6 87.66 124.46 87.24 125.51 87.4C126.58 87.55 127.23 88.23 127.6 89.23C127.73 89.58 127.65 89.99 127.92 90.29V91.75Z" fill="#3E3A39"/>
<path d="M57.5505 100.03C57.5505 100.03 57.5605 100.11 57.5705 100.16C43.4805 100.16 29.3805 100.16 15.2905 100.16C15.1105 100.16 14.8605 100.31 14.7305 100.04C14.7705 100.03 14.8205 100.02 14.8605 100.01C16.8305 100.01 18.7905 100.02 20.7605 100.03C23.3105 100.03 25.8705 100.03 28.4205 100.03C30.7705 100.03 33.1105 100.03 35.4605 100.03C42.8305 100.03 50.1905 100.03 57.5605 100.03" fill="#3E3A39"/>
<path d="M33.9409 42.48C33.9409 42.48 33.9409 42.56 33.9409 42.6C27.8409 42.6 21.7409 42.6 15.6509 42.6C15.3809 42.6 15.1109 42.62 14.8409 42.64C14.8009 42.63 14.7509 42.62 14.7109 42.6C14.8209 42.34 15.0509 42.48 15.2109 42.48C21.4509 42.48 27.6909 42.48 33.9309 42.48" fill="#3E3A39"/>
<path d="M57.5601 42.48C57.5601 42.48 57.5601 42.57 57.5501 42.62C57.1301 42.62 56.7201 42.62 56.3001 42.62H50.4001C49.7101 42.62 49.0301 42.6 48.3401 42.6C45.1701 42.59 42.0001 42.58 38.8301 42.57C38.8301 42.54 38.8301 42.51 38.8501 42.48H57.5701H57.5601Z" fill="#3E3A39"/>
<path d="M14.8409 100C14.8409 100 14.7509 100.02 14.7109 100.03V85.33H14.8309C14.8309 85.5 14.8309 85.67 14.8309 85.83C14.8309 87.84 14.8309 89.85 14.8309 91.86C14.8309 93.87 14.8309 95.88 14.8309 97.89C14.8309 98.59 14.8309 99.3 14.8309 100" fill="#3E3A39"/>
<path d="M14.8407 85.33H14.7207V71.38C14.7207 71.38 14.8007 71.38 14.8407 71.38C14.8407 72.17 14.8407 72.97 14.8507 73.76V80.17C14.8507 81.89 14.8507 83.61 14.8507 85.32" fill="#3E3A39"/>
<path d="M14.8309 71.38H14.7109V58.94C14.7109 58.94 14.7809 58.9 14.8209 58.94C14.8209 62.13 14.8309 65.31 14.8409 68.5C14.8409 69.46 14.8409 70.43 14.8309 71.39" fill="#3E3A39"/>
<path d="M14.7207 42.6C14.7207 42.6 14.8107 42.62 14.8507 42.64C14.8507 46.66 14.8507 50.67 14.8507 54.69C14.8107 54.69 14.7707 54.68 14.7307 54.67V42.61L14.7207 42.6Z" fill="#3E3A39"/>
<path d="M57.5492 100.03C50.1792 100.03 42.8192 100.03 35.4492 100.03C35.4492 99.82 35.5892 99.68 35.7392 99.57C36.6992 98.79 37.6692 98.02 38.6392 97.25C38.8692 97.07 39.1192 96.91 39.0992 96.56C39.5792 96.55 40.0592 96.53 40.5392 96.53C44.8292 96.53 49.1192 96.52 53.4092 96.54C53.9392 96.54 54.0692 96.39 54.0692 95.87C54.0492 91.98 54.0692 88.09 54.0792 84.2C54.7492 84.11 55.0992 83.53 55.6092 83.2C56.2792 82.77 56.7592 82.07 57.5592 81.81C57.5592 87.88 57.5592 93.96 57.5592 100.03" fill="#3E3A39"/>
<path d="M14.8401 54.68C14.8401 50.66 14.8401 46.65 14.8401 42.63C15.1101 42.62 15.3801 42.59 15.6501 42.59C21.7501 42.59 27.8401 42.59 33.9401 42.59C34.6301 43.4 34.8301 44.36 34.8001 45.39C34.7901 45.9 34.6301 46.11 34.0601 46.1C29.0401 46.08 24.0201 46.1 19.0101 46.08C18.4201 46.08 18.2201 46.19 18.2401 46.82C18.2801 48.91 18.2401 51 18.2701 53.09C18.2701 53.51 18.1601 53.69 17.7401 53.74C16.7101 53.85 15.8101 54.37 14.8301 54.67" fill="#3E3A39"/>
<path d="M41.4897 71.25C41.0197 70.09 40.4397 69 39.6797 68C40.4797 67.79 40.9997 67.15 41.5897 66.65C43.7697 64.82 46.0297 63.09 48.2097 61.26C48.6497 60.9 49.3197 60.7 49.3897 59.98C52.3797 59.06 55.0497 57.54 57.5797 55.46C57.2397 57.2 56.5697 58.61 55.6297 59.91C53.6097 62.71 50.7897 64.33 47.5597 65.32C46.6697 65.59 45.7397 65.79 44.8197 65.95C44.3697 66.03 44.3197 66.2 44.3897 66.57C44.5497 67.37 44.6597 68.18 44.6297 68.99C44.2897 69.06 44.0597 69.31 43.7897 69.5C42.9997 70.06 42.3697 70.83 41.4797 71.26" fill="#3E3A39"/>
<path d="M41.0902 55.3C40.9002 56.86 40.2702 58.25 39.4402 59.56C38.8102 60.54 38.0902 61.45 37.3402 62.34C36.9702 62.31 36.7302 62.57 36.4702 62.77C35.9202 63.21 35.3902 63.68 34.8402 64.12C32.0502 66.37 29.2602 68.64 26.4402 70.87C26.0002 71.22 25.6502 71.76 24.9902 71.76C25.1502 70.01 25.6702 68.36 26.2902 66.73C26.5602 66.75 26.7702 66.63 26.9702 66.46C28.4802 65.25 29.9902 64.03 31.4902 62.82C34.1902 60.63 36.8802 58.42 39.6002 56.26C40.0602 55.9 40.4002 55.32 41.0802 55.29" fill="#3E3A39"/>
<path d="M41.0908 55.3C40.4108 55.33 40.0608 55.91 39.6108 56.27C36.8908 58.43 34.2108 60.64 31.5008 62.83C30.0008 64.05 28.4908 65.26 26.9808 66.47C26.7808 66.63 26.5608 66.75 26.3008 66.74C26.4208 66.41 26.4908 66.06 26.6508 65.75C27.1408 64.8 27.0808 63.92 26.4108 63.1C26.4108 62.84 26.6108 62.69 26.7808 62.55C28.6008 61.07 30.4308 59.59 32.2608 58.11C34.3008 56.46 36.3408 54.82 38.4008 53.19C39.2608 52.51 40.0708 51.75 41.0008 51.16C41.3608 52.53 41.3608 53.92 41.1008 55.31" fill="#3E3A39"/>
<path d="M24.9908 71.76C25.6608 71.76 26.0108 71.22 26.4408 70.87C29.2608 68.64 32.0408 66.38 34.8408 64.12C35.3908 63.68 35.9208 63.21 36.4708 62.77C36.7308 62.56 36.9608 62.31 37.3408 62.34C35.8308 64.44 34.1708 66.43 32.6308 68.51C31.0608 70.62 29.8308 72.9 29.2408 75.5C29.0608 76.3 29.0408 77.11 29.0008 77.92C28.3708 77.96 28.0808 78.53 27.6008 78.8C27.1308 79.06 26.8908 79.64 26.2908 79.68C25.3008 78.25 24.9208 76.63 24.8108 74.93C24.7408 73.87 24.7408 72.81 25.0108 71.77" fill="#3E3A39"/>
<path d="M40.9909 51.14C40.0609 51.73 39.2509 52.49 38.3909 53.17C36.3309 54.8 34.2909 56.44 32.2509 58.09C30.4209 59.56 28.5909 61.04 26.7709 62.53C26.6009 62.67 26.4009 62.82 26.4009 63.08C25.5109 62.14 24.4409 61.43 23.3809 60.71C23.3809 60.48 23.5409 60.33 23.7009 60.2C24.8709 59.26 26.0809 58.35 27.2209 57.37C27.7509 56.91 28.4709 56.63 28.7909 55.93C29.8009 56.07 30.7809 56.37 31.7509 56.7C32.2209 56.86 32.4709 56.75 32.7609 56.39C34.1409 54.72 35.2409 52.88 36.0909 50.89C36.9109 50.66 37.3709 49.93 38.0409 49.5C38.7109 49.06 39.1909 48.36 40.0009 48.12C40.4909 49.07 40.8409 50.07 40.9909 51.14Z" fill="#3E3A39"/>
<path d="M41.4892 71.25C42.3792 70.82 42.9992 70.05 43.7992 69.49C44.0692 69.3 44.2892 69.05 44.6392 68.98C44.8792 70.29 44.5992 71.6 44.5692 72.9C44.5292 74.56 43.3392 75.64 42.6492 76.97C42.4792 77.3 42.2492 77.09 42.0592 77.01C41.1392 76.61 40.1992 76.26 39.2092 76.08C38.4892 75.95 37.7492 75.89 37.0392 76.1C35.7692 76.46 35.3192 77.64 36.0092 78.76C36.3392 79.3 36.8092 79.69 37.3392 80.03C37.0792 80.49 36.6292 80.78 36.2192 81.07C35.6092 81.51 35.1192 82.11 34.4192 82.43C33.2192 81.51 32.3792 80.35 31.9492 78.9C32.2592 78.95 32.4692 78.74 32.6692 78.58C34.8592 76.83 37.0392 75.09 39.1992 73.3C39.4992 73.05 40.0292 72.91 39.9792 72.35C40.4292 72.33 40.8292 72.53 41.2492 72.64C41.4292 72.69 41.6192 72.84 41.7792 72.72C41.9692 72.57 41.7792 72.37 41.7492 72.2C41.6792 71.88 41.5792 71.56 41.4892 71.24" fill="#3E3A39"/>
<path d="M116.979 63.15V64.37C116.979 66.74 116.979 66.75 119.379 66.5C120.339 66.4 121.189 66.01 121.599 65.09C122.219 63.7 122.229 62.28 121.319 61.01C120.429 59.77 119.069 59.63 117.679 59.7C117.149 59.73 116.949 60.01 116.969 60.55C117.009 61.42 116.979 62.28 116.979 63.15ZM127.569 73.96C125.789 74.7 123.799 73.99 122.439 72.27C121.469 71.03 120.699 69.65 119.819 68.36C119.629 68.09 119.439 67.81 119.199 67.61C118.619 67.13 117.879 67.18 117.259 67.36C116.699 67.52 117.019 68.16 116.999 68.58C116.959 69.72 116.999 70.86 116.999 72C116.999 72.79 117.289 73.3 118.149 73.37C118.419 73.39 118.839 73.38 118.799 73.81C118.739 74.31 118.299 74.11 118.009 74.09C116.599 73.97 115.199 73.96 113.789 74.09C113.539 74.11 113.189 74.26 113.119 73.86C113.039 73.41 113.459 73.44 113.719 73.38C114.799 73.16 115.039 72.95 115.039 71.82C115.059 68.32 115.059 64.82 115.039 61.32C115.039 60.15 114.849 59.97 113.809 59.8C113.569 59.76 113.269 59.77 113.279 59.44C113.279 59.05 113.649 59.06 113.889 59.06C115.759 59.02 117.629 59.01 119.509 59C119.969 59 120.419 59.06 120.879 59.16C122.669 59.53 123.729 60.53 124.069 62.19C124.359 63.66 123.679 65.14 122.279 66.08C121.219 66.8 121.199 66.81 121.879 67.89C122.749 69.3 123.659 70.68 124.719 71.95C125.489 72.87 126.349 73.66 127.579 73.96" fill="#3E3A39"/>
<path d="M49.3903 59.98C49.3203 60.7 48.6503 60.9 48.2103 61.26C46.0303 63.08 43.7703 64.81 41.5903 66.65C41.0003 67.15 40.4803 67.79 39.6803 68C39.1203 67.45 38.5503 66.89 37.8303 66.52C37.5503 66.38 37.5503 66.23 37.7403 65.99C39.1103 64.27 40.4603 62.55 41.8103 60.82C42.0203 60.55 42.2403 60.54 42.5203 60.58C44.8503 60.91 47.1303 60.6 49.3803 59.98" fill="#3E3A39"/>
<path d="M37.2103 90.52C37.8403 90.48 38.4603 90.39 39.0603 90.21C40.2903 89.85 40.9503 89 41.0303 87.71C41.2703 87.73 41.4503 87.65 41.6503 87.5C42.6603 86.75 43.5703 85.86 44.6403 85.19C46.1703 87.92 45.2403 91.49 41.4603 92.58C39.4703 93.15 37.5003 92.91 35.5703 92.24C35.7803 91.93 36.0803 91.71 36.3403 91.46C36.6503 91.16 37.1803 91.07 37.2103 90.52Z" fill="#3E3A39"/>
<path d="M101.501 61.66C101.361 61.68 101.311 61.67 101.311 61.69C100.511 63.34 100.021 65.11 99.3706 66.82C99.2106 67.24 99.5406 67.27 99.8106 67.27C100.731 67.27 101.651 67.27 102.561 67.27C103.141 67.27 103.271 66.98 103.121 66.49C102.941 65.93 102.741 65.37 102.551 64.8C102.201 63.74 101.841 62.68 101.491 61.64M106.751 73.98C105.771 74.04 105.011 73.95 104.251 74.1C104.021 74.14 103.721 74.15 103.661 73.83C103.591 73.45 103.941 73.5 104.151 73.45C105.251 73.17 105.261 73.17 104.921 72.05C104.601 71.02 104.221 70 103.931 68.96C103.771 68.42 103.451 68.19 102.941 68.18C101.801 68.16 100.661 68.18 99.5206 68.18C99.0606 68.18 98.7706 68.42 98.6306 68.87C98.2706 70.01 97.8906 71.14 97.5206 72.27C97.3006 72.95 97.3806 73.43 98.2606 73.46C98.4806 73.46 98.9206 73.39 98.8606 73.81C98.8006 74.25 98.4206 74.06 98.1406 74.05C97.0006 74.01 95.8606 73.94 94.7306 74.09C94.4606 74.13 94.1406 74.19 94.0806 73.81C94.0206 73.44 94.4006 73.45 94.6006 73.45C95.6106 73.44 96.0506 72.82 96.3906 71.97C97.9106 68.2 99.3406 64.39 100.731 60.57C100.951 59.96 101.161 59.46 101.721 59.03C102.361 58.54 102.471 58.83 102.641 59.34C103.131 60.83 103.631 62.33 104.131 63.82C104.991 66.36 105.861 68.9 106.731 71.44C107.081 72.47 107.461 73.46 108.801 73.49C109.041 73.49 109.241 73.6 109.171 73.9C109.101 74.2 108.851 74.12 108.641 74.11C107.941 74.07 107.241 74.03 106.751 74" fill="#3E3A39"/>
<path d="M38.8205 42.58C41.9905 42.59 45.1605 42.6 48.3305 42.61C49.0205 42.61 49.7105 42.62 50.3905 42.63C50.3905 42.9 50.1805 43.04 50.0105 43.18C49.0605 43.96 48.1105 44.73 47.1505 45.49C46.9405 45.65 46.7405 45.78 46.7505 46.08C45.0705 46.09 43.4005 46.1 41.7305 46.12C41.5305 46.12 41.3705 46.08 41.2605 45.89C40.6305 44.74 39.8105 43.74 38.8905 42.82C38.8405 42.77 38.8405 42.67 38.8105 42.6" fill="#3E3A39"/>
<path d="M28.41 100.02C25.86 100.02 23.3 100.02 20.75 100.02C20.78 99.69 21.05 99.52 21.26 99.35C22.02 98.72 22.82 98.14 23.56 97.48C23.86 97.21 24.37 97.1 24.4 96.57C26.95 96.51 29.51 96.51 32.06 96.57C32.08 96.78 31.99 96.93 31.84 97.05C31.09 97.64 30.33 98.2 29.62 98.83C29.2 99.21 28.59 99.41 28.42 100.03" fill="#3E3A39"/>
<path d="M28.7892 55.94C28.4692 56.64 27.7592 56.92 27.2192 57.38C26.0792 58.36 24.8692 59.27 23.6992 60.21C23.5392 60.34 23.3792 60.49 23.3792 60.72C21.9892 60.01 20.5992 59.3 19.1992 58.59C20.3692 57.65 21.5392 56.72 22.7092 55.78C22.8892 55.63 23.0392 55.46 23.0092 55.19C24.9692 55.19 26.8892 55.45 28.7892 55.93" fill="#3E3A39"/>
<path d="M24.3898 96.56C24.3598 97.09 23.8598 97.21 23.5498 97.47C22.8098 98.13 22.0098 98.71 21.2498 99.34C21.0398 99.52 20.7698 99.69 20.7398 100.01C18.7698 100.01 16.8098 100 14.8398 99.99C14.8398 99.29 14.8398 98.58 14.8398 97.88C15.3098 97.9 15.5498 97.5 15.8798 97.27C16.6898 96.71 17.3298 95.92 18.2298 95.49C18.2798 96.51 18.2798 96.51 19.3298 96.51C21.0098 96.51 22.6998 96.53 24.3798 96.54" fill="#3E3A39"/>
<path d="M39.9692 72.37C40.0192 72.94 39.4892 73.08 39.1892 73.32C37.0392 75.11 34.8492 76.85 32.6592 78.6C32.4592 78.76 32.2492 78.97 31.9392 78.92C31.0392 76.63 32.0292 74.08 34.3192 72.9C36.1292 71.97 38.0292 71.92 39.9692 72.37Z" fill="#3E3A39"/>
<path d="M14.8501 68.49C14.8501 65.3 14.8401 62.12 14.8301 58.93C15.9701 59.28 17.0001 59.88 18.0701 60.4C18.2901 60.51 18.2601 60.7 18.2601 60.89C18.2601 62.63 18.2401 64.36 18.2301 66.1C17.5701 66.3 17.2001 66.9 16.6401 67.25C16.0201 67.63 15.6101 68.32 14.8401 68.49" fill="#3E3A39"/>
<path d="M28.4104 100.02C28.5804 99.4 29.1904 99.19 29.6104 98.82C30.3204 98.19 31.0804 97.63 31.8304 97.04C31.9904 96.92 32.0804 96.76 32.0504 96.56C34.4004 96.5 36.7404 96.5 39.0904 96.56C39.1204 96.91 38.8504 97.07 38.6304 97.25C37.6604 98.02 36.6904 98.79 35.7304 99.57C35.5904 99.69 35.4504 99.82 35.4404 100.03C33.0904 100.03 30.7504 100.03 28.4004 100.03" fill="#3E3A39"/>
<path d="M14.8496 80.17V73.76C15.4296 73.66 15.7296 73.16 16.1796 72.87C16.8896 72.4 17.4196 71.69 18.2396 71.38V77.79C17.6096 78.03 17.1996 78.58 16.6496 78.93C16.0396 79.32 15.6196 80.01 14.8496 80.17Z" fill="#3E3A39"/>
<path d="M57.5491 81.81C56.7491 82.07 56.2691 82.77 55.5991 83.2C55.0891 83.53 54.7391 84.11 54.0691 84.2C54.0591 82.11 53.9691 80.01 54.1191 77.92C54.8391 77.89 55.1891 77.26 55.7291 76.92C56.3491 76.52 56.7991 75.87 57.5591 75.66C57.5591 77.71 57.5591 79.76 57.5591 81.82" fill="#3E3A39"/>
<path d="M77.2299 75.69H80.3898C79.2798 76.01 79.7198 76.64 80.0098 77.26C80.2498 77.77 80.4698 78.3 80.7698 78.96C81.2498 78.1 81.5898 77.33 81.8198 76.52C81.9798 75.97 81.4798 75.96 81.1398 75.72H84.0499C82.1499 76.3 82.0898 78.02 81.3098 79.23C81.1098 79.53 81.1498 79.83 81.3098 80.16C81.7198 81.04 82.1098 81.94 82.5398 82.9C82.9998 82.3 83.1898 81.64 83.4498 81.01C84.0098 79.69 84.5399 78.35 85.0499 77.01C85.3799 76.14 85.3598 76.13 84.4898 75.71H87.2999C85.5699 76.32 85.4898 77.87 84.9198 79.08C84.1398 80.75 83.4898 82.48 82.7798 84.17C82.6798 84.41 82.6598 84.79 82.3498 84.8C81.9498 84.83 81.9898 84.38 81.8798 84.13C81.4498 83.15 81.0798 82.13 80.4598 81.02C79.9598 82.16 79.5198 83.16 79.0698 84.16C78.9598 84.4 78.9398 84.77 78.6398 84.79C78.2998 84.82 78.2898 84.43 78.1798 84.2C77.0598 81.74 75.9298 79.27 74.8398 76.79C74.5798 76.21 74.0898 76 73.5898 75.67H76.5499C75.5599 76.03 76.0098 76.64 76.2698 77.22C77.1098 79.07 77.9398 80.91 78.7798 82.78C81.1298 80.89 79.2498 76.9 77.2398 75.66" fill="#3E3A39"/>
<path d="M56.3004 42.62C56.7204 42.62 57.1304 42.62 57.5504 42.62V47.76C57.3304 47.78 57.1604 47.88 56.9904 48.02C56.5104 48.41 56.0504 48.84 55.5504 49.19C55.0704 49.52 54.7304 50.08 54.0704 50.15C54.0704 49.04 54.0204 47.94 54.0604 46.83C54.0804 46.27 53.9304 46.02 53.3404 46.1C53.1204 46.13 52.8804 46.08 52.6504 46.07C52.6804 45.9 52.7504 45.75 52.8904 45.64C53.5604 45.09 54.2504 44.56 54.9004 43.99C55.3904 43.56 56.0504 43.31 56.2904 42.63" fill="#3E3A39"/>
<path d="M56.2994 42.62C56.0494 43.3 55.3894 43.56 54.9094 43.98C54.2594 44.55 53.5694 45.08 52.8994 45.63C52.7694 45.74 52.6894 45.89 52.6594 46.06C50.6894 46.12 48.7194 46.12 46.7494 46.06C46.7294 45.76 46.9394 45.63 47.1494 45.47C48.1094 44.71 49.0694 43.94 50.0094 43.16C50.1794 43.02 50.3894 42.88 50.3894 42.61H56.2994V42.62Z" fill="#3E3A39"/>
<path d="M14.8401 91.86C14.8401 89.85 14.8401 87.84 14.8401 85.83C15.4101 85.74 15.7101 85.24 16.1501 84.95C16.8601 84.48 17.4101 83.77 18.2301 83.44V89.6C18.0601 89.6 17.9101 89.63 17.7701 89.74C17.3101 90.13 16.8701 90.53 16.3701 90.87C15.8701 91.21 15.5201 91.8 14.8301 91.86" fill="#3E3A39"/>
<path d="M14.8398 91.86C15.5298 91.81 15.8698 91.22 16.3798 90.87C16.8698 90.53 17.3198 90.12 17.7798 89.74C17.9198 89.62 18.0698 89.59 18.2398 89.6V95.5C17.3398 95.93 16.6998 96.73 15.8898 97.28C15.5598 97.51 15.3198 97.9 14.8498 97.89C14.8498 95.88 14.8498 93.87 14.8498 91.86" fill="#3E3A39"/>
<path d="M54.0703 50.14C54.7203 50.07 55.0703 49.52 55.5503 49.18C56.0603 48.83 56.5103 48.4 56.9903 48.01C57.1503 47.88 57.3303 47.77 57.5503 47.75C57.5503 49.44 57.5603 51.14 57.5703 52.83C57.5703 53.02 57.5503 53.2 57.4103 53.35C56.4703 54.34 55.3803 55.13 54.0803 55.76V50.13L54.0703 50.14Z" fill="#3E3A39"/>
<path d="M34.4104 82.45C35.1104 82.13 35.6004 81.53 36.2104 81.09C36.6204 80.79 37.0604 80.51 37.3304 80.05C38.9404 80.8 40.6204 81.43 42.0604 82.52C40.9204 83.3 39.9004 84.25 38.8004 85.1C37.2404 84.37 35.6804 83.64 34.4004 82.46" fill="#3E3A39"/>
<path d="M18.2396 83.44C17.4196 83.77 16.8796 84.48 16.1596 84.95C15.7196 85.24 15.4196 85.74 14.8496 85.83C14.8496 85.66 14.8496 85.49 14.8496 85.33C14.8496 83.61 14.8496 81.89 14.8496 80.18C15.6196 80.02 16.0296 79.33 16.6496 78.94C17.1996 78.59 17.6096 78.04 18.2396 77.8C18.2396 79.68 18.2396 81.57 18.2396 83.45" fill="#3E3A39"/>
<path d="M57.5506 75.65C56.8006 75.87 56.3506 76.52 55.7206 76.92C55.1906 77.26 54.8406 77.89 54.1106 77.92C53.9806 76.16 54.0406 74.4 54.0606 72.64C54.7306 72.6 55.0506 72.02 55.5406 71.69C56.2206 71.23 56.7206 70.53 57.5406 70.25V75.65H57.5506Z" fill="#3E3A39"/>
<path d="M57.55 70.25C56.74 70.53 56.23 71.23 55.55 71.69C55.06 72.02 54.74 72.6 54.07 72.64C54.05 70.84 53.98 69.03 54.11 67.23C54.81 67.27 55.12 66.66 55.61 66.35C56.28 65.93 56.76 65.23 57.55 64.97V70.25Z" fill="#3E3A39"/>
<path d="M109.721 57.39C108.531 57.39 107.331 57.39 106.141 57.39C105.951 57.39 105.641 57.51 105.641 57.16C105.641 56.9 105.901 56.92 106.081 56.92C106.781 56.92 107.091 56.59 107.131 55.88C107.261 53.23 107.271 50.57 107.131 47.92C107.101 47.37 106.891 47.05 106.341 46.97C106.151 46.94 105.921 46.94 105.961 46.67C105.991 46.46 106.201 46.49 106.361 46.49C108.501 46.49 110.651 46.49 112.791 46.49C113.071 46.49 113.231 46.56 113.291 46.88C113.391 47.39 113.431 47.9 113.431 48.42C113.431 48.55 113.431 48.71 113.261 48.73C113.181 48.73 113.021 48.66 113.001 48.6C112.581 46.83 111.181 47.13 109.931 47.12C108.401 47.11 108.561 47 108.551 48.45C108.551 49.16 108.601 49.87 108.531 50.57C108.471 51.28 108.771 51.48 109.421 51.42C109.851 51.38 110.291 51.39 110.721 51.41C111.341 51.43 111.791 51.29 111.831 50.55C111.831 50.34 111.901 50.07 112.191 50.11C112.501 50.15 112.431 50.44 112.411 50.64C112.301 51.42 112.311 52.2 112.411 52.99C112.441 53.18 112.411 53.4 112.171 53.44C111.921 53.48 111.841 53.25 111.831 53.07C111.771 52.11 111.071 52.06 110.371 52.06C108.181 52.06 108.571 51.8 108.541 53.83C108.541 54.53 108.491 55.24 108.651 55.94C108.771 56.48 109.071 56.76 109.601 56.77C110.491 56.79 111.391 56.79 112.281 56.77C113.081 56.75 113.411 56.12 113.791 55.56C113.931 55.35 113.971 54.92 114.311 55.06C114.721 55.23 114.421 55.6 114.351 55.84C113.901 57.43 113.891 57.43 112.251 57.43C111.411 57.43 110.571 57.43 109.731 57.43L109.721 57.39Z" fill="#3E3A39"/>
<path d="M18.2301 71.38C17.4101 71.69 16.8801 72.41 16.1701 72.87C15.7201 73.16 15.4201 73.67 14.8401 73.76C14.8401 72.97 14.8401 72.17 14.8301 71.38C14.8301 70.42 14.8301 69.45 14.8401 68.49C15.6101 68.32 16.0201 67.63 16.6401 67.25C17.2001 66.91 17.5701 66.3 18.2301 66.1C18.2301 67.86 18.2301 69.62 18.2301 71.38Z" fill="#3E3A39"/>
<path d="M111.92 79.82H111.93C111.93 80.88 111.93 81.94 111.93 83C111.93 83.7 112.33 84.14 112.99 84.23C113.63 84.32 114.28 84.31 114.93 84.17C117.73 83.58 118.14 79.72 117.01 77.85C116 76.19 114.39 76.03 112.66 76.1C112.11 76.12 111.89 76.34 111.9 76.89C111.92 77.87 111.9 78.85 111.9 79.82M112.18 84.71C111.45 84.71 110.72 84.71 109.98 84.71C109.82 84.71 109.62 84.73 109.57 84.53C109.53 84.32 109.72 84.28 109.89 84.26C110.57 84.2 110.68 83.76 110.68 83.17C110.66 81.16 110.67 79.16 110.68 77.15C110.68 76.62 110.63 76.16 109.96 76.09C109.85 76.08 109.74 76.03 109.75 75.89C109.77 75.73 109.91 75.66 110.04 75.66C112.16 75.7 114.33 75.24 116.4 76.07C118.33 76.84 119.2 78.52 118.95 80.83C118.75 82.59 117.21 84.17 115.34 84.57C114.29 84.8 113.24 84.73 112.18 84.7" fill="#3E3A39"/>
<path d="M122.09 48.48C122.02 48.48 121.95 48.48 121.88 48.48C121.47 49.61 121.05 50.75 120.64 51.88C120.49 52.29 120.61 52.49 121.07 52.48C121.61 52.47 122.15 52.46 122.69 52.48C123.19 52.5 123.33 52.25 123.19 51.83C122.84 50.71 122.46 49.59 122.09 48.47M125.56 57.39C125.04 57.39 124.53 57.39 124.01 57.39C123.86 57.39 123.65 57.43 123.62 57.21C123.59 57.01 123.77 56.93 123.94 56.93C124.85 56.93 124.7 56.41 124.5 55.84C124.27 55.17 124.04 54.51 123.85 53.83C123.71 53.34 123.45 53.12 122.92 53.14C122.22 53.18 121.51 53.17 120.8 53.14C120.34 53.12 120.09 53.32 119.96 53.73C119.72 54.51 119.49 55.29 119.23 56.05C119.05 56.56 119.08 56.91 119.74 56.91C119.93 56.91 120.17 56.95 120.15 57.19C120.13 57.46 119.86 57.38 119.69 57.38C118.85 57.38 118.01 57.38 117.17 57.38C116.99 57.38 116.74 57.43 116.73 57.16C116.71 56.95 116.91 56.91 117.08 56.91C117.86 56.94 118.15 56.43 118.39 55.8C119.5 52.95 120.67 50.12 121.6 47.21C121.76 46.71 122.19 46.44 122.59 46.37C122.92 46.31 122.93 46.85 123.03 47.14C123.98 49.93 124.91 52.74 125.88 55.53C126.12 56.23 126.38 56.95 127.34 56.92C127.48 56.92 127.6 57.02 127.59 57.19C127.57 57.36 127.42 57.38 127.29 57.38C126.72 57.38 126.15 57.38 125.58 57.38" fill="#3E3A39"/>
<path d="M101.049 78.07C101.049 78.58 101.049 79.09 101.049 79.61C101.049 79.87 101.099 80.07 101.409 80.15C102.169 80.36 103.399 79.99 103.769 79.42C104.249 78.68 104.179 77.41 103.619 76.75C103.159 76.2 102.019 75.85 101.389 76.13C100.749 76.42 101.159 77.04 101.059 77.5C101.019 77.68 101.059 77.88 101.059 78.07M107.329 84.62C106.239 84.91 105.329 84.67 104.589 83.85C104.069 83.28 103.669 82.64 103.269 82C103.039 81.63 102.799 81.27 102.529 80.93C102.209 80.53 101.729 80.59 101.319 80.68C100.869 80.78 101.069 81.22 101.059 81.51C101.029 82.08 101.039 82.65 101.059 83.22C101.079 83.73 101.179 84.21 101.829 84.27C101.999 84.29 102.179 84.33 102.139 84.55C102.109 84.71 101.949 84.72 101.809 84.72H99.1292C98.9892 84.72 98.8292 84.72 98.7992 84.55C98.7492 84.33 98.9392 84.29 99.0992 84.27C99.7792 84.21 99.9092 83.76 99.9092 83.19C99.8992 81.16 99.8992 79.12 99.9092 77.09C99.9092 76.58 99.8092 76.17 99.1892 76.12C99.0392 76.11 98.9092 76.04 98.9292 75.88C98.9492 75.72 99.0892 75.67 99.2292 75.67C100.689 75.67 102.159 75.46 103.599 75.79C104.599 76.02 105.229 76.65 105.349 77.68C105.449 78.63 105.089 79.42 104.249 79.87C103.609 80.22 103.659 80.54 104.039 81.03C104.419 81.52 104.719 82.07 105.089 82.57C105.689 83.4 106.299 84.22 107.319 84.63" fill="#3E3A39"/>
<path d="M38.8105 85.09C39.9005 84.24 40.9205 83.3 42.0705 82.51C43.1705 83.17 44.0705 84.02 44.6405 85.19C43.5605 85.86 42.6605 86.75 41.6405 87.5C41.4405 87.65 41.2605 87.74 41.0205 87.71C40.7805 86.73 40.1405 86.06 39.3505 85.49C39.1705 85.36 38.9905 85.22 38.8105 85.08" fill="#3E3A39"/>
<path d="M23.0094 55.19C23.0494 55.45 22.8994 55.63 22.7094 55.78C21.5394 56.72 20.3694 57.65 19.1994 58.59C17.7794 58.02 16.3594 57.45 14.8594 56.85C17.4594 55.43 20.1994 55.16 23.0094 55.2" fill="#3E3A39"/>
<path d="M57.5496 64.97C56.7596 65.22 56.2796 65.93 55.6096 66.35C55.1196 66.66 54.8096 67.27 54.1096 67.23C54.0896 66.19 54.0596 65.14 54.0496 64.1C54.0496 63.9 53.9896 63.69 54.2296 63.55C55.6896 62.73 56.5596 61.38 57.3496 59.96C57.3896 59.9 57.4296 59.84 57.5496 59.66V64.96V64.97Z" fill="#3E3A39"/>
<path d="M84.2698 63.9C84.2698 62.79 84.2298 61.68 84.2498 60.56C84.2498 60.01 84.0798 59.76 83.4998 59.79C82.7998 59.82 82.0898 59.82 81.3798 59.81C80.1398 59.79 79.2498 60.31 78.7098 61.44C78.5998 61.66 78.5498 62.04 78.1698 61.9C77.7398 61.74 77.9898 61.41 78.0598 61.14C78.2698 60.33 78.4798 59.51 78.6898 58.7C78.7998 58.27 78.9498 58.05 79.2998 58.54C79.5798 58.94 79.9998 59.02 80.4498 59.02C83.9198 59.02 87.3998 59.02 90.8698 59.02C91.2998 59.02 91.6697 58.91 91.9497 58.57C92.0597 58.44 92.1998 58.33 92.3698 58.43C92.5198 58.52 92.4498 58.66 92.4198 58.79C92.2198 59.7 92.1798 60.62 92.1798 61.54C92.1798 61.8 92.1498 62.07 91.8198 62.07C91.4998 62.07 91.4898 61.79 91.4298 61.54C91.1498 60.29 90.7397 59.91 89.4497 59.84C88.5597 59.79 87.6598 59.82 86.7598 59.8C86.3098 59.78 86.1498 59.97 86.1398 60.42C86.1198 61.26 86.2598 62.1 86.0398 62.93C85.7498 62.9 85.5498 63.07 85.3198 63.21C84.9598 63.44 84.7098 63.84 84.2498 63.9" fill="#3E3A39"/>
<path d="M100.39 48.09C101.05 49.47 100.68 50.81 99.3103 51.65C98.6803 52.04 98.6404 52.35 99.0504 52.91C99.6604 53.74 100.19 54.63 100.8 55.46C101.39 56.27 102.08 57 103.15 57.29C102.29 57.79 101.02 57.55 100.16 56.78C99.0704 55.8 98.4103 54.51 97.6303 53.31C97.2503 52.72 96.7704 52.45 96.0804 52.49C95.6604 52.51 95.5004 52.68 95.5104 53.09C95.5304 53.99 95.4903 54.88 95.5303 55.77C95.5603 56.37 95.7203 56.92 96.5003 56.92C96.6903 56.92 96.9203 56.97 96.8603 57.24C96.8203 57.45 96.6003 57.39 96.4503 57.39C95.3703 57.39 94.2803 57.39 93.2003 57.39C93.0303 57.39 92.7603 57.47 92.7803 57.17C92.7803 56.91 93.0404 56.92 93.2204 56.92C93.8404 56.92 94.0904 56.55 94.1204 56C94.1604 55 94.1904 54 94.2204 53C94.8004 52.78 95.2504 52.37 95.7304 52C95.9704 52 96.2103 52 96.4503 52C98.5503 52 99.4104 51.02 99.1504 48.93C99.7004 48.86 100.1 48.56 100.4 48.11" fill="#3E3A39"/>
<path d="M84.2705 63.9C84.7305 63.83 84.9805 63.43 85.3405 63.21C85.5705 63.06 85.7705 62.89 86.0605 62.93C86.0605 65.5 86.0805 68.07 86.0805 70.65C86.0805 70.98 86.0805 71.3 86.0905 71.63C86.1705 73.07 86.3005 73.21 87.6905 73.48C87.9205 73.53 88.3305 73.4 88.2605 73.84C88.2005 74.21 87.8705 74.09 87.6005 74.07C85.9205 73.98 84.2405 73.98 82.5605 74.07C82.3305 74.08 82.0405 74.23 81.9705 73.86C81.9005 73.49 82.2305 73.52 82.4605 73.48C82.6505 73.44 82.8305 73.38 83.0205 73.38C83.7005 73.36 84.0505 73.03 84.1405 72.35C84.2105 71.87 84.2505 71.39 84.2505 70.9C84.2505 68.57 84.2605 66.24 84.2705 63.91" fill="#3E3A39"/>
<path d="M65.7995 54.44C65.6495 52.46 65.7695 50.49 65.7295 48.51C65.7095 47.72 65.7795 46.92 64.6295 46.93C64.4795 46.93 64.3695 46.83 64.3995 46.67C64.4295 46.5 64.5795 46.49 64.7095 46.49C65.8495 46.49 66.9895 46.49 68.1295 46.49C68.2695 46.49 68.4195 46.53 68.4295 46.7C68.4395 46.86 68.3195 46.95 68.1695 46.95C67.1895 46.95 67.1495 47.64 67.1495 48.36C67.1495 49.17 67.1495 49.99 67.1495 50.8C67.1495 51 67.0695 51.26 67.3295 51.38C67.5595 51.48 67.7595 51.36 67.9095 51.19C69.0995 50.01 70.2895 48.82 71.4795 47.63C71.7995 47.31 71.7895 47.07 71.2995 46.96C71.1495 46.93 71.0495 46.83 71.0695 46.68C71.0895 46.52 71.2395 46.49 71.3795 46.49C72.3595 46.49 73.3295 46.49 74.3095 46.49C74.4495 46.49 74.5895 46.54 74.5895 46.71C74.5895 46.83 74.5095 46.91 74.3995 46.93C72.4495 47.25 71.3395 48.79 70.0095 50C68.6695 51.21 68.6895 51.24 69.8895 52.51C69.5795 52.78 69.1495 52.9 68.9495 53.3C68.6495 53 68.3695 52.68 68.0595 52.4C67.8695 52.23 67.6595 51.96 67.3695 52.07C67.0495 52.19 67.1495 52.52 67.1395 52.77C67.1195 53.17 67.1095 53.57 67.1095 53.97C66.6395 54.04 66.2995 54.47 65.7995 54.45" fill="#3E3A39"/>
<path d="M39.9998 48.12C39.1898 48.36 38.7098 49.06 38.0398 49.5C37.3698 49.94 36.8998 50.66 36.0898 50.89C36.5898 49.36 36.9898 47.82 36.9498 46.2C36.9298 45.05 36.6098 43.95 36.3298 42.85C37.5698 43.89 38.4298 45.24 39.2498 46.61C39.5398 47.09 39.8498 47.56 39.9898 48.11" fill="#3E3A39"/>
<path d="M91.8191 77.35C91.7591 77.34 91.699 77.32 91.629 77.31C91.429 77.86 91.229 78.42 91.029 78.97C90.389 80.67 90.4091 80.67 92.2491 80.55C92.6991 80.52 92.829 80.36 92.699 79.95C92.409 79.08 92.1191 78.22 91.8191 77.36M94.7191 84.71C94.2891 84.71 93.849 84.71 93.419 84.71C93.279 84.71 93.129 84.69 93.099 84.53C93.069 84.36 93.209 84.29 93.349 84.28C94.079 84.26 93.9191 83.81 93.7891 83.38C93.7691 83.33 93.7491 83.28 93.7291 83.23C93.2757 81.77 92.2857 81.0833 90.7591 81.17C90.6291 81.17 90.4791 81.17 90.3591 81.22C90.1091 81.32 89.259 83.84 89.379 84.07C89.449 84.21 89.5791 84.24 89.7091 84.27C89.8891 84.32 90.239 84.19 90.169 84.54C90.119 84.79 89.809 84.72 89.599 84.72C88.979 84.72 88.3491 84.72 87.7291 84.72C87.5691 84.72 87.3791 84.72 87.3891 84.48C87.3991 84.3 87.5591 84.29 87.6891 84.28C88.2791 84.26 88.5291 83.88 88.7091 83.39C89.5991 81.04 90.5091 78.69 91.3891 76.33C91.4691 76.12 91.529 75.94 91.699 75.79C92.099 75.45 92.3491 75.39 92.5391 76C93.1091 77.78 93.7291 79.54 94.3291 81.31C94.5491 81.95 94.7591 82.59 94.9791 83.23C95.1691 83.76 95.3991 84.24 96.0691 84.27C96.1991 84.27 96.3691 84.29 96.3591 84.47C96.3391 84.67 96.159 84.7 95.989 84.7C95.559 84.7 95.1191 84.7 94.6891 84.7" fill="#3E3A39"/>
<path d="M68.5204 77.08C68.2304 77.85 68.0104 78.4 67.8104 78.95C67.4171 80.0633 67.8204 80.5934 69.0204 80.54C69.1004 80.54 69.1804 80.54 69.2604 80.54C69.5604 80.53 69.6304 80.37 69.5404 80.11C69.2304 79.18 68.9104 78.25 68.5204 77.09M71.5704 84.71H70.2704C70.1304 84.71 69.9704 84.68 69.9404 84.53C69.9104 84.37 70.0404 84.29 70.1804 84.28C70.8104 84.24 70.7804 83.88 70.6004 83.44C70.5704 83.36 70.5604 83.28 70.5304 83.2C69.8204 81.01 69.8304 81.02 67.5104 81.15C67.1104 81.17 66.9204 81.32 66.8104 81.68C66.6604 82.2 66.4704 82.71 66.3104 83.23C66.1604 83.71 65.8504 84.27 66.7704 84.31C66.8904 84.31 66.9804 84.43 66.9304 84.54C66.9004 84.62 66.7804 84.71 66.7004 84.71C65.9404 84.72 65.1804 84.72 64.4304 84.71C64.2904 84.71 64.1504 84.64 64.1504 84.48C64.1504 84.3 64.3104 84.28 64.4404 84.28C65.0404 84.29 65.2904 83.89 65.4804 83.42C66.4104 81.05 67.3904 78.71 68.1504 76.28C68.2904 75.83 68.6404 75.57 69.0004 75.53C69.3304 75.49 69.3104 75.98 69.4004 76.24C70.1704 78.46 70.9104 80.7 71.6704 82.92C71.8904 83.57 72.0604 84.25 72.9404 84.3C73.0504 84.3 73.1504 84.37 73.1504 84.51C73.1504 84.69 73.0104 84.72 72.8704 84.73C72.4404 84.73 72.0004 84.73 71.5704 84.73V84.71Z" fill="#3E3A39"/>
<path d="M85.7005 91.98C85.7005 92.95 85.6705 93.93 86.0405 94.86C86.2605 95.41 86.5305 95.94 87.2005 95.95C87.8705 95.96 88.2205 95.47 88.3905 94.9C89.0005 92.93 88.9705 90.95 88.3905 88.99C88.2305 88.44 87.8705 87.96 87.1705 87.99C86.5105 88.01 86.2605 88.49 86.0505 89.01C85.6805 89.96 85.6805 90.97 85.6905 91.97M84.4205 91.93C84.3805 90.85 84.6105 89.83 85.1305 88.89C86.1005 87.12 88.2405 87.01 89.2305 88.76C90.4105 90.86 90.4005 93.08 89.2405 95.19C88.3205 96.86 86.2405 96.81 85.2005 95.19C84.6605 94.36 84.4205 93.32 84.4205 91.93Z" fill="#3E3A39"/>
<path d="M26.2793 79.67C26.8893 79.63 27.1293 79.05 27.5893 78.79C28.0693 78.52 28.3593 77.95 28.9893 77.91C29.1793 80.5 30.4393 82.44 32.5593 83.89C29.9293 83.28 27.7293 82.05 26.2793 79.67Z" fill="#3E3A39"/>
<path d="M71.5804 66.79C73.0004 67.86 73.4804 69.79 73.0504 71.3C72.5904 72.95 71.1904 74.13 69.3804 74.3C68.0804 74.43 66.7804 74.39 65.5304 73.9C64.9804 73.68 64.6104 73.38 64.5304 72.75C64.4604 72.16 64.3004 71.58 64.2404 70.99C64.2104 70.74 64.0304 70.33 64.4804 70.25C64.8804 70.18 64.8604 70.57 64.9504 70.8C65.2804 71.65 65.7204 72.41 66.4804 72.95C67.5104 73.67 68.6204 73.83 69.8004 73.42C71.5604 72.82 72.0204 70.33 70.6704 68.78C70.4704 68.55 70.2604 68.35 70.0504 68.13C70.6404 67.77 71.2004 67.38 71.5704 66.77" fill="#3E3A39"/>
<path d="M78.6897 55.65C77.1197 53.87 76.9897 51.83 77.7997 49.75C78.5997 47.69 80.2397 46.56 82.4297 46.32C83.9697 46.15 85.4497 46.36 86.7397 47.34C87.1297 47.64 87.3597 48.08 87.7297 48.4C87.3197 48.59 87.0297 48.99 86.5497 49.07C86.4797 48.99 86.4097 48.91 86.3497 48.82C85.3697 47.29 83.8797 46.52 82.3297 46.83C80.5797 47.18 79.5597 48.29 79.1797 50.02C78.8197 51.67 79.0897 53.23 79.6997 54.77C79.3597 55.06 79.0197 55.35 78.6897 55.64" fill="#3E3A39"/>
<path d="M78.6895 55.65C79.0295 55.36 79.3594 55.07 79.6994 54.78C79.7694 54.87 79.8395 54.95 79.8895 55.04C80.8495 56.6 82.4294 57.36 84.0894 57.04C85.6194 56.75 86.6994 55.55 87.0594 53.77C87.3994 52.14 87.1095 50.6 86.5495 49.08C87.0295 49 87.3195 48.6 87.7295 48.41C89.0795 50.13 89.1595 52.07 88.4795 54.03C87.7895 56 86.2994 57.19 84.2394 57.53C82.0894 57.89 80.1495 57.43 78.6895 55.66" fill="#3E3A39"/>
<path d="M122.369 82.23C122.649 82.73 122.859 83.11 123.079 83.47C123.489 84.13 124.139 84.39 124.869 84.41C125.539 84.43 126.149 84.16 126.379 83.52C126.629 82.82 126.599 82.07 126.019 81.47C125.489 80.91 124.769 80.61 124.159 80.16C123.399 79.6 122.739 78.98 122.689 77.95C122.639 76.65 123.549 75.59 124.849 75.48C125.199 75.45 125.559 75.46 125.909 75.48C127.279 75.54 127.599 75.98 127.319 77.38C127.049 77.43 127.029 77.21 126.949 77.05C126.459 76.08 125.729 75.73 124.679 75.97C123.629 76.22 123.319 77.57 124.119 78.46C124.619 79.01 125.299 79.31 125.909 79.72C126.739 80.28 127.469 80.93 127.569 82C127.769 83.98 126.049 85.27 123.849 84.81C122.379 84.5 121.999 83.91 122.359 82.23" fill="#3E3A39"/>
<path d="M66.1906 65.35C65.0306 64.21 64.7206 62.82 65.2206 61.33C65.7906 59.61 67.1806 58.89 68.8906 58.7C70.0006 58.57 71.1006 58.78 72.1806 59.02C72.5006 59.09 72.6506 59.24 72.6906 59.55C72.7806 60.14 72.9006 60.72 72.9706 61.31C73.0006 61.55 73.1006 61.89 72.6906 61.95C72.3706 62 72.3106 61.73 72.2106 61.51C71.5006 59.85 70.7906 59.39 69.0406 59.45C67.0506 59.52 66.0206 61.3 66.9606 63.07C67.1506 63.42 67.4306 63.73 67.6606 64.06C67.1706 64.49 66.6806 64.92 66.1906 65.35Z" fill="#3E3A39"/>
<path d="M64.7207 96.04C65.7507 95.28 66.6107 94.36 67.4207 93.39C68.2107 92.44 68.8707 91.43 68.8307 90.11C68.8107 89.34 68.5807 88.72 67.8307 88.41C67.1107 88.11 66.4407 88.36 65.8107 89.06C65.6407 89.25 65.5507 89.8 65.2207 89.55C64.9407 89.34 65.3107 88.96 65.4807 88.72C66.1607 87.79 67.1307 87.41 68.2607 87.55C69.1407 87.66 69.7507 88.19 70.0007 89.06C70.2607 89.96 69.9707 90.77 69.5207 91.53C68.9507 92.5 68.1307 93.26 67.4307 94.13C67.3807 94.19 67.3207 94.25 67.2707 94.31C67.0607 94.59 66.6407 94.88 66.7507 95.17C66.8807 95.52 67.3707 95.32 67.7007 95.33C68.6807 95.33 69.7407 95.55 70.4307 94.43C70.7107 95.63 70.2207 96.28 69.2107 96.27C67.9907 96.27 66.7707 96.27 65.5507 96.27C65.3007 96.27 65.0007 96.4 64.7307 96.05" fill="#3E3A39"/>
<path d="M37.2099 90.52C37.1799 91.07 36.6499 91.17 36.3399 91.46C36.0799 91.71 35.7799 91.93 35.5699 92.24C33.6499 91.78 31.9399 90.83 30.2599 89.84C29.7999 89.57 29.2999 89.36 28.9199 88.96C29.7199 89.03 30.4399 89.38 31.1899 89.58C33.1699 90.1 35.1599 90.51 37.2099 90.51" fill="#3E3A39"/>
<path d="M100.39 48.09C100.09 48.54 99.6903 48.84 99.1403 48.91C98.6803 47.51 97.7003 46.86 96.2403 46.98C95.7603 47.02 95.5003 47.18 95.5103 47.72C95.5403 48.69 95.5003 49.67 95.5303 50.65C95.5403 51.1 95.3703 51.58 95.7203 51.98C95.2403 52.35 94.7903 52.76 94.2103 52.98C94.2103 51.55 94.2103 50.11 94.1803 48.68C94.1603 47.95 94.2803 47.08 93.1203 47.06C93.0503 47.06 92.9303 46.93 92.9103 46.85C92.8803 46.69 93.0203 46.62 93.1603 46.6C93.4803 46.56 93.8003 46.48 94.1203 46.49C95.5703 46.5 97.0403 46.3 98.4803 46.64C99.3203 46.83 100.01 47.26 100.39 48.08" fill="#3E3A39"/>
<path d="M104.529 88.46C105.269 88.1 106.089 87.96 106.899 87.44V92.71C106.899 93.42 106.909 94.12 106.899 94.83C106.899 95.4 106.959 95.89 107.709 95.84C107.849 95.84 108.009 95.87 108.009 96.04C108.009 96.27 107.819 96.27 107.659 96.27C106.819 96.28 105.989 96.11 105.149 96.27C104.989 96.3 104.789 96.27 104.799 96.05C104.799 95.89 104.959 95.84 105.099 95.85C105.779 95.88 105.809 95.43 105.809 94.93C105.809 93.36 105.809 91.79 105.809 90.21C105.809 89.31 105.386 88.73 104.539 88.47" fill="#3E3A39"/>
<path d="M66.1895 65.35C66.6795 64.92 67.1695 64.49 67.6595 64.06C68.7495 64.77 69.8394 65.47 70.9194 66.2C71.1594 66.36 71.3595 66.59 71.5795 66.79C71.2195 67.4 70.6495 67.79 70.0695 68.15C68.7395 67.27 67.2595 66.6 66.1895 65.35Z" fill="#3E3A39"/>
<path d="M68.9609 53.29C69.1609 52.89 69.5909 52.77 69.9009 52.5C70.8609 53.57 71.8209 54.64 72.7809 55.7C73.3109 56.29 73.8309 56.88 74.7109 56.92C74.8809 56.92 75.0709 56.99 75.0709 57.18C75.0709 57.4 74.8509 57.38 74.7009 57.38C73.6409 57.38 72.5809 57.38 71.5309 57.38C71.3809 57.38 71.1809 57.43 71.1209 57.22C71.0609 57.01 71.2309 56.94 71.4009 56.91C72.0409 56.79 71.7109 56.48 71.5109 56.24C70.6709 55.25 69.8109 54.27 68.9609 53.29Z" fill="#3E3A39"/>
<path d="M65.8 54.44C66.3 54.46 66.64 54.03 67.11 53.96C67.12 54.56 67.14 55.15 67.15 55.75C67.15 56.43 67.35 56.93 68.16 56.92C68.34 56.92 68.58 56.92 68.55 57.2C68.52 57.41 68.31 57.39 68.15 57.39C67.04 57.39 65.93 57.39 64.81 57.39C64.67 57.39 64.51 57.39 64.5 57.21C64.5 57.13 64.6 56.98 64.66 56.97C65.9 56.88 65.69 55.96 65.72 55.16C65.72 54.92 65.77 54.68 65.79 54.44" fill="#3E3A39"/>
<path d="M28.9198 88.97C28.8598 88.96 28.8098 88.95 28.7598 88.94C28.7798 88.92 28.7898 88.9 28.8098 88.88C28.8498 88.92 28.8798 88.95 28.9198 88.98V88.97Z" fill="#3E3A39"/>
<path d="M36.3205 42.86C36.3205 42.86 36.2605 42.82 36.2305 42.8C36.3205 42.71 36.3105 42.8 36.3205 42.85V42.86Z" fill="#3E3A39"/>
</g>
<defs>
<clipPath id="clip0_164_210">
<rect width="142.63" height="142.63" fill="white"/>
</clipPath>
</defs>
</svg>
