<svg width="143" height="143" viewBox="0 0 143 143" fill="none" xmlns="http://www.w3.org/2000/svg">
<g clip-path="url(#clip0_164_282)">
<path d="M71.32 142.63C110.71 142.63 142.64 110.7 142.64 71.31C142.64 31.92 110.7 0 71.32 0C31.94 0 0 31.93 0 71.32C0 110.71 31.93 142.64 71.32 142.64" fill="white"/>
<path d="M13.1205 65.14H9.20047V78.86L13.1205 75.92V76.2L9.16047 79.17C9.16047 79.17 9.12047 79.19 9.09047 79.19C9.03047 79.19 8.98047 79.14 8.98047 79.08V65.02C8.98047 64.96 9.03047 64.91 9.09047 64.91H13.1205V65.14ZM17.0305 65.14H13.1205V64.91H17.1405C17.2005 64.91 17.2605 64.96 17.2605 65.02V73.03C17.2605 73.03 17.2405 73.1 17.2105 73.12L13.1205 76.2V75.92L17.0305 72.98V65.14Z" fill="#3E3A39"/>
<path d="M9.4208 78.97H17.2608V79.2H9.0808C9.0808 79.2 9.0208 79.19 8.9908 79.16C8.9508 79.11 8.9608 79.04 9.0208 79L17.0708 72.95C17.0708 72.95 17.1108 72.92 17.1408 72.92H17.2708V73.15H17.1808L9.4308 78.97H9.4208ZM17.2608 78.97H25.0908V73.15H17.2608V72.92H25.2108C25.2708 72.92 25.3208 72.97 25.3208 73.03V79.08C25.3208 79.14 25.2708 79.19 25.2108 79.19H17.2608V78.96V78.97Z" fill="#3E3A39"/>
<path d="M32.2096 53.06H9.09961V59.09H32.2096V53.06Z" fill="#3E3A39"/>
<path d="M33.0098 79.08H39.0598V58.36L33.0098 53.09V79.08Z" fill="#3E3A39"/>
<path d="M49.3498 71.19V79.28H44.3398V60.12C44.3698 57.76 46.7498 55.84 49.4698 55.77H49.6398H58.5998V60.25H52.2298C50.6398 60.18 49.2198 61.26 49.3398 62.72V66.45H58.5998V71.2H49.3398L49.3498 71.19ZM58.5998 55.76H68.0598C70.7798 55.84 72.9598 57.76 72.9698 60.12V79.28H67.8598V71.19H58.5998V66.44H67.8598V62.71C67.9698 61.25 66.8798 60.17 65.2898 60.24H58.5998V55.76Z" fill="#3E3A39"/>
<path d="M89.9603 71.08H80.7503V79.22H75.6003L75.5703 55.76H89.9603V60.43C86.8903 60.43 83.8203 60.44 80.7503 60.45V66.31C83.8203 66.31 86.9003 66.33 89.9603 66.34V71.08ZM98.3503 71.08H89.9603V66.34C92.2503 66.34 94.5403 66.35 96.8303 66.35C98.1203 66.35 99.1803 65.44 99.1803 64.32V62.43C99.1803 61.31 98.1303 60.4 96.8303 60.4C94.5403 60.4 92.2503 60.4 89.9603 60.42V55.75H98.9903L99.0403 55.79C101.47 56.09 103.37 57.84 103.49 60V60.22V66.51C103.49 66.51 103.49 66.58 103.49 66.61V66.77C103.41 68.25 102.48 69.66 100.9 70.44C100.1 70.84 99.2303 71.03 98.3803 71.04L98.3403 71.07L98.3503 71.08Z" fill="#3E3A39"/>
<path d="M126.479 71.08H111.069V79.22H105.879L105.859 60.23L105.889 60.21C105.929 57.79 108.169 55.84 110.949 55.76H111.109H133.629V60.42C126.849 60.42 120.079 60.43 113.299 60.43C112.059 60.43 111.049 61.3 111.049 62.37C111.049 63.69 111.049 65 111.049 66.31C116.179 66.31 121.329 66.35 126.459 66.35V71.08H126.479Z" fill="#3E3A39"/>
<path d="M26.3595 88.38H25.3895L24.9895 89.49H23.9395L25.8495 84.59H26.3695V85.75V85.73L25.6995 87.55H26.3695V88.37L26.3595 88.38ZM40.6495 89.49V84.59H41.6095L43.6195 87.86V84.59H44.5395V89.49H43.5395L41.5695 86.29V89.49H40.6495ZM33.9095 84.59H34.8995V89.49H33.9095V84.59ZM29.1295 87.9L30.0895 87.81C30.1495 88.13 30.2695 88.37 30.4395 88.52C30.6195 88.67 30.8595 88.75 31.1595 88.75C31.4795 88.75 31.7195 88.68 31.8795 88.54C32.0395 88.41 32.1195 88.25 32.1195 88.07C32.1195 87.95 32.0795 87.86 32.0095 87.77C31.9395 87.69 31.8195 87.62 31.6595 87.56C31.5395 87.52 31.2795 87.45 30.8695 87.34C30.3395 87.21 29.9695 87.05 29.7495 86.85C29.4495 86.58 29.2995 86.25 29.2995 85.86C29.2995 85.61 29.3695 85.38 29.5095 85.16C29.6495 84.94 29.8595 84.78 30.1195 84.66C30.3895 84.55 30.6995 84.49 31.0795 84.49C31.6895 84.49 32.1595 84.62 32.4695 84.89C32.7795 85.16 32.9395 85.52 32.9595 85.97L31.9695 86.01C31.9295 85.76 31.8295 85.58 31.6995 85.47C31.5595 85.36 31.3495 85.3 31.0695 85.3C30.7895 85.3 30.5595 85.36 30.3995 85.48C30.2895 85.56 30.2395 85.66 30.2395 85.78C30.2395 85.9 30.2895 86 30.3895 86.08C30.5195 86.19 30.8195 86.3 31.2995 86.41C31.7795 86.53 32.1395 86.64 32.3695 86.76C32.5995 86.88 32.7795 87.05 32.9095 87.26C33.0395 87.47 33.1095 87.73 33.1095 88.04C33.1095 88.32 33.0295 88.58 32.8695 88.83C32.7095 89.08 32.4895 89.26 32.2095 89.37C31.9295 89.49 31.5695 89.55 31.1395 89.55C30.5195 89.55 30.0395 89.41 29.7095 89.12C29.3795 88.83 29.1795 88.42 29.1195 87.87M49.3495 84.59V85.42C49.2395 85.42 49.1095 85.42 48.9495 85.42H48.4695V86.81H49.0095C49.1395 86.81 49.2395 86.81 49.3395 86.81V87.65H48.4695V89.5H47.4895V84.6H49.3495V84.59ZM28.8495 89.49H27.7695L27.3395 88.38H26.3495V87.56H27.0195L26.3495 85.76V84.6H26.8795L28.8495 89.5V89.49ZM51.1395 89.24V89.49H51.0495L51.1395 89.24ZM51.1395 85.48V86.7C51.1195 86.75 51.0995 86.8 51.0795 86.85C50.9695 87.06 50.8295 87.22 50.6595 87.34C50.4895 87.46 50.3195 87.53 50.1495 87.57C49.9595 87.61 49.6895 87.63 49.3495 87.64V86.8C49.5595 86.79 49.7095 86.76 49.7995 86.73C49.9295 86.67 50.0395 86.6 50.1095 86.49C50.1795 86.38 50.2195 86.25 50.2195 86.11C50.2195 85.93 50.1695 85.79 50.0595 85.67C49.9495 85.55 49.8195 85.48 49.6595 85.45C49.5895 85.43 49.4895 85.43 49.3395 85.42V84.59C49.7895 84.59 50.0895 84.62 50.2395 84.66C50.5195 84.73 50.7595 84.89 50.9495 85.14C51.0295 85.24 51.0895 85.36 51.1295 85.48M51.1395 86.71C51.2095 86.53 51.2395 86.33 51.2395 86.1C51.2395 85.87 51.2095 85.67 51.1395 85.49V86.71ZM53.4695 84.59V85.75V85.73L52.7995 87.55H53.4695V88.37H52.4895L52.0895 89.48H51.1395V89.23L52.9495 84.58H53.4695V84.59ZM61.4395 89.49V84.59H62.4295V86.77L64.4194 84.59H65.7495L63.9095 86.5L65.8595 89.49H64.5795L63.2295 87.19L62.4295 88.01V89.49H61.4395ZM59.6195 87.69L60.5795 87.99C60.4295 88.53 60.1894 88.92 59.8494 89.18C59.5094 89.44 59.0695 89.57 58.5495 89.57C57.8995 89.57 57.3695 89.35 56.9495 88.91C56.5295 88.46 56.3195 87.86 56.3195 87.08C56.3195 86.27 56.5295 85.63 56.9495 85.18C57.3695 84.73 57.9195 84.5 58.6095 84.5C59.2095 84.5 59.6995 84.68 60.0695 85.03C60.2895 85.24 60.4595 85.54 60.5695 85.93L59.5895 86.16C59.5295 85.91 59.4095 85.71 59.2295 85.56C59.0395 85.41 58.8195 85.34 58.5595 85.34C58.1995 85.34 57.8995 85.47 57.6795 85.73C57.4495 85.99 57.3395 86.41 57.3395 86.99C57.3395 87.61 57.4494 88.05 57.6694 88.32C57.8894 88.58 58.1795 88.72 58.5395 88.72C58.8095 88.72 59.0295 88.64 59.2195 88.47C59.4095 88.3 59.5495 88.04 59.6295 87.68M53.4695 88.38V87.56H54.1295L53.4695 85.76V84.6H53.9995L55.9594 89.5H54.8895L54.4595 88.39H53.4795L53.4695 88.38ZM68.2995 84.59V85.75V85.73L67.6294 87.55H68.2995V88.37H67.3295L66.9295 89.48H65.8794L67.7895 84.58H68.3094L68.2995 84.59ZM94.8995 89.49V84.59H98.5294V85.42H95.8895V86.51H98.3494V87.33H95.8895V88.67H98.6195V89.49H94.8995ZM90.7195 89.49V84.59H94.0795V85.42H91.7094V86.58H93.7595V87.41H91.7094V89.49H90.7195ZM85.7694 87.69V86.87H87.8995V88.82C87.6895 89.02 87.3895 89.2 86.9995 89.35C86.5995 89.5 86.2095 89.58 85.7995 89.58C85.2895 89.58 84.8394 89.47 84.4594 89.26C84.0794 89.04 83.7894 88.74 83.5994 88.34C83.4094 87.94 83.3094 87.51 83.3094 87.04C83.3094 86.53 83.4194 86.07 83.6294 85.68C83.8494 85.29 84.1595 84.98 84.5695 84.77C84.8795 84.61 85.2694 84.53 85.7394 84.53C86.3494 84.53 86.8194 84.66 87.1694 84.91C87.5094 85.17 87.7295 85.52 87.8295 85.97L86.8494 86.15C86.7794 85.91 86.6494 85.72 86.4594 85.58C86.2594 85.44 86.0294 85.37 85.7394 85.37C85.3094 85.37 84.9594 85.51 84.7094 85.78C84.4494 86.06 84.3295 86.46 84.3295 87C84.3295 87.58 84.4495 88.02 84.7195 88.31C84.9795 88.6 85.3195 88.75 85.7295 88.75C85.9395 88.75 86.1495 88.71 86.3595 88.63C86.5695 88.55 86.7495 88.45 86.8895 88.33V87.71H85.7595L85.7694 87.69ZM78.5495 89.49V84.59H79.5095L81.5095 87.86V84.59H82.4295V89.49H81.4395L79.4594 86.29V89.49H78.5395H78.5495ZM76.6095 84.59H77.5994V89.49H76.6095V84.59ZM73.5994 87.69V86.87H75.7295V88.82C75.5195 89.02 75.2195 89.2 74.8295 89.35C74.4295 89.5 74.0394 89.58 73.6294 89.58C73.1194 89.58 72.6695 89.47 72.2895 89.26C71.9095 89.04 71.6195 88.74 71.4295 88.34C71.2395 87.94 71.1395 87.51 71.1395 87.04C71.1395 86.53 71.2494 86.07 71.4594 85.68C71.6794 85.29 71.9895 84.98 72.3995 84.77C72.7095 84.61 73.1095 84.53 73.5795 84.53C74.1895 84.53 74.6595 84.66 74.9995 84.91C75.3495 85.17 75.5695 85.52 75.6595 85.97L74.6795 86.15C74.6095 85.91 74.4795 85.72 74.2895 85.58C74.0995 85.44 73.8595 85.37 73.5795 85.37C73.1395 85.37 72.7995 85.51 72.5395 85.78C72.2795 86.06 72.1595 86.46 72.1595 87C72.1595 87.58 72.2895 88.02 72.5495 88.31C72.8095 88.6 73.1495 88.75 73.5695 88.75C73.7795 88.75 73.9795 88.71 74.1895 88.63C74.3995 88.55 74.5795 88.45 74.7295 88.33V87.71H73.5994V87.69ZM68.2995 88.38V87.56H68.9695L68.2995 85.76V84.6H68.8295L70.7895 89.5H69.7094L69.2794 88.39H68.2895L68.2995 88.38ZM101.499 84.59V85.43C101.349 85.42 101.149 85.41 100.899 85.41H100.449V88.66H101.189C101.309 88.66 101.409 88.66 101.499 88.66V89.49H99.4695V84.59H101.499ZM104.399 89.49V84.59H108.029V85.42H105.389V86.51H107.849V87.33H105.389V88.67H108.119V89.49H104.389H104.399ZM101.499 89.49V88.66C101.619 88.66 101.719 88.63 101.789 88.62C101.949 88.58 102.089 88.51 102.189 88.42C102.299 88.33 102.379 88.17 102.449 87.95C102.519 87.73 102.549 87.43 102.549 87.05C102.549 86.67 102.509 86.38 102.449 86.18C102.379 85.98 102.289 85.82 102.169 85.71C102.049 85.59 101.889 85.52 101.709 85.48C101.659 85.47 101.589 85.46 101.499 85.45V84.61C101.799 84.61 102.029 84.65 102.199 84.7C102.489 84.79 102.729 84.94 102.939 85.15C103.149 85.37 103.299 85.63 103.409 85.94C103.509 86.25 103.569 86.64 103.569 87.1C103.569 87.51 103.519 87.85 103.419 88.14C103.299 88.5 103.129 88.78 102.899 89C102.729 89.17 102.499 89.3 102.199 89.39C102.019 89.45 101.789 89.49 101.499 89.49ZM110.959 84.59V85.42H109.959V86.66H110.959V87.7C110.869 87.6 110.769 87.53 110.659 87.5C110.559 87.46 110.389 87.44 110.159 87.44H109.959V89.49H108.969V84.59H110.959ZM110.959 87.7V86.66C111.289 86.66 111.489 86.63 111.579 86.6C111.699 86.56 111.789 86.49 111.859 86.39C111.929 86.29 111.959 86.17 111.959 86.02C111.959 85.85 111.919 85.72 111.829 85.62C111.739 85.52 111.619 85.46 111.449 85.43C111.389 85.42 111.219 85.42 110.959 85.41V84.58H111.049C111.569 84.58 111.949 84.63 112.189 84.71C112.429 84.8 112.619 84.95 112.759 85.18C112.909 85.4 112.979 85.66 112.979 85.95C112.979 86.32 112.869 86.62 112.649 86.86C112.429 87.1 112.109 87.25 111.679 87.31C111.889 87.44 112.069 87.58 112.209 87.72C112.349 87.87 112.539 88.13 112.769 88.51L113.369 89.47H112.189L111.479 88.4C111.229 88.02 111.059 87.79 110.959 87.68M115.839 84.59V85.75V85.73L115.169 87.55H115.839V88.37H114.869L114.469 89.48H113.419L115.329 84.58H115.849L115.839 84.59ZM118.169 89.07L116.369 84.59H115.839V85.75L116.509 87.55H115.839V88.37H116.819L117.249 89.48H118.159V89.06L118.169 89.07ZM118.169 85.42H117.999V84.59H118.169V85.42ZM122.499 84.59H123.489V89.49H122.499V84.59ZM118.169 85.42H119.449V89.49H120.439V85.42H121.889V84.59H118.159V85.42H118.169ZM118.169 89.49V89.07L118.339 89.49H118.169ZM126.599 84.51V85.36C126.199 85.36 125.869 85.5 125.619 85.78C125.369 86.06 125.249 86.48 125.249 87.04C125.249 87.6 125.369 88.02 125.629 88.3C125.889 88.59 126.209 88.73 126.599 88.73V89.57C125.869 89.57 125.309 89.35 124.869 88.91C124.439 88.46 124.229 87.85 124.229 87.07C124.229 86.57 124.309 86.15 124.449 85.81C124.559 85.56 124.719 85.34 124.909 85.14C125.109 84.94 125.309 84.8 125.539 84.7C125.849 84.57 126.199 84.51 126.599 84.51ZM129.769 89.49V84.59H130.729L132.729 87.86V84.59H133.649V89.49H132.649L130.679 86.29V89.49H129.759H129.769ZM126.599 89.57V88.73C126.989 88.73 127.319 88.59 127.569 88.3C127.819 88.01 127.949 87.59 127.949 87.02C127.949 86.45 127.829 86.04 127.579 85.76C127.339 85.48 126.999 85.34 126.599 85.34V84.5C127.319 84.5 127.899 84.72 128.329 85.17C128.759 85.62 128.979 86.24 128.979 87.04C128.979 87.84 128.769 88.45 128.339 88.9C127.909 89.35 127.329 89.57 126.609 89.57H126.599Z" fill="#3E3A39"/>
<path d="M37.7091 88.38H36.7391L36.3391 89.49H35.2891L37.1991 84.59H37.7191V85.76V85.74L37.0491 87.56H37.7191V88.38H37.7091ZM40.1991 89.49H39.1191L38.6891 88.38H37.6991V87.56H38.3691L37.6991 85.76V84.59H38.2291L40.1891 89.49H40.1991Z" fill="#3E3A39"/>
<path d="M18.1797 89.49V84.59H21.8097V85.42H19.1697V86.51H21.6297V87.33H19.1697V88.67H21.8997V89.49H18.1797Z" fill="#3E3A39"/>
<path d="M9.30086 85.42H9.13086V84.59H9.30086V85.42ZM13.6309 84.59H14.6209V89.49H13.6309V84.59ZM9.30086 85.42H10.5909V89.49H11.5809V85.42H13.0309V84.59H9.30086V85.42Z" fill="#3E3A39"/>
<path d="M17.5193 84.59H16.5293V89.49H17.5193V84.59Z" fill="#3E3A39"/>
<path d="M17.3001 86.54H14.0801V87.53H17.3001V86.54Z" fill="#3E3A39"/>
<path d="M9.08984 65.02H25.2098L32.2098 60.95H16.0998L9.08984 65.02Z" fill="#3E3A39"/>
<path d="M25.2109 65.02L32.2109 60.95V74.05L25.2109 79.08V65.02Z" fill="#3E3A39"/>
<path d="M25.1598 64.92L28.7098 62.86V63.12L25.3198 65.09V78.87L28.7098 76.43V76.7L25.2698 79.17C25.2198 79.21 25.1498 79.2 25.1098 79.14C25.0898 79.12 25.0898 79.1 25.0898 79.07V65.01C25.0898 65.01 25.1198 64.92 25.1598 64.91M28.7098 62.86L32.1498 60.86C32.1998 60.83 32.2698 60.85 32.3098 60.9C32.3098 60.92 32.3198 60.94 32.3198 60.96V74.06C32.3198 74.06 32.2998 74.13 32.2698 74.15L28.7098 76.71V76.44L32.0998 74V61.15L28.7098 63.12V62.86Z" fill="#3E3A39"/>
<path d="M25.0999 64.34H16.6699V65.13H25.0999V64.34Z" fill="#3E3A39"/>
</g>
<defs>
<clipPath id="clip0_164_282">
<rect width="142.63" height="142.63" fill="white"/>
</clipPath>
</defs>
</svg>
